<?xml version="1.0" encoding="UTF-8" standalone="no"?>
<!-- Created with Inkscape (http://www.inkscape.org/) -->

<svg
   width="183mm"
   height="306mm"
   viewBox="0 0 183 306"
   version="1.1"
   id="svg27335"
   inkscape:version="1.2.2 (b0a8486, 2022-12-01)"
   sodipodi:docname="Flags.svg"
   xml:space="preserve"
   xmlns:inkscape="http://www.inkscape.org/namespaces/inkscape"
   xmlns:sodipodi="http://sodipodi.sourceforge.net/DTD/sodipodi-0.dtd"
   xmlns="http://www.w3.org/2000/svg"
   xmlns:svg="http://www.w3.org/2000/svg"><sodipodi:namedview
     id="namedview27337"
     pagecolor="#ffffff"
     bordercolor="#000000"
     borderopacity="0.25"
     inkscape:showpageshadow="2"
     inkscape:pageopacity="0.0"
     inkscape:pagecheckerboard="0"
     inkscape:deskcolor="#d1d1d1"
     inkscape:document-units="mm"
     showgrid="false"
     showguides="true"
     inkscape:zoom="0.35212985"
     inkscape:cx="352.14282"
     inkscape:cy="647.48842"
     inkscape:window-width="1360"
     inkscape:window-height="699"
     inkscape:window-x="0"
     inkscape:window-y="32"
     inkscape:window-maximized="1"
     inkscape:current-layer="layer1"><sodipodi:guide
       position="30.149126,180.14383"
       orientation="0,-1"
       id="guide65746"
       inkscape:locked="false" /></sodipodi:namedview><defs
     id="defs27332"><rect
       x="40.322941"
       y="586.33527"
       width="417.92807"
       height="89.295387"
       id="rect62629" /></defs><g
     inkscape:label="Layer 1"
     inkscape:groupmode="layer"
     id="layer1"><rect
       style="fill:#e5eb9a;fill-opacity:1;stroke:#e64888;stroke-width:2.892;stroke-linecap:square;stroke-linejoin:round;stroke-dasharray:none;stroke-opacity:1;paint-order:markers stroke fill"
       id="rect27925"
       width="84.737473"
       height="54.895145"
       x="2.5793495"
       y="2.3164763"
       rx="3.5991995"
       ry="3.5991995" /><path
       style="fill:#e64888;fill-opacity:1;stroke:none;stroke-width:19.992;stroke-linecap:square;stroke-linejoin:round;stroke-dasharray:none;stroke-opacity:1;paint-order:markers stroke fill"
       d="M 2.2335773,3.959821 25.289154,28.187711 30.369197,21.805096 18.124991,1.875701 h 15.305252 l 5.861587,16.151931 h 9.834441 l 4.298503,-16.412445 17.71502,0.130258 -11.723184,21.23197 2.77085,4.937814 25.364773,-24.476435 0.02235,14.39649 -20.44772,16.395053 20.388139,-6.105805 0.791941,21.499162 L 66.583023,45.679418 74.656739,57.88642 14.608038,57.625904 20.599886,45.381701 2.103316,49.940717 1.9730603,28.05745 20.209112,34.440075 1.9730604,17.767117 Z"
       id="path29963"
       sodipodi:nodetypes="ccccccccccccccccccccccccc" /><g
       id="path29877"
       transform="translate(-7.2944145,-15.246675)"><path
         id="path29906"
         style="color:#000000;fill:#ee86d2;fill-opacity:1;stroke-linecap:square;stroke-linejoin:round;-inkscape-stroke:none;paint-order:markers stroke fill"
         d="m 54.445025,30.906701 c 0.982474,0.844171 1.981274,2.150462 1.981274,3.981669 0,3.602482 -3.388423,5.18263 -3.388423,5.18263 0,0 6.504706,-0.505415 9.966833,-2.312521 1.315948,-0.686877 2.357316,-1.302164 3.226677,-1.953886 -3.378773,-2.569254 -7.413675,-4.308196 -11.786361,-4.897892 z m -6.994922,0.05323 c -4.293859,0.646271 -8.249764,2.402197 -11.563119,4.960937 0.837056,0.60903 1.829219,1.191811 3.06648,1.837614 3.462129,1.807106 9.966833,2.312521 9.966833,2.312521 0,0 -3.388423,-1.580148 -3.388423,-5.18263 0,-1.791796 0.956659,-3.082851 1.918229,-3.928442 z m 25.55813,12.602848 c -1.678381,3.428513 -4.831004,4.927386 -8.72815,5.278748 -6.275841,0.439906 -9.433798,-2.232533 -10.494966,-3.388424 3.802332,4.613072 8.248078,9.572453 9.857279,12.866398 1.669757,3.417898 2.630847,12.347567 2.630847,12.347567 -2.580662,-3.585277 -4.739427,-7.47957 -9.56324,-8.821684 0,0 0.411888,3.396561 -0.558106,7.016626 -0.363698,1.357339 -1.188643,2.87332 -2.076875,4.241085 h 15.142745 c 4.33533,-4.522358 7.018176,-10.637887 7.018176,-17.317806 0,-4.420943 -1.176303,-8.594062 -3.22771,-12.22251 z M 29.099285,43.8501 c -1.952243,3.560624 -3.066479,7.630742 -3.066479,11.935189 0,6.679919 2.682844,12.795448 7.018176,17.317806 H 47.883668 C 46.995564,71.735327 46.17049,70.219346 45.806792,68.862007 44.836797,65.241942 45.24817,61.845381 45.24817,61.845381 c -4.823812,1.342114 -6.982578,5.236407 -9.56324,8.821684 0,0 0.961091,-8.929669 2.630847,-12.347567 1.608882,-3.293289 6.052865,-8.251041 9.854695,-12.863814 -1.063613,1.157354 -4.221413,3.825405 -10.492382,3.38584 -3.785686,-0.341313 -6.867055,-1.767605 -8.578805,-4.991427 z" /><path
         id="path29903"
         style="color:#000000;fill:#e5eb9a;fill-opacity:1;stroke-width:19.992;stroke-linecap:square;stroke-linejoin:round;-inkscape-stroke:none;paint-order:markers stroke fill"
         d="m 53.785117,45.4531 c 3.802332,4.613072 8.248078,9.572453 9.857279,12.866398 0.46029,0.942188 0.86655,2.303799 1.21388,3.781165 a 15.105371,15.105371 0 0 0 1.384411,-6.315377 15.105371,15.105371 0 0 0 -1.706356,-6.970117 c -0.08483,0.0088 -0.168692,0.01864 -0.254248,0.02636 C 58.004242,49.28143 54.846285,46.608991 53.785117,45.4531 Z m -5.614645,0.0026 c -1.060706,1.15419 -4.204879,3.809878 -10.441739,3.388423 a 15.105371,15.105371 0 0 0 -1.698605,6.941179 15.105371,15.105371 0 0 0 1.183907,5.852356 c 0.321833,-1.296799 0.689942,-2.475212 1.101742,-3.318144 1.608882,-3.293289 6.052865,-8.251041 9.854695,-12.863814 z M 45.24817,61.845381 c -2.446196,0.680597 -4.206259,2.018489 -5.684407,3.638538 a 15.105371,15.105371 0 0 0 6.655924,4.566129 C 46.051369,69.646 45.910027,69.247283 45.806792,68.862007 44.836797,65.241942 45.24817,61.845381 45.24817,61.845381 Z m 11.461833,0 c 0,0 0.411888,3.396561 -0.558106,7.016626 -0.115097,0.429549 -0.27708,0.875699 -0.471805,1.327568 a 15.105371,15.105371 0 0 0 6.878133,-4.523755 c -1.511899,-1.701651 -3.311007,-3.114518 -5.848222,-3.820439 z" /></g><path
       id="path32283"
       style="fill:#5b233d;fill-opacity:1;stroke:none;stroke-width:19.9692;stroke-linecap:square;stroke-linejoin:round;stroke-dasharray:none;stroke-opacity:1;paint-order:markers stroke fill"
       d="m 27.237606,11.671762 c -0.229031,3.621856 -1.230727,6.760544 -0.585337,10.928914 -1.238807,-0.806243 -1.935007,-2.516833 -2.669248,-4.164022 -0.298447,3.59696 1.52278,5.331006 1.693164,6.701008 -1.716504,0.06326 -2.158229,-0.784018 -2.698509,-1.560905 -0.103238,7.087748 4.996182,9.71042 9.854722,10.148461 5.116544,0.358646 7.692902,-1.818257 8.560715,-2.762553 -3.10195,3.763606 -6.727712,7.808364 -8.040414,10.49539 -1.36237,2.788695 -3.528349,10.074588 -3.528349,10.074588 2.105587,-2.925262 5.248769,-6.102463 9.184564,-7.197506 0,0 -0.335647,2.77122 0.455781,5.724866 0.712096,2.657582 3.585802,6.069783 4.159315,6.732434 v 0.139883 c 0,0 0.04403,-0.05098 0.06091,-0.0702 0.01677,0.01909 0.06039,0.0702 0.06039,0.0702 v -0.139883 c 0.573513,-0.662651 3.447734,-4.074852 4.159833,-6.732434 0.791428,-2.953646 0.455264,-5.724866 0.455264,-5.724866 3.935796,1.095043 7.263189,4.272244 9.368776,7.197506 0,0 -2.350191,-7.285893 -3.712562,-10.074588 -1.312963,-2.687561 -4.940119,-6.733604 -8.042479,-10.497454 0.865818,0.943102 3.442262,3.123541 8.562781,2.764617 4.85854,-0.438041 10.326377,-3.060713 10.223139,-10.148461 -0.836129,0.799572 -1.267073,2.206921 -3.066927,1.560905 0.170378,-1.370002 2.252128,-3.104048 1.953681,-6.701008 -0.934715,1.471755 -1.379263,3.923853 -2.929764,4.164022 0.645389,-4.16837 -0.356307,-7.307058 -0.585338,-10.928914 0,0 -0.07019,5.928268 -1.300755,8.196814 -1.230567,2.268546 -2.509856,3.339387 -5.334639,4.813822 -2.824784,1.474435 -8.131776,1.886609 -8.131776,1.886609 0,0 2.764617,-1.289183 2.764617,-4.228482 0,-2.9393 -3.154845,-9.248259 -3.154845,-9.248259 L 43.696272,8.9897299 v -0.07484 l -0.01135,0.03717 -0.01187,-0.03717 v 0.07484 L 42.39501,13.092266 c 0,0 -3.154846,6.308959 -3.154846,9.248259 0,2.939299 2.764619,4.228482 2.764619,4.228482 0,0 -5.306993,-0.412174 -8.131776,-1.886609 -2.824791,-1.474435 -4.103563,-2.545276 -5.334129,-4.813822 -1.230567,-2.268546 -1.301271,-8.196814 -1.30127,-8.196814 z"
       sodipodi:nodetypes="cccccccsccscccccsccscccccccsscscccccccscsscc" /><rect
       style="fill:#e5eb9a;fill-opacity:1;stroke:#e64888;stroke-width:2.892;stroke-linecap:square;stroke-linejoin:round;stroke-dasharray:none;stroke-opacity:1;paint-order:markers stroke fill"
       id="rect40380"
       width="84.737473"
       height="54.895145"
       x="94.020103"
       y="2.3164763"
       rx="3.5991995"
       ry="3.5991995" /><g
       id="path40434"
       transform="translate(-0.36842241,-0.39077241)"><path
         id="path40463"
         style="color:#000000;fill:#5b233d;fill-opacity:1;stroke-linecap:square;stroke-linejoin:round;-inkscape-stroke:none;paint-order:markers stroke fill"
         d="m 97.619364,2.3166545 c -0.479213,0 -0.93495,0.094483 -1.352372,0.263033 a 14.58884,14.58884 0 0 0 -1.946651,1.8939412 c -0.19221,0.4412259 -0.30024,0.9286961 -0.30024,1.4422893 v 17.193783 a 14.58884,14.58884 0 0 0 11.365199,5.445662 14.58884,14.58884 0 0 0 14.58877,-14.588774 14.58884,14.58884 0 0 0 -5.8229,-11.6499345 z m 7.765416,7.0564168 c 2.65495,0 4.59352,1.9385687 4.59352,4.5935177 0,2.654949 -1.93857,4.591968 -4.59352,4.591968 -2.65496,0 -4.59197,-1.937019 -4.59197,-4.591968 0,-2.654949 1.93701,-4.5935177 4.59197,-4.5935177 z" /></g><g
       id="path40436"
       transform="translate(0.27632188,0.09210864)"><path
         id="path40456"
         style="color:#000000;fill:#5b233d;fill-opacity:1;stroke-linecap:square;stroke-linejoin:round;-inkscape-stroke:none;paint-order:markers stroke fill"
         d="m 164.52226,25.16849 a 25.790977,25.790977 0 0 0 -25.79119,25.79119 25.790977,25.790977 0 0 0 0.78393,6.251815 h 10.46034 c -0.8046,-1.909709 -1.24902,-4.020511 -1.24902,-6.252332 0,-8.841706 6.9532,-15.794901 15.7949,-15.794901 6.33761,0 11.70447,3.573025 14.23634,8.852689 V 29.455566 a 25.790977,25.790977 0 0 0 -14.2353,-4.287076 z" /></g><g
       id="path40438"
       transform="translate(0.27631782,-0.09210459)"><path
         id="path40449"
         style="color:#000000;fill:#5b233d;fill-opacity:1;stroke-linecap:square;stroke-linejoin:round;-inkscape-stroke:none;paint-order:markers stroke fill"
         d="m 125.95407,2.3166545 a 30.219727,30.219727 0 0 0 -1.03043,7.7421635 30.219727,30.219727 0 0 0 30.21986,30.219344 30.219727,30.219727 0 0 0 23.61406,-11.362614 V 5.915918 c 0,-1.9939546 -1.6053,-3.5992635 -3.59926,-3.5992635 h -1.29346 c 0.96758,2.3776847 1.50223,4.9893097 1.50223,7.7421635 0,11.287631 -8.93697,20.224605 -20.2246,20.224605 -11.28764,0 -20.22254,-8.936974 -20.22254,-20.224605 0,-2.7528538 0.53483,-5.3644788 1.50223,-7.7421635 z" /></g><g
       id="path44070"
       transform="translate(-0.36841836,0.46053105)"><path
         id="path44077"
         style="color:#000000;fill:#5b233d;fill-opacity:1;-inkscape-stroke:none;paint-order:markers stroke fill"
         d="m 110.14625,28.812712 c -6.66343,0 -12.593341,3.411805 -16.126149,8.568469 v 16.23105 c 0,1.993955 1.605309,3.599264 3.599263,3.599264 H 127.5302 c 1.3738,-2.666074 2.15129,-5.680412 2.15129,-8.861991 0,-10.715523 -8.81971,-19.536792 -19.53524,-19.536792 z m 0,12.500012 c 3.96003,0 7.03523,3.076745 7.03523,7.03678 0,3.960036 -3.0752,7.035229 -7.03523,7.035229 -3.96003,0 -7.03678,-3.075193 -7.03678,-7.035229 0,-3.960035 3.07675,-7.03678 7.03678,-7.03678 z" /></g><circle
       style="fill:#e5eb9a;fill-opacity:1;stroke:#e64888;stroke-width:6.5;stroke-linecap:butt;stroke-linejoin:miter;stroke-dasharray:none;stroke-opacity:1;paint-order:markers stroke fill"
       id="path43342"
       cx="136.96834"
       cy="29.394407"
       r="21.000153" /><path
       id="path41704"
       style="fill:#e64888;fill-opacity:1;stroke:#5b233d;stroke-width:3.29584;stroke-linecap:butt;stroke-linejoin:miter;stroke-dasharray:none;stroke-opacity:1;paint-order:markers stroke fill"
       d="m 137.10727,18.985404 -3.15444,3.154438 v 6.672033 l -4.59802,1.232379 v -3.818341 l -4.295,4.295011 v 7.444926 l 12.04882,-1.128813 12.04837,1.128813 v -7.444926 l -4.29501,-4.295011 v 3.818341 l -4.59757,-1.232379 v -6.672033 l -3.15489,-3.154438 -8.8e-4,0.177734 z m 0.0669,1.656589 1.9302,1.940601 v 10.087418 l -1.86417,-2.299687 -2.16763,2.506366 V 22.744047 Z m -5.45593,9.941793 v 4.664499 l -5.22392,1.249564 v -4.514351 z m 10.81689,0 5.22393,1.399712 v 4.514351 l -5.22393,-1.249564 z" /><rect
       style="fill:#e5eb9a;fill-opacity:1;stroke:#e64888;stroke-width:2.892;stroke-linecap:square;stroke-linejoin:round;stroke-dasharray:none;stroke-opacity:1;paint-order:markers stroke fill"
       id="rect42562"
       width="84.737473"
       height="54.895145"
       x="2.5793478"
       y="62.755951"
       rx="3.5991995"
       ry="3.5991995" /><path
       id="path55288"
       style="fill:#e64888;fill-opacity:1;stroke:none;stroke-width:3.37667;stroke-linecap:butt;stroke-linejoin:miter;stroke-dasharray:none;stroke-opacity:1;paint-order:markers stroke fill"
       inkscape:transform-center-x="-0.048489722"
       inkscape:transform-center-y="-4.3887459"
       d="m 21.368961,62.204102 c 2.640944,12.025178 6.68445,24.036057 14.013114,22.329293 0.309071,-0.07198 0.604676,-0.155598 0.891658,-0.246047 0.08498,-6.824907 -7.555675,-14.276667 -13.840671,-22.083246 z m 14.904772,22.083246 c -0.0224,1.799178 -0.584421,3.554913 -1.847982,5.262147 1.039352,1.468728 1.617034,3.219252 1.598255,5.343111 1.704116,0.577278 3.199879,1.654494 4.433051,3.383672 1.718045,-0.53475 3.561351,-0.542643 5.575489,0.131435 1.075594,-1.442463 2.562488,-2.532195 4.588146,-3.170746 0.0223,-1.799351 0.584315,-3.555284 1.847982,-5.262673 -1.039418,-1.468687 -1.616945,-3.219308 -1.598255,-5.343111 -1.704102,-0.577273 -3.199885,-1.654519 -4.433051,-3.383672 -1.718037,0.534742 -3.56136,0.54264 -5.575489,-0.131435 -1.075698,1.442603 -2.562186,2.532746 -4.588146,3.171272 z m 4.588146,-3.171272 C 43.98016,76.934191 43.660878,69.80274 43.115207,62.204102 h -4.405714 c -3.020494,8.596957 -4.066094,16.327657 1.28649,18.587591 0.292517,0.123505 0.5804,0.228834 0.865896,0.324383 z m 5.575489,0.131435 C 52.710141,79.295096 57.321091,70.353016 62.546612,62.204102 h -2.955718 c -9.318122,5.810714 -17.152081,12.490779 -13.663496,18.271621 0.164024,0.271799 0.335198,0.526723 0.50997,0.771788 z m 4.433051,3.383672 c 6.976746,2.363409 17.428157,-3.60607 27.502064,-7.155342 -12.805712,-1.395827 -26.785893,-1.653635 -27.460529,6.231614 -0.02707,0.316352 -0.03889,0.622692 -0.04154,0.923728 z m 27.502064,-7.155342 c 3.41649,0.372399 6.707387,0.816659 9.681004,1.218669 v -3.552961 c -3.094488,0.25931 -6.367337,1.166811 -9.681004,2.334292 z M 52.468674,89.974294 C 56.723992,95.987011 68.688413,97.30096 78.924511,100.35086 69.384875,91.694532 58.225549,83.268597 53.044887,89.2514 c -0.207775,0.239944 -0.397176,0.48099 -0.576213,0.722894 z m 26.455837,10.376566 c 3.374863,3.06236 6.497547,6.09294 9.128976,8.58536 v -4.83 c -2.640506,-1.58605 -5.793869,-2.76165 -9.128976,-3.75536 z M 50.620692,95.236967 c -0.08723,7.038413 8.045533,14.742673 14.430028,22.816133 h 0.637198 C 63.05089,105.78853 58.990066,93.248917 51.51235,94.990393 c -0.309282,0.07203 -0.604494,0.15605 -0.891658,0.246574 z m -4.588146,3.170746 c -3.217881,4.315457 -2.774808,11.775897 -2.200228,19.645387 h 4.089743 c 3.218133,-8.88758 4.481209,-16.99701 -1.023092,-19.321004 -0.292518,-0.123505 -0.580927,-0.228834 -0.866423,-0.324383 z M 40.457057,98.276278 C 33.99454,100.28777 29.293432,109.71455 23.869388,118.0531 h 2.238082 c 9.826988,-5.977 18.496286,-12.97923 14.859557,-19.00556 -0.164014,-0.271784 -0.335208,-0.52621 -0.50997,-0.771262 z m -4.433051,-3.383672 c -6.976746,-2.363409 -17.428156,3.60607 -27.5020637,7.155344 12.8057117,1.39582 26.7858927,1.65363 27.4605297,-6.231616 0.02705,-0.316188 0.03887,-0.622841 0.04153,-0.923728 z M 8.5219423,102.04795 c -2.2950817,-0.25016 -4.5419897,-0.53221 -6.6779686,-0.81543 v 2.71861 c 2.1779167,-0.43049 4.4184344,-1.1071 6.6779686,-1.90318 z M 34.425751,89.549495 C 30.170498,83.536308 18.205887,82.222567 7.969388,79.172409 c 9.539758,8.656498 20.699389,17.082898 25.88015,11.09998 0.207766,-0.239935 0.397182,-0.481 0.576213,-0.722894 z M 7.969388,79.172409 C 5.8013177,77.205074 3.7549192,75.264443 1.8439737,73.439724 v 3.526148 c 1.907129,0.852187 3.978707,1.566885 6.1254143,2.206537 z" /><circle
       style="fill:#e5eb9a;fill-opacity:1;stroke:#e64888;stroke-width:3.01311;stroke-linecap:butt;stroke-linejoin:miter;stroke-dasharray:none;stroke-opacity:1;paint-order:markers stroke fill"
       id="circle51600"
       cx="43.503086"
       cy="90.122276"
       r="22.082891" /><path
       id="path47864"
       style="fill:#5b233d;fill-opacity:1;stroke:none;stroke-width:9.02915;stroke-linecap:butt;stroke-linejoin:miter;stroke-dasharray:none;stroke-opacity:1;paint-order:markers stroke fill"
       d="m 48.188848,69.739124 c -0.311267,2.2455 -5.868197,4.320193 -5.959375,7.460728 l 1.493837,6.63348 6.528255,-4.311927 c 0.406341,-3.360796 0.195695,-6.665163 -2.062717,-9.782281 z m -17.910069,5.273525 c -0.398934,4.87e-4 -0.807308,0.02184 -1.226073,0.0653 1.789027,1.392315 0.807196,7.242389 3.481391,8.891616 l 6.492083,2.022787 -0.47023,-7.80929 c -2.411244,-1.810015 -5.028706,-3.174367 -8.277171,-3.17041 z m 31.808388,5.700537 c -1.807908,1.367711 -7.204455,-1.094562 -9.489621,1.061658 l -3.634064,5.747513 7.665073,1.56665 c 2.66377,-2.089115 4.851413,-4.574746 5.458612,-8.375821 z m -31.361646,9.51123 c -2.663766,2.089115 -4.851416,4.574736 -5.458611,8.375821 1.807908,-1.367716 7.204456,1.094557 9.489621,-1.061658 l 3.634064,-5.747043 z m 18.267556,2.266122 0.47023,7.809282 c 2.707363,2.03231 5.674532,3.50239 9.503244,3.10512 -1.789028,-1.39232 -0.807197,-7.242387 -3.481391,-8.891615 z m -5.771001,3.466829 -6.528255,4.311923 c -0.406339,3.3608 -0.195704,6.66515 2.062717,9.78228 0.311265,-2.2455 5.868195,-4.32021 5.959375,-7.46073 z" /><path
       id="path47724"
       style="fill:#e64888;fill-opacity:1;stroke:none;stroke-width:9.02915;stroke-linecap:butt;stroke-linejoin:miter;stroke-dasharray:none;stroke-opacity:1;paint-order:markers stroke fill"
       d="m 42.358188,76.336903 c -1.891839,0.0013 -4.404445,0.724111 -5.751272,2.517444 -1.59624,2.125429 -0.196408,3.033562 1.029714,4.798597 -2.383659,-1.020753 -4.899429,-1.269085 -5.927432,0.70558 -1.028,1.974663 -1.323291,3.534522 -0.752555,5.598599 0.570736,2.064076 1.745748,2.709882 3.669295,2.539992 -1.633184,1.379354 -2.775769,2.395863 -1.97581,4.563719 0.799959,2.167849 2.373979,3.744166 4.092549,4.280916 1.718568,0.53675 3.594588,0.71327 4.65767,-3.105107 -0.04583,2.706687 0.435325,3.937887 2.352088,4.563247 1.916763,0.62534 3.916903,0.0719 5.974877,-1.17581 2.057974,-1.24777 2.11454,-3.808031 -0.564651,-6.915804 2.322298,0.660352 5.340145,2.685743 7.202829,0.09442 1.862683,-2.591322 1.876489,-2.828069 0.940929,-5.645575 -0.93556,-2.817506 -3.531119,-2.200326 -5.504177,-2.21116 0,0 4.940548,-1.853052 3.293017,-5.410226 -0.523287,-1.129826 -2.279676,-3.607333 -5.268828,-3.904645 -2.989152,-0.297312 -3.95209,2.869764 -3.95209,2.869764 0.226278,-2.718416 -0.643554,-3.791887 -2.540462,-4.093019 -0.296392,-0.04705 -0.625351,-0.07117 -0.975691,-0.07093 z" /><circle
       style="fill:#e5eb9a;fill-opacity:1;stroke:none;stroke-width:9.02915;stroke-linecap:butt;stroke-linejoin:miter;stroke-dasharray:none;stroke-opacity:1;paint-order:markers stroke fill"
       id="path48220"
       cx="43.685841"
       cy="89.388718"
       r="4.328105" /><rect
       style="fill:#e5eb9a;fill-opacity:1;stroke:#e64888;stroke-width:2.892;stroke-linecap:square;stroke-linejoin:round;stroke-dasharray:none;stroke-opacity:1;paint-order:markers stroke fill"
       id="rect49982"
       width="84.737473"
       height="54.895145"
       x="94.020103"
       y="62.234917"
       rx="3.5991995"
       ry="3.5991995" /><path
       id="path59166"
       style="fill:#e64888;fill-rule:evenodd;stroke-width:0.264583"
       d="M 42.671642,15.660721 C 9.2681469,60.392932 11.214332,124.80603 49.154632,166.58809 H 72.564721 C 70.343236,164.82251 68.172514,162.9703 66.085993,160.9874 25.499847,122.41694 24.861458,56.408108 63.244445,16.098319 c 0.143249,-0.15044 0.295047,-0.288217 0.439019,-0.437598 z m 45.672191,0 c -4.895875,3.386121 -9.504387,7.318597 -13.734619,11.800946 -32.196659,34.115534 -31.559852,89.786703 2.840127,122.162383 8.044866,7.57146 17.34472,13.2251 27.249019,16.96404 h 59.61708 c 10.96042,-4.18107 21.13179,-10.7665 29.61319,-19.80559 7.92841,-8.44973 13.63205,-18.35005 17.12743,-28.8687 l -15.046,-5.68735 c -2.72452,8.43162 -7.16891,16.39672 -13.44478,23.19271 -24.62898,26.67008 -67.38107,27.30651 -93.75117,2.84012 C 60.598407,112.08054 59.960464,66.74596 85.972562,38.826436 113.70082,9.0649084 161.61975,8.4268772 191.0885,35.984888 c 22.77888,21.301903 29.30323,53.835048 19.96756,81.928912 l 14.99626,5.66747 c 11.44446,-33.823694 3.71186,-73.118622 -23.60047,-98.95973 -3.51481,-3.325486 -7.2557,-6.304082 -11.16444,-8.960819 z M 226.05232,123.58127 c -4.26587,12.60763 -11.17662,24.46008 -20.75892,34.56458 -2.90089,3.05898 -5.98052,5.85437 -9.18104,8.44224 h 23.19697 c 9.86118,-11.10055 17.11083,-23.83611 21.73784,-37.33793 z m 14.99485,5.66889 8.92388,3.37291 V 35.722045 c -3.47761,-7.002664 -7.62809,-13.72895 -12.48576,-20.061324 h -21.27893 c 29.87427,30.370163 38.04573,75.056855 24.84081,113.589439 z M 196.01006,112.22645 C 203.23612,89.863869 197.96917,64.108019 179.72374,47.348237 156.4532,25.972536 118.86441,26.6101 97.33591,50.189784 c -19.830842,21.720278 -19.193463,56.728526 2.84155,76.706156 20.16961,18.2864 52.59827,17.64925 71.02448,-2.84155 4.62252,-5.14046 7.86983,-11.14929 9.82322,-17.49257 l -14.9849,-5.6632 c -1.18128,4.25511 -3.2337,8.30957 -6.20309,11.79242 -12.21058,14.32197 -34.33616,14.95727 -48.29636,2.84155 -15.86248,-13.76665 -16.497031,-38.465488 -2.84013,-53.979458 15.32098,-17.404332 42.59308,-18.039387 59.65971,-2.840127 13.71596,12.215215 17.78644,31.217118 12.66477,47.848815 z m -29.9698,-11.32783 c 3.02613,-10.900372 0.15103,-23.160951 -9.04322,-30.822267 -10.84746,-9.038886 -27.84334,-8.40595 -36.93301,2.841548 -7.50509,9.286749 -6.87433,23.728728 2.84154,31.249919 7.72084,5.97679 19.6264,5.35105 25.56825,-2.84013 1.32025,-1.820043 2.13633,-3.934299 2.54034,-6.109325 l -13.90369,-5.255442 c 1.7093,1.709298 -1.46138,3.147989 -2.84155,2.841547 -3.74018,-0.830437 -4.34202,-5.621471 -2.84154,-8.523221 2.684,-5.190549 9.65384,-5.799205 14.20489,-2.841547 4.7009,3.05504 6.34209,8.609388 5.38189,13.778663 z M 22.694143,16.598431 c -3.368728,1.575023 -5.697303,4.980731 -5.697303,8.957978 v 1.423616 c 1.732841,-3.531775 3.642264,-6.990851 5.697303,-10.381594 z M 16.99684,147.63639 v 9.05601 c 0,5.48211 4.413581,9.89569 9.895689,9.89569 h 1.57848 c -4.395259,-6.03444 -8.221187,-12.3747 -11.474169,-18.9517 z m 232.97421,1.89105 c -2.90612,5.901 -6.28997,11.60801 -10.15285,17.06065 h 0.25716 c 5.48211,0 9.89569,-4.41358 9.89569,-9.89569 z"
       transform="matrix(0.36372036,0,0,0.36372036,87.838004,56.538838)" /><circle
       style="fill:#e5eb9a;fill-opacity:1;stroke:#e64888;stroke-width:4.12096;stroke-linecap:butt;stroke-linejoin:miter;stroke-dasharray:none;stroke-opacity:1;paint-order:markers stroke fill"
       id="path50038"
       cx="136.53009"
       cy="89.569641"
       r="16.934376" /><path
       sodipodi:type="star"
       style="fill:#5b233d;fill-opacity:1;stroke:none;stroke-width:12.5;stroke-linecap:butt;stroke-linejoin:miter;stroke-dasharray:none;stroke-opacity:1;paint-order:markers stroke fill"
       id="path50036"
       inkscape:flatsided="false"
       sodipodi:sides="5"
       sodipodi:cx="136.53011"
       sodipodi:cy="86.438034"
       sodipodi:r1="25.806114"
       sodipodi:r2="13.101065"
       sodipodi:arg1="0.78539816"
       sodipodi:arg2="1.4279931"
       inkscape:rounded="0.0081797228"
       inkscape:randomized="0"
       d="m 154.77778,104.68571 c -0.10097,0.0981 -16.24409,-5.301994 -16.38315,-5.279968 -0.13638,0.0216 -13.45814,10.090148 -13.58026,10.025708 -0.12452,-0.0657 0.0228,-17.087457 -0.0411,-17.212908 -0.0627,-0.123025 -13.75509,-9.681421 -13.73154,-9.817474 0.024,-0.138735 16.25818,-5.258633 16.35774,-5.358192 0.0976,-0.09763 4.95702,-16.07359 5.09369,-16.09324 0.13936,-0.02004 10.02531,13.837443 10.15076,13.901363 0.12303,0.06269 16.8187,-0.252604 16.87962,-0.128696 0.0621,0.126352 -10.0622,13.810644 -10.08422,13.949707 -0.0216,0.136375 5.4375,15.91747 5.33848,16.0137 z"
       inkscape:transform-center-x="0.053805998"
       inkscape:transform-center-y="-0.053806306"
       transform="matrix(0.61102987,0,0,0.61102987,53.207859,37.223551)" /><rect
       style="fill:#5b233d;fill-opacity:1;stroke:#e64888;stroke-width:2.892;stroke-linecap:square;stroke-linejoin:round;stroke-dasharray:none;stroke-opacity:1;paint-order:markers stroke fill"
       id="rect59962"
       width="84.737473"
       height="54.895145"
       x="2.5793478"
       y="248.3989"
       rx="3.5991995"
       ry="3.5991995" /><rect
       style="fill:#e5eb9a;fill-opacity:1;stroke:#e64888;stroke-width:2.892;stroke-linecap:square;stroke-linejoin:round;stroke-dasharray:none;stroke-opacity:1;paint-order:markers stroke fill"
       id="rect59964"
       width="84.737473"
       height="54.895145"
       x="94.316864"
       y="122.07217"
       rx="3.5991995"
       ry="3.5991995" /><path
       id="rect83464"
       style="fill:#e64888;fill-opacity:1;stroke:none;stroke-width:7.24825;stroke-linecap:butt;stroke-linejoin:miter;stroke-dasharray:none;stroke-opacity:1;paint-order:markers stroke fill"
       d="m 94.316724,127.47956 v 10.31616 h 84.737466 v -10.31616 z m 0,17.68471 v 10.31565 h 84.737466 v -10.31565 z m 0,17.31573 v 10.31565 H 179.05419 V 162.48 Z" /><rect
       style="fill:#e5eb9a;fill-opacity:1;stroke:#e64888;stroke-width:2.892;stroke-linecap:square;stroke-linejoin:round;stroke-dasharray:none;stroke-opacity:1;paint-order:markers stroke fill"
       id="rect59966"
       width="84.737473"
       height="54.895145"
       x="94.316864"
       y="183.96738"
       rx="3.5991995"
       ry="3.5991995" /><g
       id="circle91417"
       transform="matrix(1.018983,0,0,1.018983,-2.5974385,-4.0132858)"><path
         id="path91421"
         style="color:#000000;fill:#e64888;-inkscape-stroke:none;paint-order:markers stroke fill"
         d="m 104.80032,183.96758 c -6.350622,7.42938 -10.194725,17.05945 -10.194725,27.55956 0,10.39467 3.767705,19.93685 10.004555,27.33528 h 16.78916 c -9.45354,-5.42014 -15.78974,-15.605 -15.78974,-27.33528 0,-11.89573 6.5174,-22.19992 16.19281,-27.55956 z m 47.60071,0 c 9.67542,5.35964 16.19281,15.66383 16.19281,27.55956 0,11.73028 -6.33619,21.91514 -15.78973,27.33528 h 16.78864 c 4.85471,-5.75888 8.21177,-12.81653 9.46144,-20.56463 v -13.54078 c -1.26596,-7.84907 -4.6942,-14.98993 -9.65161,-20.78943 z" /><path
         id="path91423"
         style="color:#000000;fill:#e5eb9a;stroke-width:11.004;-inkscape-stroke:none;paint-order:markers stroke fill"
         d="m 112.45205,183.96758 a 36.994171,36.994171 0 0 0 -12.34395,27.55956 36.994171,36.994171 0 0 0 12.0835,27.33528 h 49.82125 a 36.994171,36.994171 0 0 0 12.0835,-27.33528 36.994171,36.994171 0 0 0 -12.34395,-27.55956 z" /></g><g
       id="circle91415"
       transform="matrix(1.018983,0,0,1.018983,-2.5974385,-4.0132858)"><path
         id="path91427"
         style="color:#000000;fill:#e64888;-inkscape-stroke:none;paint-order:markers stroke fill"
         d="m 120.26966,183.96758 c -9.27231,5.69685 -15.48846,15.93536 -15.48846,27.55956 0,11.47327 6.05628,21.59649 15.12931,27.33528 h 34.38188 c 9.07318,-5.73876 15.12931,-15.8619 15.12931,-27.33528 0,-11.62422 -6.21612,-21.86271 -15.48846,-27.55956 z m 16.83205,7.14582 c 11.34515,0 20.41581,9.06859 20.41581,20.41374 0,11.34516 -9.07066,20.41426 -20.41581,20.41426 -11.34515,0 -20.41426,-9.0691 -20.41426,-20.41426 0,-11.34515 9.06911,-20.41374 20.41426,-20.41374 z" /><path
         style="color:#000000;fill:#e5eb9a;stroke-width:11.906;-inkscape-stroke:none;paint-order:markers stroke fill"
         d="m 163.46976,211.52721 a 26.367582,26.367582 0 0 1 -26.36759,26.36758 26.367582,26.367582 0 0 1 -26.36758,-26.36758 26.367582,26.367582 0 0 1 26.36758,-26.36759 26.367582,26.367582 0 0 1 26.36759,26.36759 z"
         id="path91429" /></g><circle
       style="fill:#e5eb9a;fill-opacity:1;stroke:#e64888;stroke-width:8.54879;stroke-linecap:butt;stroke-linejoin:miter;stroke-dasharray:none;stroke-opacity:1;paint-order:markers stroke fill"
       id="path91154"
       cx="137.10217"
       cy="211.52721"
       r="15.53899" /><rect
       style="fill:#5b233d;fill-opacity:1;stroke:#5b233d;stroke-width:4.40388;stroke-linecap:butt;stroke-linejoin:miter;stroke-dasharray:none;stroke-opacity:1;paint-order:markers stroke fill"
       id="rect89338"
       width="80.303787"
       height="4.5878429"
       x="5.1602397"
       y="188.20865"
       rx="0"
       ry="0" /><rect
       style="fill:#e5eb9a;fill-opacity:1;stroke:#e64888;stroke-width:2.892;stroke-linecap:square;stroke-linejoin:round;stroke-dasharray:none;stroke-opacity:1;paint-order:markers stroke fill"
       id="rect59968"
       width="84.737473"
       height="54.895145"
       x="2.9477494"
       y="183.96738"
       rx="3.5991995"
       ry="3.5991995" /><rect
       style="fill:#5b233d;fill-opacity:1;stroke:#5b233d;stroke-width:3.74105;stroke-linecap:butt;stroke-linejoin:miter;stroke-dasharray:none;stroke-opacity:1;paint-order:markers stroke fill"
       id="rect88606"
       width="50.486362"
       height="5.2506785"
       x="35.309074"
       y="203.68109"
       rx="0"
       ry="0" /><rect
       style="fill:#5b233d;fill-opacity:1;stroke:#5b233d;stroke-width:4.40388;stroke-linecap:butt;stroke-linejoin:miter;stroke-dasharray:none;stroke-opacity:1;paint-order:markers stroke fill"
       id="rect88608"
       width="80.303787"
       height="4.5878429"
       x="5.1602397"
       y="226.89314"
       rx="0"
       ry="0" /><rect
       style="fill:#5b233d;fill-opacity:1;stroke:#5b233d;stroke-width:4.40388;stroke-linecap:butt;stroke-linejoin:miter;stroke-dasharray:none;stroke-opacity:1;paint-order:markers stroke fill"
       id="rect89336"
       width="80.303787"
       height="4.5878429"
       x="5.1602397"
       y="215.3799"
       rx="0"
       ry="0" /><rect
       style="fill:#5b233d;fill-opacity:1;stroke:#5b233d;stroke-width:4.40388;stroke-linecap:butt;stroke-linejoin:miter;stroke-dasharray:none;stroke-opacity:1;paint-order:markers stroke fill"
       id="rect89340"
       width="80.303787"
       height="4.5878429"
       x="5.1602397"
       y="192.35341"
       rx="0"
       ry="0" /><circle
       style="fill:#e5eb9a;fill-opacity:1;stroke:#e64888;stroke-width:8.52016;stroke-linecap:butt;stroke-linejoin:miter;stroke-dasharray:none;stroke-opacity:1;paint-order:markers stroke fill"
       id="path88061"
       cx="19.896095"
       cy="200.89816"
       r="13.973454" /><g
       id="path62814"
       transform="translate(0,126.32672)"><path
         id="path62821"
         style="color:#000000;fill:#e64888;stroke-width:1.01333;-inkscape-stroke:none;paint-order:markers stroke fill"
         d="M 20.925338,121.3353 A 37.119514,38.116004 0 0 0 8.7824097,149.51584 37.119514,38.116004 0 0 0 20.934123,177.70433 h 5.36298 c -8.548489,-6.27097 -14.107666,-16.54615 -14.107666,-28.18903 0,-11.63741 5.554089,-21.90822 14.09578,-28.18 z m 44.59366,0 c 8.541126,6.27178 14.09423,16.54259 14.09423,28.18 0,11.64288 -5.558193,21.91806 -14.106115,28.18903 h 5.362463 A 37.119514,38.116004 0 0 0 83.021289,149.51584 37.119514,38.116004 0 0 0 70.89128,121.3353 Z" /></g><path
       id="path60708"
       style="fill:#e64888;fill-opacity:1;stroke:none;stroke-width:3.31901;stroke-linecap:butt;stroke-linejoin:miter;stroke-dasharray:none;stroke-opacity:1;paint-order:markers stroke fill"
       d="m 38.112007,276.59003 c -5.663149,-0.0352 -8.40833,4.23404 -3.695381,8.86665 4.379332,4.30466 8.441626,0.68778 11.530045,-1.61696 3.088419,2.30474 7.150713,5.92162 11.530046,1.61696 4.712948,-4.63261 1.967768,-8.90185 -3.695382,-8.86665 -2.216016,0.0138 -4.976486,0.68644 -7.813993,2.25465 l -0.02067,2.11666 0.02538,-2.11666 c -2.837507,-1.56821 -5.644031,-2.24087 -7.860047,-2.25465 z m -0.501778,2.87425 c 2.520628,0.0127 6.187284,1.44827 5.506641,2.84117 -1.244606,2.547 -3.897361,3.23925 -6.286438,0.8909 -2.610371,-2.77657 -1.308722,-3.74263 0.779797,-3.73207 z m 16.672884,0 c 2.088519,-0.0106 3.390169,0.9555 0.779798,3.73207 -2.389077,2.34835 -5.041832,1.6561 -6.286438,-0.8909 -0.680644,-1.3929 2.986013,-2.82847 5.50664,-2.84117 z"
       sodipodi:nodetypes="sscsscccscsccccsc" /><path
       id="path60905"
       style="fill:#e64888;fill-opacity:1;stroke:none;stroke-width:3.31901;stroke-linecap:butt;stroke-linejoin:miter;stroke-dasharray:none;stroke-opacity:1;paint-order:markers stroke fill"
       d="m 31.533081,253.51738 c -4.039305,-0.0745 -15.319602,9.84411 -17.332792,18.70326 2.914173,-0.52544 5.985238,-1.18685 16.542659,-8.33645 l 1.953886,3.64733 c -1.129953,6.43852 -0.480152,6.10982 0.911572,9.63868 2.55738,-2.57928 6.704537,-4.09992 12.356869,-4.10259 5.652066,0.003 9.79905,1.52338 12.356352,4.10259 1.391724,-3.52886 2.041525,-3.20016 0.911572,-9.63868 l 1.953886,-3.64733 c 10.557421,7.1496 13.628486,7.81101 16.542659,8.33645 C 75.684598,263.22086 64.076073,253.12791 60.2104,253.52875 56.344727,253.92959 48.877759,264.4702 48.877759,264.4702 l -2.886129,-0.31987 v -0.006 l -0.02635,0.003 -0.02687,-0.003 v 0.006 l -2.886129,0.31987 c 0,0 -7.466968,-10.54061 -11.332641,-10.94145 -0.0604,-0.006 -0.122436,-0.0102 -0.186552,-0.0114 z" /><path
       id="text62627"
       style="font-size:74.6667px;line-height:0;white-space:pre;shape-inside:url(#rect62629);fill:#e64888;fill-opacity:1;stroke:#e64888;stroke-width:1.619;stroke-linecap:butt;stroke-linejoin:miter;stroke-dasharray:none;stroke-opacity:1;paint-order:markers stroke fill"
       d="m 63.878394,284.27297 v 12.86537 h 1.521354 v -12.86537 z m -41.713216,0.29766 c -1.868617,0 -3.340367,0.57326 -4.415235,1.71979 -1.074867,1.14101 -1.612304,2.70372 -1.612304,4.68809 0,1.97886 0.537437,3.54156 1.612304,4.68808 1.074868,1.14102 2.546618,1.71153 4.415235,1.71153 0.727602,0 1.416624,-0.0992 2.067057,-0.29766 0.655945,-0.19844 1.276064,-0.49609 1.860351,-0.89297 v -1.74459 c -0.562238,0.52365 -1.163065,0.91501 -1.802474,1.17408 -0.633896,0.25908 -1.309137,0.38861 -2.025716,0.38861 -1.411108,0 -2.491494,-0.42995 -3.241146,-1.28984 -0.749651,-0.86541 -1.124479,-2.11116 -1.124479,-3.73724 0,-1.6316 0.374828,-2.87735 1.124479,-3.73724 0.749652,-0.86541 1.830038,-1.29811 3.241146,-1.29811 0.716579,0 1.39182,0.12953 2.025716,0.3886 0.639409,0.25907 1.240236,0.65044 1.802474,1.17409 v -1.76113 c -0.573262,-0.39136 -1.18787,-0.68351 -1.843815,-0.87643 -0.650432,-0.19844 -1.344967,-0.29766 -2.083593,-0.29766 z m 6.416145,0.67799 v 2.6293 h -1.116211 v 1.18236 h 1.116211 v 5.02708 c 0,1.15755 0.223244,1.95682 0.669727,2.39779 0.446484,0.43546 1.256773,0.65319 2.43086,0.65319 h 1.562695 v -1.27331 H 31.68191 c -0.633897,0 -1.055578,-0.10749 -1.26504,-0.32246 -0.203949,-0.21497 -0.305924,-0.70004 -0.305924,-1.45521 v -5.02708 h 3.133659 v -1.18236 h -3.133659 v -2.6293 z m 39.976888,0 v 2.6293 H 67.442 v 1.18236 h 1.116211 v 5.02708 c 0,1.15755 0.223243,1.95682 0.669727,2.39779 0.446484,0.43546 1.256771,0.65319 2.430859,0.65319 h 1.562696 v -1.27331 h -1.562696 c -0.633896,0 -1.055576,-0.10749 -1.265039,-0.32246 -0.203949,-0.21497 -0.305924,-0.70004 -0.305924,-1.45521 v -5.02708 h 3.133659 v -1.18236 h -3.133659 v -2.6293 z m -23.540008,1.26763 c -0.492495,0.42481 -1.000072,0.83698 -1.521354,1.21388 v 9.40821 h 1.521354 z m 13.414013,0.8878 c -0.404215,0.41235 -0.805998,0.7564 -1.204579,1.03715 l 1.532723,4.14134 h -4.539258 l 1.205095,-3.2675 c -0.564316,0.15502 -1.120947,0.20089 -1.668632,0.15865 l -2.926437,7.66465 h 1.761133 l 1.124479,-3.16673 h 5.564518 l 1.124479,3.16673 h 1.736329 z m -16.534236,1.32136 c -0.240554,0.12263 -0.483502,0.23307 -0.728639,0.3297 0.05673,0.01 0.11598,0.0166 0.1695,0.03 0.203949,0.0441 0.391364,0.11576 0.56224,0.21498 z m -6.710341,0.0491 v 8.36383 h 1.529622 v -4.87826 c 0,-1.0473 0.228754,-1.84933 0.686263,-2.40605 0.114467,-0.139 0.241096,-0.26072 0.379823,-0.36535 -0.846333,0.006 -1.713048,-0.20696 -2.595708,-0.71417 z"
       sodipodi:nodetypes="cccccscscsccccscscsccccscccccscsccscscccccccccccscsccscsccccccccccccccccccccccccccccccccsccc" /><rect
       style="fill:#e5eb9a;fill-opacity:1;stroke:#e64888;stroke-width:2.892;stroke-linecap:square;stroke-linejoin:round;stroke-dasharray:none;stroke-opacity:1;paint-order:markers stroke fill"
       id="rect65004"
       width="84.737473"
       height="54.895145"
       x="2.9477494"
       y="121.70375"
       rx="3.5991995"
       ry="3.5991995" /><circle
       style="fill:#5c243e;fill-opacity:1;stroke:none;stroke-width:7.45652;stroke-linecap:butt;stroke-linejoin:miter;stroke-dasharray:none;stroke-opacity:1;paint-order:markers stroke fill"
       id="path82111"
       cx="43.569065"
       cy="147.70648"
       r="25.530466" /><circle
       style="fill:#e5eb9a;fill-opacity:1;stroke:#e64888;stroke-width:5.17683;stroke-linecap:butt;stroke-linejoin:miter;stroke-dasharray:none;stroke-opacity:1;paint-order:markers stroke fill"
       id="path75556"
       cx="44.02277"
       cy="147.99478"
       r="18.527754" /><circle
       style="fill:#5b233d;fill-opacity:1;stroke:none;stroke-width:7;stroke-linecap:butt;stroke-linejoin:miter;stroke-dasharray:none;stroke-opacity:1;paint-order:markers stroke fill"
       id="path80041"
       cx="39.96743"
       cy="143.35684"
       r="9.5087938" /><rect
       style="fill:#e64888;fill-opacity:1;stroke:none;stroke-width:7;stroke-linecap:butt;stroke-linejoin:miter;stroke-dasharray:none;stroke-opacity:1;paint-order:markers stroke fill"
       id="rect79970"
       width="19.278095"
       height="23.183115"
       x="36.158356"
       y="139.74126"
       rx="9.4529181"
       ry="9.6390476" /><path
       style="fill:#5b233d;fill-opacity:1;stroke:none;stroke-width:7;stroke-linecap:butt;stroke-linejoin:miter;stroke-dasharray:none;stroke-opacity:1;paint-order:markers stroke fill"
       d="m 47.204378,139.25286 -2.553345,-1.71977 -4.927668,0.92106 -5.859342,7.73554 -0.436822,8.20206 3.962241,4.72845 -1.132018,-4.04014 -0.218296,-4.60609 3.194584,5.69117 -0.08533,-3.38852 1.956576,-3.54608 4.421085,-0.55264 4.743462,-2.39475 0.107909,2.23944 3.161283,0.69351 2.096649,7.15018 2.263145,-8.50017 -2.703243,-6.2422 -4.724381,-3.46188 z"
       id="path80043"
       sodipodi:nodetypes="cccccccccccccccccccc" /><ellipse
       style="fill:#5b233d;fill-opacity:1;stroke:none;stroke-width:7;stroke-linecap:butt;stroke-linejoin:miter;stroke-dasharray:none;stroke-opacity:1;paint-order:markers stroke fill"
       id="path80840"
       cx="43.159885"
       cy="151.62579"
       rx="2.3026512"
       ry="3.7257679" /><ellipse
       style="fill:#5b233d;fill-opacity:1;stroke:none;stroke-width:7;stroke-linecap:butt;stroke-linejoin:miter;stroke-dasharray:none;stroke-opacity:1;paint-order:markers stroke fill"
       id="ellipse80842"
       cx="51.725739"
       cy="151.62579"
       rx="2.3026512"
       ry="3.7257679" /><path
       style="fill:#e64888;fill-opacity:1;stroke:none;stroke-width:7;stroke-linecap:butt;stroke-linejoin:miter;stroke-dasharray:none;stroke-opacity:1;paint-order:markers stroke fill"
       d="m 40.386674,159.8561 0.260517,5.08004 -2.995922,2.08411 8.466738,1.17233 7.164162,-2.60516 -8.596997,-1.30257 0.260516,-4.03799 z"
       id="path80844" /><path
       style="fill:#e64888;fill-opacity:1;stroke:none;stroke-width:7;stroke-linecap:butt;stroke-linejoin:miter;stroke-dasharray:none;stroke-opacity:1;paint-order:markers stroke fill"
       d="m 28.854087,161.352 c 0,0 -8.053047,-2.62279 -11.723171,-1.30258 -6.180761,5.46727 -7.2358143,8.24648 -15.3703851,9.11803 l 1.8236123,7.55493 c 8.9480758,3.44454 11.5982078,-4.87591 17.9755308,-6.51287 4.02453,-0.86277 7.187593,4.43 13.025751,2.86567 5.838158,-1.56433 5.731325,-5.21031 5.731325,-5.21031 l -9.639048,-4.68927 z"
       id="path81252"
       sodipodi:nodetypes="ccccczccc" /><path
       style="fill:#e64888;fill-opacity:1;stroke:none;stroke-width:7;stroke-linecap:butt;stroke-linejoin:miter;stroke-dasharray:none;stroke-opacity:1;paint-order:markers stroke fill"
       d="m 59.276295,161.352 c 0,0 8.053047,-2.62279 11.723171,-1.30258 6.180761,5.46727 9.216091,8.06227 17.350662,8.93382 0.03473,4.01717 -0.328163,7.59558 -3.803889,7.73914 -8.948076,3.44454 -11.598208,-4.87591 -17.975531,-6.51287 -4.02453,-0.86277 -7.187593,4.43 -13.025751,2.86567 -5.838158,-1.56433 -5.731325,-5.21031 -5.731325,-5.21031 l 9.639048,-4.68927 z"
       id="path81323"
       sodipodi:nodetypes="ccccczccc" /><path
       style="fill:#e64888;fill-opacity:1;stroke:none;stroke-width:7;stroke-linecap:butt;stroke-linejoin:miter;stroke-dasharray:none;stroke-opacity:1;paint-order:markers stroke fill"
       d="m 70.999466,130.02288 c 6.180761,5.46727 9.216091,8.06227 17.350662,8.93382 0.03473,4.01717 1.186166,4.29015 -0.217179,10.42059 -8.948076,3.44454 -15.184918,-7.55736 -21.562241,-9.19432 -4.02453,-0.86277 -0.6195,9.71181 -2.341461,6.08938 -1.72196,-3.62243 -3.433844,-11.51699 -4.257629,-11.10509 l -2.518938,-2.0182 c 4.518136,-4.53711 8.278518,-4.94073 13.546786,-3.12618 z"
       id="path81327"
       sodipodi:nodetypes="cccczccc" /><path
       style="fill:#e64888;fill-opacity:1;stroke:none;stroke-width:7;stroke-linecap:butt;stroke-linejoin:miter;stroke-dasharray:none;stroke-opacity:1;paint-order:markers stroke fill"
       d="m 17.706944,130.02288 c -6.180761,5.46727 -7.281866,8.06227 -15.416437,8.93382 -0.03473,4.01717 -1.186166,4.29015 0.217179,10.42059 8.948076,3.44454 13.250693,-7.55736 19.628016,-9.19432 4.02453,-0.86277 0.6195,9.71181 2.341461,6.08938 1.72196,-3.62243 3.433844,-11.51699 4.257629,-11.10509 l 2.518938,-2.0182 c -4.518136,-4.53711 -8.278518,-4.94073 -13.546786,-3.12618 z"
       id="path81329"
       sodipodi:nodetypes="cccczccc" /><path
       style="fill:#e64888;fill-opacity:1;stroke:#5b233d;stroke-width:6.40458;stroke-linecap:butt;stroke-linejoin:miter;stroke-dasharray:none;stroke-opacity:1;paint-order:markers stroke fill"
       d="m 131.2986,171.51428 c -1.15975,-6.46448 0.75254,-14.20898 3.37086,-22.24767 -11.33777,9.4837 -9.25967,4.90876 -15.17384,5.6402 2.81407,-10.23895 7.01897,-7.50921 13.15133,-9.55882 -7.78958,-3.61223 -5.9757,-10.63902 -8.93279,-15.96945 5.46737,1.93626 13.30725,-1.01206 13.82053,11.12384 -0.0836,-9.63436 11.6267,-7.47484 19.38243,-9.26987 -4.93526,5.15333 -8.32804,14.24859 -15.84304,12.80927 7.08124,1.23432 7.07912,7.31514 8.42716,12.47218 -5.20402,-1.24593 -9.60979,-3.11271 -11.96655,-6.57318 -0.0949,8.0009 0.96722,15.30765 4.04503,21.40496 z"
       id="path83203"
       sodipodi:nodetypes="cccccccccccc" /><path
       id="path86242"
       style="fill:#5b233d;fill-opacity:1;stroke:none;stroke-width:5.24136;stroke-linecap:butt;stroke-linejoin:miter;stroke-dasharray:none;stroke-opacity:1;paint-order:markers stroke fill"
       d="m 6.4953519,202.52107 c 0.7199116,7.99698 11.8573791,7.05665 13.3133121,11.58532 0,0 2.367335,-5.97035 0,-8.86937 -2.367334,-2.89904 -13.3133121,-2.71595 -13.3133121,-2.71595 z m 13.3151391,2.71595 c -2.367289,2.89899 0,8.86937 0,8.86937 1.455934,-4.52867 12.593037,-3.58834 13.312948,-11.58532 0,0 -10.945659,-0.18305 -13.312948,2.71595 z"
       sodipodi:nodetypes="cczczccz" /><path
       id="path88004"
       style="fill:#5c243e;fill-opacity:1;stroke:none;stroke-width:10.117;stroke-linecap:butt;stroke-linejoin:miter;stroke-dasharray:none;stroke-opacity:1;paint-order:markers stroke fill"
       d="m 15.808056,189.21513 c -0.07209,-2.6e-4 -0.14421,0.002 -0.216994,0.009 -2.329185,0.18481 -4.26058,1.73403 -4.360761,4.59318 -0.09836,2.80702 8.308906,9.8523 8.616201,10.10883 v 0.0236 c 0,0 0.013,-0.011 0.01459,-0.0123 0.0014,0.001 0.01459,0.0123 0.01459,0.0123 v -0.0244 c 0.313514,-0.26177 8.714523,-7.30201 8.616201,-10.10793 -0.100177,-2.85916 -2.031576,-4.40838 -4.360761,-4.59318 -2.152433,-0.17077 -3.998906,2.3511 -4.269968,2.7392 -0.261398,-0.37431 -1.993007,-2.73994 -4.052973,-2.74737 z" /><path
       id="path90927"
       style="fill:#5b233d;fill-opacity:1;stroke:none;stroke-width:6.69615;stroke-linecap:butt;stroke-linejoin:miter;stroke-dasharray:none;stroke-opacity:1;paint-order:markers stroke fill"
       d="m 134.29562,199.84578 c -3.77367,0.003 -7.35076,1.14299 -8.78399,4.02765 -0.23123,0.46542 -0.39424,0.94609 -0.49674,1.43652 -1.12159,2.27722 -2.06384,4.62787 -1.88947,7.34337 6.55967,10.05948 13.0056,11.25631 20.63088,10.80482 3.05418,-0.74102 5.03051,-1.9442 5.6708,-3.71975 0.92807,-1.49829 1.38407,-2.76035 1.82001,-4.01259 2.95221,-4.52441 -3.76321,-11.73004 -8.7053,-14.10994 -2.2572,-1.08698 -5.31111,-1.77243 -8.24619,-1.77008 z" /><path
       id="path90925"
       style="fill:#e64888;fill-opacity:1;stroke:none;stroke-width:5.88272;stroke-linecap:butt;stroke-linejoin:miter;stroke-dasharray:none;stroke-opacity:1;paint-order:markers stroke fill"
       d="m 134.7975,201.06541 c -3.31527,0.003 -6.45783,1.00418 -7.71696,3.53843 -1.9933,4.01192 1.68155,9.29369 6.64,11.68438 5.53848,2.67036 12.08473,4.14384 15.86701,-1.12109 2.8474,-3.96357 -3.14851,-10.42941 -7.54555,-12.54684 -1.98302,-0.95493 -4.66596,-1.55696 -7.2445,-1.55488 z m -8.8726,1.97704 c -0.65173,0.007 -1.7922,0.22381 -2.41871,1.54668 -0.91128,1.92416 0.66814,3.16895 0.66814,3.16895 0.47177,-1.73163 1.31485,-3.23144 2.24218,-4.67834 0,0 -0.19536,-0.0403 -0.49161,-0.0373 z m -1.19157,7.58353 c 0,0 -1.72726,1.54677 -0.6784,3.39953 1.04887,1.85276 3.34275,1.08381 3.34275,1.08381 -1.32709,-1.346 -2.11436,-2.87232 -2.66435,-4.48334 z m 26.07041,5.289 c -0.73122,1.74304 -1.83677,3.05678 -3.11182,4.18468 0,0 2.32475,0.98965 3.6308,-0.69175 1.30604,-1.68137 -0.51898,-3.49293 -0.51898,-3.49293 z m -20.46221,1.90623 c 0,0 -1.05887,2.72764 0.82037,3.72831 1.87923,1.00065 3.83334,-1.37494 3.83334,-1.37494 -1.8421,-0.42374 -3.32517,-1.289 -4.65371,-2.35337 z m 14.13525,3.23122 c -1.81112,0.54102 -3.52778,0.52041 -5.20861,0.25077 0,0 0.42592,2.8951 2.55419,2.83745 2.12825,-0.0577 2.65442,-3.08822 2.65442,-3.08822 z" /></g></svg>
