<?xml version="1.0" encoding="UTF-8" standalone="no"?>
<!-- Created with Inkscape (http://www.inkscape.org/) -->

<svg
   width="637"
   height="331"
   viewBox="0 0 168.53958 87.577083"
   version="1.1"
   id="svg1"
   xml:space="preserve"
   inkscape:version="1.3 (0e150ed6c4, 2023-07-21)"
   sodipodi:docname="numbers_tileset.svg"
   xmlns:inkscape="http://www.inkscape.org/namespaces/inkscape"
   xmlns:sodipodi="http://sodipodi.sourceforge.net/DTD/sodipodi-0.dtd"
   xmlns="http://www.w3.org/2000/svg"
   xmlns:svg="http://www.w3.org/2000/svg"><sodipodi:namedview
     id="namedview1"
     pagecolor="#ff00ff"
     bordercolor="#000000"
     borderopacity="0.25"
     inkscape:showpageshadow="2"
     inkscape:pageopacity="0.0"
     inkscape:pagecheckerboard="0"
     inkscape:deskcolor="#d1d1d1"
     inkscape:document-units="px"
     inkscape:zoom="2.8970539"
     inkscape:cx="588.01116"
     inkscape:cy="230.06131"
     inkscape:window-width="1920"
     inkscape:window-height="1009"
     inkscape:window-x="-8"
     inkscape:window-y="-8"
     inkscape:window-maximized="1"
     inkscape:current-layer="layer1"
     showguides="true"
     showgrid="true"><sodipodi:guide
       position="6.5547624,339.75125"
       orientation="1,0"
       id="guide1"
       inkscape:locked="false" /><inkscape:grid
       id="grid1"
       units="px"
       originx="0"
       originy="0"
       spacingx="0.26458333"
       spacingy="0.26458333"
       empcolor="#0099e5"
       empopacity="0.30196078"
       color="#0099e5"
       opacity="0.14901961"
       empspacing="5"
       dotted="false"
       gridanglex="30"
       gridanglez="30"
       visible="true" /></sodipodi:namedview><defs
     id="defs1" /><g
     inkscape:label="Camada 1"
     inkscape:groupmode="layer"
     id="layer1"><g
       id="g1"
       transform="matrix(0.26458333,0,0,0.26458333,6.6145832,6.6145832)"><rect
         x="2"
         y="2"
         width="124"
         height="124"
         rx="14"
         fill="#363d52"
         stroke="#212532"
         stroke-width="4"
         id="rect1" /><g
         transform="matrix(0.101,0,0,0.101,12.322,12.322)"
         id="g7"><g
           fill="#ffffff"
           id="g4"><path
             d="m 105,673 v 33 q 407,354 814,0 v -33 z"
             id="path1" /><path
             fill="#478cbf"
             d="m 105,673 152,14 q 12,1 15,14 l 4,67 132,10 8,-61 q 2,-11 15,-15 h 162 q 13,4 15,15 l 8,61 132,-10 4,-67 q 3,-13 15,-14 L 919,673 V 427 q 30,-39 56,-81 -35,-59 -83,-108 -43,20 -82,47 -40,-37 -88,-64 7,-51 8,-102 -59,-28 -123,-42 -26,43 -46,89 -49,-7 -98,0 -20,-46 -46,-89 -64,14 -123,42 1,51 8,102 -48,27 -88,64 -39,-27 -82,-47 -48,49 -83,108 26,42 56,81 z m 0,33 v 39 c 0,276 813,276 813,0 v -39 l -134,12 -5,69 q -2,10 -14,13 l -162,11 q -12,0 -16,-11 L 577,735 H 447 l -10,65 q -4,11 -16,11 L 259,800 q -12,-3 -14,-13 l -5,-69 z"
             id="path2" /><path
             d="m 483,600 c 3,34 55,34 58,0 v -86 c -3,-34 -55,-34 -58,0 z"
             id="path3" /><circle
             cx="725"
             cy="526"
             r="90"
             id="circle3" /><circle
             cx="299"
             cy="526"
             r="90"
             id="circle4" /></g><g
           fill="#414042"
           id="g6"><circle
             cx="307"
             cy="532"
             r="60"
             id="circle5" /><circle
             cx="717"
             cy="532"
             r="60"
             id="circle6" /></g></g></g><path
       style="font-size:7.05556px;font-family:'Lucida Console';-inkscape-font-specification:'Lucida Console';text-align:end;text-anchor:end;fill:#ffffff;stroke-width:0.616466;stroke-linejoin:round;stroke-dasharray:14.7952, 0.616466;stroke-dashoffset:0.616466;stroke-opacity:0.901015"
       d="m 35.631625,36.40834 v -0.509874 h 1.360814 v -3.965307 l -1.360814,0.306613 V 31.81947 l 2.039498,-0.637343 v 4.716339 h 1.360814 v 0.509874 z"
       id="text54"
       transform="scale(0.94900917,1.0537306)"
       aria-label="1" /><text
       xml:space="preserve"
       style="font-weight:bold;font-size:8.26636px;font-family:Verdana;-inkscape-font-specification:'Verdana Bold';text-align:center;text-anchor:middle;fill:#ffffff;stroke-width:0.616466;stroke-linejoin:round;stroke-dasharray:14.7952, 0.616466;stroke-dashoffset:0.616466;stroke-opacity:0.901015"
       x="80.094376"
       y="36.40834"
       id="text55"
       transform="scale(0.94900917,1.0537306)"><tspan
         sodipodi:role="line"
         id="tspan55"
         style="stroke-width:0.616466"
         x="80.094376"
         y="36.40834" /></text><g
       id="g64"
       transform="matrix(0.26458333,0,0,0.26458333,47.095833,6.6145832)"><rect
         x="2"
         y="2"
         width="124"
         height="124"
         rx="14"
         fill="#363d52"
         stroke="#212532"
         stroke-width="4"
         id="rect57" /><g
         transform="matrix(0.101,0,0,0.101,12.322,12.322)"
         id="g63"><g
           fill="#ffffff"
           id="g60"><path
             d="m 105,673 v 33 q 407,354 814,0 v -33 z"
             id="path57" /><path
             fill="#478cbf"
             d="m 105,673 152,14 q 12,1 15,14 l 4,67 132,10 8,-61 q 2,-11 15,-15 h 162 q 13,4 15,15 l 8,61 132,-10 4,-67 q 3,-13 15,-14 L 919,673 V 427 q 30,-39 56,-81 -35,-59 -83,-108 -43,20 -82,47 -40,-37 -88,-64 7,-51 8,-102 -59,-28 -123,-42 -26,43 -46,89 -49,-7 -98,0 -20,-46 -46,-89 -64,14 -123,42 1,51 8,102 -48,27 -88,64 -39,-27 -82,-47 -48,49 -83,108 26,42 56,81 z m 0,33 v 39 c 0,276 813,276 813,0 v -39 l -134,12 -5,69 q -2,10 -14,13 l -162,11 q -12,0 -16,-11 L 577,735 H 447 l -10,65 q -4,11 -16,11 L 259,800 q -12,-3 -14,-13 l -5,-69 z"
             id="path58" /><path
             d="m 483,600 c 3,34 55,34 58,0 v -86 c -3,-34 -55,-34 -58,0 z"
             id="path59" /><circle
             cx="725"
             cy="526"
             r="90"
             id="circle59" /><circle
             cx="299"
             cy="526"
             r="90"
             id="circle60" /></g><g
           fill="#414042"
           id="g62"><circle
             cx="307"
             cy="532"
             r="60"
             id="circle61" /><circle
             cx="717"
             cy="532"
             r="60"
             id="circle62" /></g></g></g><path
       style="font-size:7.05556px;font-family:'Lucida Console';-inkscape-font-specification:'Lucida Console';text-align:end;text-anchor:end;fill:#ffffff;stroke-width:0.616466;stroke-linejoin:round;stroke-dasharray:14.7952, 0.616466;stroke-dashoffset:0.616466;stroke-opacity:0.901015"
       d="m 78.229389,36.40834 v -0.596001 q 0.420302,-0.813044 1.254016,-1.639867 l 0.306613,-0.306614 q 0.633898,-0.630453 0.633898,-1.271241 0,-0.409966 -0.244602,-0.654568 -0.241157,-0.248047 -0.647678,-0.248047 -0.492649,0 -1.174778,0.35829 v -0.599447 q 0.633898,-0.268718 1.240235,-0.268718 0.699355,0 1.123102,0.382406 0.427192,0.378961 0.427192,1.002524 0,0.403076 -0.196371,0.757921 -0.19637,0.354845 -0.664904,0.792372 l -0.289388,0.272163 q -0.799263,0.744141 -0.961182,1.422826 h 2.084284 v 0.596001 z"
       id="text64"
       transform="scale(0.94900917,1.0537306)"
       aria-label="2" /><g
       id="g71"
       transform="matrix(0.26458333,0,0,0.26458333,87.577082,6.6145832)"><rect
         x="2"
         y="2"
         width="124"
         height="124"
         rx="14"
         fill="#363d52"
         stroke="#212532"
         stroke-width="4"
         id="rect64" /><g
         transform="matrix(0.101,0,0,0.101,12.322,12.322)"
         id="g70"><g
           fill="#ffffff"
           id="g67"><path
             d="m 105,673 v 33 q 407,354 814,0 v -33 z"
             id="path64" /><path
             fill="#478cbf"
             d="m 105,673 152,14 q 12,1 15,14 l 4,67 132,10 8,-61 q 2,-11 15,-15 h 162 q 13,4 15,15 l 8,61 132,-10 4,-67 q 3,-13 15,-14 L 919,673 V 427 q 30,-39 56,-81 -35,-59 -83,-108 -43,20 -82,47 -40,-37 -88,-64 7,-51 8,-102 -59,-28 -123,-42 -26,43 -46,89 -49,-7 -98,0 -20,-46 -46,-89 -64,14 -123,42 1,51 8,102 -48,27 -88,64 -39,-27 -82,-47 -48,49 -83,108 26,42 56,81 z m 0,33 v 39 c 0,276 813,276 813,0 v -39 l -134,12 -5,69 q -2,10 -14,13 l -162,11 q -12,0 -16,-11 L 577,735 H 447 l -10,65 q -4,11 -16,11 L 259,800 q -12,-3 -14,-13 l -5,-69 z"
             id="path65" /><path
             d="m 483,600 c 3,34 55,34 58,0 v -86 c -3,-34 -55,-34 -58,0 z"
             id="path66" /><circle
             cx="725"
             cy="526"
             r="90"
             id="circle66" /><circle
             cx="299"
             cy="526"
             r="90"
             id="circle67" /></g><g
           fill="#414042"
           id="g69"><circle
             cx="307"
             cy="532"
             r="60"
             id="circle68" /><circle
             cx="717"
             cy="532"
             r="60"
             id="circle69" /></g></g></g><path
       style="font-size:7.05556px;font-family:'Lucida Console';-inkscape-font-specification:'Lucida Console';text-align:end;text-anchor:end;fill:#ffffff;stroke-width:0.616466;stroke-linejoin:round;stroke-dasharray:14.7952, 0.616466;stroke-dashoffset:0.616466;stroke-opacity:0.901015"
       d="m 121.1131,36.384225 v -0.599447 q 0.69246,0.241157 1.06453,0.241157 0.46165,0 0.74415,-0.282498 0.28249,-0.285944 0.28249,-0.747587 0,-0.516764 -0.33762,-0.795817 -0.33417,-0.279053 -0.95429,-0.279053 h -0.33073 v -0.489204 h 0.19637 q 0.45131,0 0.65802,-0.05512 0.21015,-0.05857 0.3824,-0.227376 0.27217,-0.268718 0.27217,-0.692465 0,-0.354845 -0.21705,-0.558105 -0.21704,-0.206706 -0.58911,-0.206706 -0.52021,0 -1.09898,0.279053 v -0.596002 q 0.56155,-0.196371 1.13688,-0.196371 0.68213,0 1.06453,0.310059 0.38585,0.306614 0.38585,0.854384 0,0.854384 -0.91984,1.281577 1.07487,0.368625 1.07487,1.371148 0,0.706245 -0.47886,1.123102 -0.47543,0.416857 -1.28503,0.416857 -0.50298,0 -1.05075,-0.151584 z"
       id="text71"
       transform="scale(0.94900917,1.0537306)"
       aria-label="3" /><g
       id="g78"
       transform="matrix(0.26458333,0,0,0.26458333,128.05833,6.6145832)"><rect
         x="2"
         y="2"
         width="124"
         height="124"
         rx="14"
         fill="#363d52"
         stroke="#212532"
         stroke-width="4"
         id="rect71" /><g
         transform="matrix(0.101,0,0,0.101,12.322,12.322)"
         id="g77"><g
           fill="#ffffff"
           id="g74"><path
             d="m 105,673 v 33 q 407,354 814,0 v -33 z"
             id="path71" /><path
             fill="#478cbf"
             d="m 105,673 152,14 q 12,1 15,14 l 4,67 132,10 8,-61 q 2,-11 15,-15 h 162 q 13,4 15,15 l 8,61 132,-10 4,-67 q 3,-13 15,-14 L 919,673 V 427 q 30,-39 56,-81 -35,-59 -83,-108 -43,20 -82,47 -40,-37 -88,-64 7,-51 8,-102 -59,-28 -123,-42 -26,43 -46,89 -49,-7 -98,0 -20,-46 -46,-89 -64,14 -123,42 1,51 8,102 -48,27 -88,64 -39,-27 -82,-47 -48,49 -83,108 26,42 56,81 z m 0,33 v 39 c 0,276 813,276 813,0 v -39 l -134,12 -5,69 q -2,10 -14,13 l -162,11 q -12,0 -16,-11 L 577,735 H 447 l -10,65 q -4,11 -16,11 L 259,800 q -12,-3 -14,-13 l -5,-69 z"
             id="path72" /><path
             d="m 483,600 c 3,34 55,34 58,0 v -86 c -3,-34 -55,-34 -58,0 z"
             id="path73" /><circle
             cx="725"
             cy="526"
             r="90"
             id="circle73" /><circle
             cx="299"
             cy="526"
             r="90"
             id="circle74" /></g><g
           fill="#414042"
           id="g76"><circle
             cx="307"
             cy="532"
             r="60"
             id="circle75" /><circle
             cx="717"
             cy="532"
             r="60"
             id="circle76" /></g></g></g><path
       style="font-size:7.05556px;font-family:'Lucida Console';-inkscape-font-specification:'Lucida Console';text-align:end;text-anchor:end;fill:#ffffff;stroke-width:0.616466;stroke-linejoin:round;stroke-dasharray:14.7952, 0.616466;stroke-dashoffset:0.616466;stroke-opacity:0.901015"
       d="m 165.4713,36.40834 v -1.360813 h -2.12562 v -0.571886 l 2.12562,-3.166045 h 0.63735 v 3.228056 h 0.67868 v 0.509875 h -0.67868 v 1.360813 z m -1.55374,-1.870688 h 1.55374 v -2.315105 z"
       id="text78"
       transform="scale(0.94900917,1.0537306)"
       aria-label="4" /><g
       id="g85"
       transform="matrix(0.26458333,0,0,0.26458333,6.6145833,47.095833)"><rect
         x="2"
         y="2"
         width="124"
         height="124"
         rx="14"
         fill="#363d52"
         stroke="#212532"
         stroke-width="4"
         id="rect78" /><g
         transform="matrix(0.101,0,0,0.101,12.322,12.322)"
         id="g84"><g
           fill="#ffffff"
           id="g81"><path
             d="m 105,673 v 33 q 407,354 814,0 v -33 z"
             id="path78" /><path
             fill="#478cbf"
             d="m 105,673 152,14 q 12,1 15,14 l 4,67 132,10 8,-61 q 2,-11 15,-15 h 162 q 13,4 15,15 l 8,61 132,-10 4,-67 q 3,-13 15,-14 L 919,673 V 427 q 30,-39 56,-81 -35,-59 -83,-108 -43,20 -82,47 -40,-37 -88,-64 7,-51 8,-102 -59,-28 -123,-42 -26,43 -46,89 -49,-7 -98,0 -20,-46 -46,-89 -64,14 -123,42 1,51 8,102 -48,27 -88,64 -39,-27 -82,-47 -48,49 -83,108 26,42 56,81 z m 0,33 v 39 c 0,276 813,276 813,0 v -39 l -134,12 -5,69 q -2,10 -14,13 l -162,11 q -12,0 -16,-11 L 577,735 H 447 l -10,65 q -4,11 -16,11 L 259,800 q -12,-3 -14,-13 l -5,-69 z"
             id="path79" /><path
             d="m 483,600 c 3,34 55,34 58,0 v -86 c -3,-34 -55,-34 -58,0 z"
             id="path80" /><circle
             cx="725"
             cy="526"
             r="90"
             id="circle80" /><circle
             cx="299"
             cy="526"
             r="90"
             id="circle81" /></g><g
           fill="#414042"
           id="g83"><circle
             cx="307"
             cy="532"
             r="60"
             id="circle82" /><circle
             cx="717"
             cy="532"
             r="60"
             id="circle83" /></g></g></g><path
       style="font-size:7.05556px;font-family:'Lucida Console';-inkscape-font-specification:'Lucida Console';text-align:end;text-anchor:end;fill:#ffffff;stroke-width:0.616466;stroke-linejoin:round;stroke-dasharray:14.7952, 0.616466;stroke-dashoffset:0.616466;stroke-opacity:0.901015"
       d="m 35.924459,74.797856 v -0.582222 q 0.582221,0.227377 0.933621,0.227377 0.420302,0 0.68902,-0.323839 0.272163,-0.327285 0.272163,-0.833714 0,-1.140327 -1.495173,-1.140327 -0.127468,0 -0.303168,0.01378 v -2.432239 h 2.390897 v 0.592557 h -1.819011 v 1.322917 q 0.902615,0 1.42627,0.454753 0.523655,0.454753 0.523655,1.23679 0,0.69591 -0.475423,1.157553 -0.475424,0.461643 -1.192004,0.461643 -0.403077,0 -0.950847,-0.155029 z"
       id="text85"
       transform="scale(0.94900917,1.0537306)"
       aria-label="5" /><g
       id="g92"
       transform="matrix(0.26458333,0,0,0.26458333,47.095833,47.095833)"><rect
         x="2"
         y="2"
         width="124"
         height="124"
         rx="14"
         fill="#363d52"
         stroke="#212532"
         stroke-width="4"
         id="rect85" /><g
         transform="matrix(0.101,0,0,0.101,12.322,12.322)"
         id="g91"><g
           fill="#ffffff"
           id="g88"><path
             d="m 105,673 v 33 q 407,354 814,0 v -33 z"
             id="path85" /><path
             fill="#478cbf"
             d="m 105,673 152,14 q 12,1 15,14 l 4,67 132,10 8,-61 q 2,-11 15,-15 h 162 q 13,4 15,15 l 8,61 132,-10 4,-67 q 3,-13 15,-14 L 919,673 V 427 q 30,-39 56,-81 -35,-59 -83,-108 -43,20 -82,47 -40,-37 -88,-64 7,-51 8,-102 -59,-28 -123,-42 -26,43 -46,89 -49,-7 -98,0 -20,-46 -46,-89 -64,14 -123,42 1,51 8,102 -48,27 -88,64 -39,-27 -82,-47 -48,49 -83,108 26,42 56,81 z m 0,33 v 39 c 0,276 813,276 813,0 v -39 l -134,12 -5,69 q -2,10 -14,13 l -162,11 q -12,0 -16,-11 L 577,735 H 447 l -10,65 q -4,11 -16,11 L 259,800 q -12,-3 -14,-13 l -5,-69 z"
             id="path86" /><path
             d="m 483,600 c 3,34 55,34 58,0 v -86 c -3,-34 -55,-34 -58,0 z"
             id="path87" /><circle
             cx="725"
             cy="526"
             r="90"
             id="circle87" /><circle
             cx="299"
             cy="526"
             r="90"
             id="circle88" /></g><g
           fill="#414042"
           id="g90"><circle
             cx="307"
             cy="532"
             r="60"
             id="circle89" /><circle
             cx="717"
             cy="532"
             r="60"
             id="circle90" /></g></g></g><path
       style="font-size:7.05556px;font-family:'Lucida Console';-inkscape-font-specification:'Lucida Console';text-align:end;text-anchor:end;fill:#ffffff;stroke-width:0.616466;stroke-linejoin:round;stroke-dasharray:14.7952, 0.616466;stroke-dashoffset:0.616466;stroke-opacity:0.901015"
       d="m 81.240404,69.788684 v 0.582221 q -0.609782,-0.265272 -0.971517,-0.265272 -0.644233,0 -0.995633,0.551215 -0.3514,0.551216 -0.3514,1.56063 0.451307,-0.654569 1.164443,-0.654569 0.599447,0 1.016303,0.465088 0.416857,0.461643 0.416857,1.129992 0,0.782037 -0.451308,1.288467 -0.451307,0.506429 -1.150662,0.506429 -0.830269,0 -1.271241,-0.661459 -0.437528,-0.661458 -0.437528,-1.915474 0,-1.264351 0.544326,-2.022272 0.544325,-0.757922 1.450386,-0.757922 0.420302,0 1.036974,0.192926 z m -1.240235,4.654327 q 0.378961,0 0.616673,-0.320394 0.241156,-0.320394 0.241156,-0.830269 0,-0.554661 -0.258382,-0.895725 -0.254937,-0.34451 -0.671794,-0.34451 -0.420302,0 -0.671794,0.299723 -0.248047,0.299724 -0.248047,0.799263 0,0.592557 0.268718,0.943957 0.268717,0.347955 0.72347,0.347955 z"
       id="text92"
       transform="scale(0.94900917,1.0537306)"
       aria-label="6" /><g
       id="g99"
       transform="matrix(0.26458333,0,0,0.26458333,87.577082,47.095833)"><rect
         x="2"
         y="2"
         width="124"
         height="124"
         rx="14"
         fill="#363d52"
         stroke="#212532"
         stroke-width="4"
         id="rect92" /><g
         transform="matrix(0.101,0,0,0.101,12.322,12.322)"
         id="g98"><g
           fill="#ffffff"
           id="g95"><path
             d="m 105,673 v 33 q 407,354 814,0 v -33 z"
             id="path92" /><path
             fill="#478cbf"
             d="m 105,673 152,14 q 12,1 15,14 l 4,67 132,10 8,-61 q 2,-11 15,-15 h 162 q 13,4 15,15 l 8,61 132,-10 4,-67 q 3,-13 15,-14 L 919,673 V 427 q 30,-39 56,-81 -35,-59 -83,-108 -43,20 -82,47 -40,-37 -88,-64 7,-51 8,-102 -59,-28 -123,-42 -26,43 -46,89 -49,-7 -98,0 -20,-46 -46,-89 -64,14 -123,42 1,51 8,102 -48,27 -88,64 -39,-27 -82,-47 -48,49 -83,108 26,42 56,81 z m 0,33 v 39 c 0,276 813,276 813,0 v -39 l -134,12 -5,69 q -2,10 -14,13 l -162,11 q -12,0 -16,-11 L 577,735 H 447 l -10,65 q -4,11 -16,11 L 259,800 q -12,-3 -14,-13 l -5,-69 z"
             id="path93" /><path
             d="m 483,600 c 3,34 55,34 58,0 v -86 c -3,-34 -55,-34 -58,0 z"
             id="path94" /><circle
             cx="725"
             cy="526"
             r="90"
             id="circle94" /><circle
             cx="299"
             cy="526"
             r="90"
             id="circle95" /></g><g
           fill="#414042"
           id="g97"><circle
             cx="307"
             cy="532"
             r="60"
             id="circle96" /><circle
             cx="717"
             cy="532"
             r="60"
             id="circle97" /></g></g></g><path
       style="font-size:7.05556px;font-family:'Lucida Console';-inkscape-font-specification:'Lucida Console';text-align:end;text-anchor:end;fill:#ffffff;stroke-width:0.616466;stroke-linejoin:round;stroke-dasharray:14.7952, 0.616466;stroke-dashoffset:0.616466;stroke-opacity:0.901015"
       d="m 121.27502,74.825417 q 0.062,-0.551216 0.2446,-0.985298 0.18259,-0.434083 0.84405,-1.601971 l 1.06453,-1.874133 h -2.42879 v -0.637343 h 3.07303 v 0.571886 l -0.16537,0.275608 q -1.64331,2.769859 -1.82245,4.251251 z"
       id="text99"
       transform="scale(0.94900917,1.0537306)"
       aria-label="7" /><g
       id="g106"
       transform="matrix(0.26458333,0,0,0.26458333,128.05833,47.095833)"><rect
         x="2"
         y="2"
         width="124"
         height="124"
         rx="14"
         fill="#363d52"
         stroke="#212532"
         stroke-width="4"
         id="rect99" /><g
         transform="matrix(0.101,0,0,0.101,12.322,12.322)"
         id="g105"><g
           fill="#ffffff"
           id="g102"><path
             d="m 105,673 v 33 q 407,354 814,0 v -33 z"
             id="path99" /><path
             fill="#478cbf"
             d="m 105,673 152,14 q 12,1 15,14 l 4,67 132,10 8,-61 q 2,-11 15,-15 h 162 q 13,4 15,15 l 8,61 132,-10 4,-67 q 3,-13 15,-14 L 919,673 V 427 q 30,-39 56,-81 -35,-59 -83,-108 -43,20 -82,47 -40,-37 -88,-64 7,-51 8,-102 -59,-28 -123,-42 -26,43 -46,89 -49,-7 -98,0 -20,-46 -46,-89 -64,14 -123,42 1,51 8,102 -48,27 -88,64 -39,-27 -82,-47 -48,49 -83,108 26,42 56,81 z m 0,33 v 39 c 0,276 813,276 813,0 v -39 l -134,12 -5,69 q -2,10 -14,13 l -162,11 q -12,0 -16,-11 L 577,735 H 447 l -10,65 q -4,11 -16,11 L 259,800 q -12,-3 -14,-13 l -5,-69 z"
             id="path100" /><path
             d="m 483,600 c 3,34 55,34 58,0 v -86 c -3,-34 -55,-34 -58,0 z"
             id="path101" /><circle
             cx="725"
             cy="526"
             r="90"
             id="circle101" /><circle
             cx="299"
             cy="526"
             r="90"
             id="circle102" /></g><g
           fill="#414042"
           id="g104"><circle
             cx="307"
             cy="532"
             r="60"
             id="circle103" /><circle
             cx="717"
             cy="532"
             r="60"
             id="circle104" /></g></g></g><path
       style="font-size:7.05556px;font-family:'Lucida Console';-inkscape-font-specification:'Lucida Console';text-align:end;text-anchor:end;fill:#ffffff;stroke-width:0.616466;stroke-linejoin:round;stroke-dasharray:14.7952, 0.616466;stroke-dashoffset:0.616466;stroke-opacity:0.901015"
       d="m 164.46878,72.048668 q -0.69591,-0.509875 -0.69591,-1.171333 0,-0.582222 0.39619,-0.930177 0.39963,-0.347955 1.06453,-0.347955 0.62701,0 0.97152,0.289389 0.34795,0.285943 0.34795,0.809598 0,0.778592 -0.89228,1.319472 0.61668,0.37207 0.85783,0.69591 0.24116,0.320394 0.24116,0.768256 0,0.640789 -0.46853,1.057645 -0.46854,0.413412 -1.19201,0.413412 -0.70624,0 -1.14721,-0.389296 -0.43753,-0.392741 -0.43753,-1.019749 0,-0.916396 0.95429,-1.495172 z m 0.36174,0.275608 q -0.64768,0.530545 -0.64768,1.129992 0,0.440972 0.26871,0.71658 0.27217,0.272163 0.7097,0.272163 0.38929,0 0.65112,-0.234267 0.26527,-0.234267 0.26527,-0.582221 0,-0.561551 -0.79237,-1.03353 z m 0.44786,-0.537436 q 0.6649,-0.420302 0.6649,-0.978407 0,-0.316949 -0.21359,-0.50643 -0.21015,-0.192925 -0.55811,-0.192925 -0.34795,0 -0.55811,0.18259 -0.2067,0.18259 -0.2067,0.489204 0,0.482314 0.68557,0.895725 z"
       id="text106"
       transform="scale(0.94900917,1.0537306)"
       aria-label="8" /></g></svg>
