<?xml version="1.0" encoding="UTF-8" standalone="no"?>
<!-- Created with Inkscape (http://www.inkscape.org/) -->

<svg
   width="183.84351mm"
   height="149.57434mm"
   viewBox="0 0 183.84351 149.57434"
   version="1.1"
   id="svg5"
   inkscape:version="1.2.2 (b0a8486, 2022-12-01)"
   sodipodi:docname="Carruagem.svg"
   xmlns:inkscape="http://www.inkscape.org/namespaces/inkscape"
   xmlns:sodipodi="http://sodipodi.sourceforge.net/DTD/sodipodi-0.dtd"
   xmlns="http://www.w3.org/2000/svg"
   xmlns:svg="http://www.w3.org/2000/svg">
  <sodipodi:namedview
     id="namedview7"
     pagecolor="#ffffff"
     bordercolor="#000000"
     borderopacity="0.25"
     inkscape:showpageshadow="2"
     inkscape:pageopacity="0.0"
     inkscape:pagecheckerboard="0"
     inkscape:deskcolor="#d1d1d1"
     inkscape:document-units="mm"
     showgrid="false"
     showguides="true"
     inkscape:zoom="0.35212985"
     inkscape:cx="529.63416"
     inkscape:cy="1269.4181"
     inkscape:window-width="1360"
     inkscape:window-height="699"
     inkscape:window-x="0"
     inkscape:window-y="32"
     inkscape:window-maximized="1"
     inkscape:current-layer="layer1">
    <sodipodi:guide
       position="-98.331157,164.72583"
       orientation="0,-1"
       id="guide1988"
       inkscape:locked="false" />
    <sodipodi:guide
       position="-86.857007,123.80756"
       orientation="1,0"
       id="guide26143"
       inkscape:locked="false" />
    <sodipodi:guide
       position="-85.794397,122.57891"
       orientation="0,-1"
       id="guide26145"
       inkscape:locked="false" />
  </sodipodi:namedview>
  <defs
     id="defs2" />
  <g
     inkscape:label="Layer 1"
     inkscape:groupmode="layer"
     id="layer1"
     transform="translate(-269.19455,-196.8504)">
    <rect
       style="fill:#004759;fill-opacity:1;stroke:none;stroke-width:2.204;stroke-dasharray:none;stroke-opacity:1;paint-order:markers stroke fill"
       id="rect40769"
       width="23.446344"
       height="39.989059"
       x="334.17642"
       y="306.43567"
       rx="4.3154178"
       ry="4.3154178"
       inkscape:export-filename="../Puzzles/Carruagens/king_of_samba.svg"
       inkscape:export-xdpi="96"
       inkscape:export-ydpi="96" />
    <path
       style="fill:#004759;fill-opacity:1;stroke:none;stroke-width:4.99999;stroke-dasharray:none;stroke-opacity:1;paint-order:markers stroke fill"
       d="m 316.72122,287.14176 -40.52662,17.68432 -7.00006,25.78968 25.78967,4.78952 33.52656,-25.05284 90.26384,3.31581 17.31592,11.05273 16.94752,-4.42108 -9.57906,-16.94749 -20.63172,-3.68426 z"
       id="path40902"
       sodipodi:nodetypes="ccccccccccc" />
    <rect
       style="fill:#004759;fill-opacity:1;stroke:none;stroke-width:2.204;stroke-dasharray:none;stroke-opacity:1;paint-order:markers stroke fill"
       id="rect40771"
       width="23.446344"
       height="39.989059"
       x="384.71634"
       y="306.43567"
       rx="4.3154178"
       ry="4.3154178" />
    <path
       id="path40773"
       style="fill:#004759;stroke-width:2.204;paint-order:markers stroke fill"
       d="m 312.70636,237.52439 c 35.31632,25.68769 35.62245,0.94743 24.66458,-37.79 -3.84425,-13.5899 90.81002,24.47658 91.12617,38.78961 l 1.56309,70.76541 c 0.0528,2.39015 -11.58435,22.01256 -17.8622,22.29096 l -82.2421,3.64718 c -2.38839,0.10592 -16.82015,-15.21093 -16.82015,-17.60167 -2.91597,-11.53937 -2.27032,-81.26706 -0.42939,-80.10149 z"
       sodipodi:nodetypes="cssssscc" />
    <path
       id="path40775"
       style="fill:#61dfff;fill-opacity:1;stroke:none;stroke-width:14.3782;paint-order:markers stroke fill"
       d="m 396.75463,321.12556 a 17.67799,23.236556 0 0 0 -16.4038,14.59029 h 32.81139 a 17.67799,23.236556 0 0 0 -16.40759,-14.59029 z" />
    <path
       id="path40777"
       style="fill:#61dfff;fill-opacity:1;stroke:none;stroke-width:14.3782;paint-order:markers stroke fill"
       d="m 346.21472,321.12556 a 17.67799,23.236556 0 0 0 -16.4038,14.59029 h 32.81139 a 17.67799,23.236556 0 0 0 -16.40759,-14.59029 z" />
    <path
       style="fill:#00a1ca;fill-opacity:1;stroke:none;stroke-width:4.99999;stroke-dasharray:none;stroke-opacity:1;paint-order:markers stroke fill"
       d="m 316.57614,282.49419 0.52103,-34.909 c 0,0 19.72301,10.26524 28.65665,1.56309 8.93364,-8.70215 -1.30258,-46.11114 -1.30258,-46.11114 24.20109,6.87804 47.10663,11.0653 79.9781,35.95106 -25.75743,26.73436 -53.17521,51.4763 -107.8532,43.50599 z"
       id="path45406"
       sodipodi:nodetypes="cczccc" />
    <path
       style="fill:#004759;fill-opacity:1;stroke:none;stroke-width:4.99999;stroke-dasharray:none;stroke-opacity:1;paint-order:markers stroke fill"
       d="m 346.45583,293.9733 -18.49656,5.99186 -6.25235,-13.80731 4.42874,-18.49654 24.22791,-4.68928 8.33647,8.59699 3.6472,-23.18582 11.98369,-12.24421 9.37856,15.37039 0.78152,21.1017 15.6309,-11.46265 20.58069,12.2442 2.08413,24.48841 -34.90902,-7.03391 z"
       id="path46868"
       sodipodi:nodetypes="ccccccccccccccc" />
    <path
       id="path41704"
       style="fill:#61dfff;fill-opacity:1;stroke:none;stroke-width:14.0573;stroke-linecap:butt;stroke-linejoin:miter;stroke-dasharray:none;stroke-opacity:1;paint-order:markers stroke fill"
       d="m 372.17769,219.07655 -13.45396,13.45448 V 260.9882 L 339.112,257.64784 v -7.68894 l -18.31877,18.31878 v 31.75414 c 12.66262,1.46858 24.58701,-0.75377 36.55745,-2.74609 -1.99921,-0.41907 -4.01078,-0.90794 -6.03529,-1.46864 0.62895,-7.87828 5.41929,-14.5476 12.18427,-17.81959 v -27.2588 l 8.96328,-8.96534 8.23309,8.27701 v 27.17767 c 7.70209,2.89928 13.29728,10.03031 13.98054,18.58905 -1.28921,0.42319 -2.58598,0.80394 -3.8902,1.14308 l 32.78559,3.07165 V 268.27768 L 405.25319,249.9589 v 7.68894 l -19.60966,3.34036 v -28.45717 l -13.45603,-13.45448 -0.004,0.75809 z m -29.02459,47.76608 c 2.32023,-0.0293 4.44174,0.4773 6.03943,1.70325 5.68064,4.35895 4.41899,14.29424 0,19.89491 -4.419,5.60068 -16.76393,9.68279 -22.28082,5.32991 -5.51688,-4.35289 -4.29396,-13.65868 0,-19.25464 3.08629,-4.0221 10.31191,-7.59843 16.24139,-7.67343 z m 58.21505,0 c 5.9295,0.075 13.1551,3.65133 16.24139,7.67343 4.29396,5.59596 5.51688,14.90175 0,19.25464 -5.51689,4.35288 -17.86181,0.27078 -22.28081,-5.32991 -4.41901,-5.60068 -5.68066,-15.53596 0,-19.89491 1.59768,-1.22595 3.71918,-1.7326 6.03942,-1.70325 z m -28.62357,0.79271 -8.76743,10.1384 c 2.7448,-1.24589 5.7981,-1.9389 9.01909,-1.9389 2.62003,0 5.12791,0.46004 7.45019,1.30173 z" />
    <path
       style="fill:#61dfff;fill-opacity:1;stroke:none;stroke-width:4.99999;stroke-dasharray:none;stroke-opacity:1;paint-order:markers stroke fill"
       d="m 314.58048,291.36506 -33.15814,16.94749 -5.52636,19.15803 9.94744,-16.21065 29.47389,-16.21062 z"
       id="path43810" />
    <path
       style="fill:#61dfff;fill-opacity:1;stroke:none;stroke-width:4.99999;stroke-dasharray:none;stroke-opacity:1;paint-order:markers stroke fill"
       d="m 436.52876,321.57582 12.89481,-2.57897 -6.63162,-11.78957 -23.21068,-8.10532 19.52646,11.42113 5.52633,7.00006 z"
       id="path43812" />
    <path
       id="path44540"
       style="fill:#61dfff;fill-opacity:1;stroke:none;stroke-width:4.99999;stroke-dasharray:none;stroke-opacity:1;paint-order:markers stroke fill"
       d="m 393.98824,291.85402 c 0.34579,1.2776 0.57968,2.60203 0.68833,3.96307 -13.6535,4.48185 -28.15534,4.21137 -43.36118,0 0.0874,-1.09503 0.25634,-2.16615 0.49868,-3.20859 l -30.2333,4.65139 c 0,0 -4.4909,13.55074 -2.94762,18.78955 1.54328,5.23882 3.93166,9.43456 9.57874,9.57926 5.64709,0.1447 7.34839,-9.86036 18.10174,-9.33328 10.75335,0.52707 14.75442,9.59543 23.99957,10.69857 9.24516,1.10315 14.40112,-8.41494 25.45839,-10.52752 11.05729,-2.11257 10.60264,7.19261 16.80983,6.58306 6.20719,-0.60955 9.20688,-3.00973 11.42101,-8.10545 2.21413,-5.09571 -1.28933,-19.158 -1.28933,-19.158 z" />
    <rect
       style="fill:#004759;fill-opacity:1;stroke:#61dfff;stroke-width:2.74723;stroke-dasharray:none;stroke-opacity:1;paint-order:markers stroke fill"
       id="rect47596"
       width="22.961554"
       height="43.856583"
       x="360.77271"
       y="280.18631"
       rx="11.480777"
       ry="11.480777" />
    <path
       id="rect49470"
       style="fill:#00a1ca;fill-opacity:1;stroke:none;stroke-width:5.82401;stroke-dasharray:none;stroke-opacity:1;paint-order:markers stroke fill"
       d="m 372.41045,300.62419 a 5.1586321,5.1586321 0 0 0 -5.15854,5.15854 5.1586321,5.1586321 0 0 0 3.25644,4.79437 c -1.9404,0.76326 -3.307,2.65008 -3.307,4.86781 v 3.2185 c 0,2.89752 2.33265,5.23018 5.23017,5.23018 2.8975,0 5.23016,-2.33266 5.23016,-5.23018 v -3.2185 c 0,-2.22618 -1.3771,-4.11867 -3.32928,-4.87623 a 5.1586321,5.1586321 0 0 0 3.23718,-4.78595 5.1586321,5.1586321 0 0 0 -5.15913,-5.15854 z" />
    <path
       id="path90927"
       style="fill:#004759;fill-opacity:1;stroke:none;stroke-width:15.5739;stroke-linecap:butt;stroke-linejoin:miter;stroke-dasharray:none;stroke-opacity:1;paint-order:markers stroke fill"
       d="m 340.30928,202.9837 c 8.77387,0.22746 17.02461,3.08508 20.18921,9.87551 0.51057,1.09557 0.86158,2.22265 1.07141,3.36889 2.47533,5.35996 4.52941,10.8802 3.96605,17.18381 -15.83685,23.00754 -30.89375,25.41535 -48.59684,23.92209 -7.05811,-1.90058 -11.58326,-4.813 -12.96871,-8.97854 -2.07069,-3.53762 -3.05753,-6.49854 -3.99827,-9.43545 -6.60096,-10.6913 9.432,-27.05438 21.06117,-32.30037 5.31153,-2.39572 12.45183,-3.81213 19.27598,-3.63594 z" />
    <path
       id="path90925"
       style="fill:#61dfff;fill-opacity:1;stroke:none;stroke-width:13.6821;stroke-linecap:butt;stroke-linejoin:miter;stroke-dasharray:none;stroke-opacity:1;paint-order:markers stroke fill"
       d="m 339.07143,205.79024 c 7.70806,0.20081 14.95656,2.71039 17.73673,8.67597 4.40124,9.44395 -4.4503,21.51074 -16.11812,26.78088 -13.03273,5.88664 -28.33895,8.93186 -36.82682,-3.5295 -6.38991,-9.38122 7.92713,-24.06605 18.27375,-28.7335 4.66612,-2.10515 10.93928,-3.34868 16.93446,-3.19385 z m 20.5145,5.11283 c 1.51491,0.0541 4.15399,0.62461 5.53373,3.73684 2.0068,4.52685 -1.7378,7.32917 -1.7378,7.32917 -0.99618,-4.05358 -2.86917,-7.58981 -4.94123,-11.00787 0,0 0.45661,-0.0822 1.14521,-0.0581 z m 2.32941,17.70161 c 0,0 3.92604,3.69681 1.37961,7.94362 -2.54648,4.24681 -7.8352,2.32552 -7.8352,2.32552 3.16388,-3.05238 5.08311,-6.55538 6.45559,-10.26914 z m -60.92335,10.78098 c 1.59874,4.09523 4.09283,7.21409 6.99182,9.91069 0,0 -5.46277,2.16582 -8.40165,-1.81955 -2.93885,-3.98526 1.40983,-8.09114 1.40983,-8.09114 z m 47.46533,5.62229 c 0,0 2.30333,6.40355 -2.12426,8.62088 -4.42755,2.21729 -8.83284,-3.4198 -8.83284,-3.4198 4.30767,-0.87809 7.80625,-2.80361 10.9571,-5.20108 z m -33.05347,6.69069 c 4.17953,1.36324 8.17208,1.41518 12.09583,0.886 0,0 -1.15867,6.70656 -6.10372,6.44873 -4.945,-0.25793 -5.99211,-7.33473 -5.99211,-7.33473 z" />
    <path
       id="path49390"
       style="fill:#61dfff;fill-opacity:1;stroke:none;stroke-width:19.5157;paint-order:markers stroke fill"
       d="m 372.99603,278.83315 c -8.68074,0 -15.75207,6.64337 -16.43068,15.14369 11.52372,3.19159 22.51411,3.39657 32.86139,0 -0.6786,-8.50032 -7.74997,-15.14369 -16.43071,-15.14369 z"
       sodipodi:nodetypes="sccs" />
    <path
       id="path49473"
       style="fill:#00a1ca;fill-opacity:1;stroke:none;stroke-width:5.82401;stroke-dasharray:none;stroke-opacity:1;paint-order:markers stroke fill"
       d="m 372.34159,293.51279 v 0.0115 l -1.92498,3.58268 v 2.89709 l -0.8132,0.67776 a 5.4949923,5.4949923 0 0 1 2.80559,-0.77828 5.4949923,5.4949923 0 0 1 2.4312,0.57363 l -0.56761,-0.47311 v -2.89709 l -1.92499,-3.58268 v -0.0115 l -0.003,0.006 z m -6.37745,6.75907 -2.30659,0.26845 -0.16072,2.89649 3.21852,1.98516 0.19984,-0.002 a 5.4949923,5.4949923 0 0 1 -10e-4,-0.0216 5.4949923,5.4949923 0 0 1 1.35917,-3.60856 l -0.43158,0.35934 z m 12.76091,0 -1.87802,1.87741 -0.0373,-0.0313 a 5.4949923,5.4949923 0 0 1 1.09491,3.28052 5.4949923,5.4949923 0 0 1 -10e-4,0.0228 l 0.0704,6.1e-4 3.21852,-1.98517 -0.16072,-2.89649 z" />
    <circle
       style="fill:#61dfff;fill-opacity:1;stroke:none;stroke-width:4.99999;stroke-dasharray:none;stroke-opacity:1;paint-order:markers stroke fill"
       id="path49483"
       cx="369.83707"
       cy="306.95895"
       r="1.5630897" />
    <circle
       style="fill:#61dfff;fill-opacity:1;stroke:none;stroke-width:4.99999;stroke-dasharray:none;stroke-opacity:1;paint-order:markers stroke fill"
       id="circle49485"
       cx="374.78687"
       cy="306.95895"
       r="1.5630897" />
  </g>
</svg>
