<?xml version="1.0" encoding="UTF-8" standalone="no"?>
<!-- Created with Inkscape (http://www.inkscape.org/) -->

<svg
   width="173.04218mm"
   height="162.21053mm"
   viewBox="0 0 173.04218 162.21053"
   version="1.1"
   id="svg5"
   inkscape:version="1.2.2 (b0a8486, 2022-12-01)"
   sodipodi:docname="Carruagem.svg"
   xmlns:inkscape="http://www.inkscape.org/namespaces/inkscape"
   xmlns:sodipodi="http://sodipodi.sourceforge.net/DTD/sodipodi-0.dtd"
   xmlns="http://www.w3.org/2000/svg"
   xmlns:svg="http://www.w3.org/2000/svg">
  <sodipodi:namedview
     id="namedview7"
     pagecolor="#ffffff"
     bordercolor="#000000"
     borderopacity="0.25"
     inkscape:showpageshadow="2"
     inkscape:pageopacity="0.0"
     inkscape:pagecheckerboard="0"
     inkscape:deskcolor="#d1d1d1"
     inkscape:document-units="mm"
     showgrid="false"
     showguides="true"
     inkscape:zoom="0.35212985"
     inkscape:cx="529.63416"
     inkscape:cy="1269.4181"
     inkscape:window-width="1360"
     inkscape:window-height="699"
     inkscape:window-x="0"
     inkscape:window-y="32"
     inkscape:window-maximized="1"
     inkscape:current-layer="layer1">
    <sodipodi:guide
       position="-121.05485,-11.864708"
       orientation="0,-1"
       id="guide1988"
       inkscape:locked="false" />
    <sodipodi:guide
       position="-109.5807,-52.782977"
       orientation="1,0"
       id="guide26143"
       inkscape:locked="false" />
    <sodipodi:guide
       position="-108.51809,-54.011627"
       orientation="0,-1"
       id="guide26145"
       inkscape:locked="false" />
  </sodipodi:namedview>
  <defs
     id="defs2" />
  <g
     inkscape:label="Layer 1"
     inkscape:groupmode="layer"
     id="layer1"
     transform="translate(-291.91824,-7.6236695)">
    <path
       id="path53608"
       style="fill:#004759;fill-opacity:1;stroke:none;stroke-width:14.3815;stroke-opacity:1;paint-order:markers stroke fill"
       d="m 353.70111,17.988137 c -4.03833,-0.0426 -8.16173,0.93096 -12.55047,3.53395 0,0 -0.001,12.13731 1.26159,18.37859 1.26279,6.24127 2.56542,19.51212 11.8021,20.00006 6.3677,-0.34714 15.76772,-2.32455 21.26097,-16.39659 1.09178,2.33211 3.14955,8.12298 3.14955,8.12298 l 0.30875,0.83152 0.30943,-0.83356 c 0,0 2.05803,-5.78938 3.14955,-8.12094 5.49325,14.07204 14.89328,16.04945 21.26097,16.39659 9.2367,-0.48794 10.53933,-13.75879 11.80211,-20.00006 1.26277,-6.24128 1.2609,-18.37859 1.2609,-18.37859 -13.35694,-7.922071 -24.25532,-0.74878 -37.78228,4.21348 -9.08261,-3.33182 -16.98081,-7.66043 -25.23317,-7.74743 z"
       sodipodi:nodetypes="scscccccccsccs"
       inkscape:export-filename="../Puzzles/Carruagens/maks_veneza.svg"
       inkscape:export-xdpi="96"
       inkscape:export-ydpi="96" />
    <path
       style="fill:#004759;fill-opacity:1;stroke:none;stroke-width:15.1335;stroke-opacity:1;paint-order:markers stroke fill"
       d="m 382.31495,53.74323 c 0,0 -1.87699,29.361 -8.71446,36.1985 -6.83748,6.837478 -12.06154,8.560278 -19.84214,8.982588 -7.78061,0.42228 -18.13147,-3.209968 -23.73013,-7.775968 -5.59864,-4.566 -6.55789,-9.31795 -9.11665,-15.95417 -2.55876,-6.63621 -4.50053,-14.62874 -5.22868,-23.73012 -0.72814,-9.10138 -2.93276,-24.1151 1.7429,-30.43356 L 327.34685,7.6236698 323.99513,19.95797 c -1.913,7.03986 1.87606,23.04589 5.09462,30.56763 3.21855,7.52172 5.83994,14.78149 10.85955,14.47939 5.0196,-0.30209 6.03308,-10.45733 6.03308,-10.45733"
       id="path16986"
       sodipodi:nodetypes="czzzzzscszzc" />
    <path
       style="fill:#004759;fill-opacity:1;stroke:none;stroke-width:15.1335;stroke-opacity:1;paint-order:markers stroke fill"
       d="m 374.56371,53.74323 c 0,0 1.87697,29.361 8.71445,36.1985 6.83749,6.837478 12.06154,8.560278 19.84215,8.982588 7.78059,0.42228 18.13148,-3.209968 23.73012,-7.775968 5.59864,-4.566 6.5579,-9.31795 9.11667,-15.95417 2.55874,-6.63621 4.50051,-14.62874 5.22866,-23.73012 0.72814,-9.10138 2.93277,-24.1151 -1.74289,-30.43356 L 429.5318,7.6236698 432.88351,19.95797 c 1.91301,7.03986 -1.87605,23.04589 -5.0946,30.56763 -3.21855,7.52172 -5.83995,14.78149 -10.85954,14.47939 -5.01961,-0.30209 -6.03308,-10.45733 -6.03308,-10.45733"
       id="path16988"
       sodipodi:nodetypes="czzzzzscszzc" />
    <path
       style="fill:#004759;fill-opacity:1;stroke:none;stroke-width:20.4861;stroke-opacity:1;paint-order:markers stroke fill"
       d="m 383.68571,96.10674 c 0,0 -2.54086,39.74566 -11.79667,49.0015 -9.25582,9.25582 -16.32757,11.58798 -26.86008,12.15964 -10.53253,0.57165 -24.54439,-4.3453 -32.12322,-10.52624 -7.57882,-6.18095 -8.87736,-12.61361 -12.34112,-21.59699 -3.46376,-8.98336 -6.09231,-19.80277 -7.07801,-32.12321 -0.98567,-12.32044 -3.97004,-32.64436 2.35934,-41.19758 l 13.43005,-18.14868 -4.53719,16.6968 c -2.58961,9.52978 2.53959,31.19698 6.89653,41.37908 4.35692,10.18208 7.90546,20.00955 14.70045,19.6006 6.79498,-0.40895 8.16692,-14.155982 8.16692,-14.155982"
       id="path16844"
       sodipodi:nodetypes="czzzzzscszzc" />
    <path
       style="fill:#004759;fill-opacity:1;stroke:none;stroke-width:20.4861;stroke-opacity:1;paint-order:markers stroke fill"
       d="m 373.19295,96.10674 c 0,0 2.54083,39.74566 11.79665,49.0015 9.25584,9.25582 16.32757,11.58798 26.86011,12.15964 10.53251,0.57165 24.54439,-4.3453 32.12321,-10.52624 7.57882,-6.18095 8.87735,-12.61361 12.34113,-21.59699 3.46375,-8.98336 6.0923,-19.80277 7.07798,-32.12321 0.98569,-12.32044 3.97006,-32.64436 -2.35933,-41.19758 l -13.43004,-18.14868 4.53717,16.6968 c 2.58962,9.52978 -2.53959,31.19698 -6.89651,41.37908 -4.35692,10.18208 -7.90547,20.00955 -14.70044,19.6006 -6.79499,-0.40895 -8.16692,-14.155982 -8.16692,-14.155982"
       id="path16846"
       sodipodi:nodetypes="czzzzzscszzc" />
    <rect
       style="fill:#004759;fill-opacity:1;stroke:none;stroke-width:2.204;stroke-dasharray:none;stroke-opacity:1;paint-order:markers stroke fill"
       id="rect6268"
       width="23.446344"
       height="39.989059"
       x="341.54492"
       y="129.84514"
       rx="4.3154178"
       ry="4.3154178" />
    <rect
       style="fill:#004759;fill-opacity:1;stroke:none;stroke-width:2.204;stroke-dasharray:none;stroke-opacity:1;paint-order:markers stroke fill"
       id="rect6270"
       width="23.446344"
       height="39.989059"
       x="392.08481"
       y="129.84514"
       rx="4.3154178"
       ry="4.3154178" />
    <path
       style="fill:#61dfff;fill-opacity:1;stroke:none;stroke-width:4.99999;stroke-dasharray:none;stroke-opacity:1;paint-order:markers stroke fill"
       d="m 334.9493,143.95235 c 0,0 -19.19678,-7.46783 -27.09357,-20.58069 -7.89679,-13.11286 -9.37854,-57.052779 -9.37854,-57.052779 0,0 13.08563,44.540459 20.32019,54.968659 7.23456,10.4282 13.28625,11.46266 13.28625,11.46266 l 92.32205,6.87854 c 0,0 14.69916,-7.20506 20.92924,-13.88134 6.23007,-6.67628 14.43944,-24.43472 14.43944,-24.43472 0,0 -2.3865,18.88628 -7.76308,27.95551 -5.37658,9.06922 -23.92135,22.15013 -23.92135,22.15013 l -25.78965,-6.63163 z"
       id="path51752"
       sodipodi:nodetypes="czczcczczccc" />
    <path
       id="path6272"
       style="fill:#004759;stroke:none;stroke-width:5;stroke-dasharray:none;stroke-opacity:1;paint-order:markers stroke fill"
       d="m 325.60122,57.61807 c -31.55317,-24.64815 138.21421,-33.33438 110.2644,4.31542 l 1.56309,70.76541 c 0.0528,2.39015 -11.58435,22.01256 -17.8622,22.29096 l -82.24211,3.64718 c -2.38839,0.10592 -16.82014,-15.21093 -16.82014,-17.60167 -2.91597,-11.53937 3.25604,-84.58288 5.09696,-83.4173 z"
       sodipodi:nodetypes="ccssscc" />
    <rect
       style="fill:#004759;fill-opacity:1;stroke:#61dfff;stroke-width:2.204;stroke-dasharray:none;stroke-opacity:1;paint-order:markers stroke fill"
       id="rect6274"
       width="18.421185"
       height="35.184471"
       x="370.57733"
       y="68.63633"
       rx="9.2105923"
       ry="9.2105923" />
    <rect
       style="fill:#004759;fill-opacity:1;stroke:#61dfff;stroke-width:2.204;stroke-dasharray:none;stroke-opacity:1;paint-order:markers stroke fill"
       id="rect6276"
       width="18.421185"
       height="35.184471"
       x="407.24673"
       y="105.47872"
       rx="9.2105923"
       ry="9.2105923" />
    <path
       id="path6278"
       style="fill:#61dfff;fill-opacity:1;stroke:none;stroke-width:14.3782;paint-order:markers stroke fill"
       d="m 404.12314,144.53505 a 17.67799,23.236556 0 0 0 -16.40381,14.59029 h 32.8114 a 17.67799,23.236556 0 0 0 -16.40759,-14.59029 z" />
    <rect
       style="fill:#004759;fill-opacity:1;stroke:#61dfff;stroke-width:2.204;stroke-dasharray:none;stroke-opacity:1;paint-order:markers stroke fill"
       id="rect6284"
       width="18.421185"
       height="35.184471"
       x="331.30774"
       y="105.47872"
       rx="9.2105923"
       ry="9.2105923" />
    <path
       id="path6286"
       style="fill:#61dfff;fill-opacity:1;stroke:none;stroke-width:14.3782;paint-order:markers stroke fill"
       d="m 353.58322,144.53505 a 17.67799,23.236556 0 0 0 -16.4038,14.59029 h 32.81139 a 17.67799,23.236556 0 0 0 -16.40759,-14.59029 z" />
    <path
       style="fill:#00a1ca;fill-opacity:1;stroke:none;stroke-width:14.3815;stroke-opacity:1;paint-order:markers stroke fill"
       d="m 382.12236,91.93159 c 0,0 -1.78372,-27.90202 -8.28143,-34.39975 -6.49772,-6.49772 -11.46219,-8.13493 -18.85616,-8.53624 -7.39399,-0.40131 -17.23051,3.05046 -22.55096,7.38957 -5.32044,4.33911 -6.23203,8.85493 -8.66364,15.16139 -2.43161,6.30645 -4.27689,13.90183 -4.96886,22.55095 -0.69196,8.64913 -2.78703,22.91681 1.65629,28.92129 l 9.42808,12.74063 -3.18517,-11.72139 c -1.81794,-6.69004 1.78283,-21.90072 4.84146,-29.0487 3.05862,-7.14797 5.54975,-14.04699 10.31993,-13.7599 4.77017,0.28709 5.73329,9.9377 5.73329,9.9377"
       id="path13863"
       sodipodi:nodetypes="czzzzzscszzc" />
    <path
       style="fill:#00a1ca;fill-opacity:1;stroke:none;stroke-width:14.3815;stroke-opacity:1;paint-order:markers stroke fill"
       d="m 374.75629,91.93159 c 0,0 1.7837,-27.90202 8.28142,-34.39975 6.49773,-6.49772 11.46219,-8.13493 18.85618,-8.53624 7.39397,-0.40131 17.23051,3.05046 22.55095,7.38957 5.32044,4.33911 6.23203,8.85493 8.66365,15.16139 2.4316,6.30645 4.27688,13.90183 4.96884,22.55095 0.69197,8.64913 2.78704,22.91681 -1.65628,28.92129 l -9.42808,12.74063 3.18516,-11.72139 c 1.81795,-6.69004 -1.78283,-21.90072 -4.84145,-29.0487 -3.05862,-7.14797 -5.54975,-14.04699 -10.31992,-13.7599 -4.77018,0.28709 -5.73329,9.9377 -5.73329,9.9377"
       id="path21596"
       sodipodi:nodetypes="czzzzzscszzc" />
    <path
       style="fill:#00a1ca;fill-opacity:1;stroke:none;stroke-width:14.3815;stroke-opacity:1;paint-order:markers stroke fill"
       d="m 350.67382,81.2198 c 0,0 -6.98888,14.95214 -8.34098,37.08382 -1.35209,22.13166 11.65805,45.88023 11.65805,45.88023 0,0 -0.0736,-16.00333 4.40373,-35.25182 4.47731,-19.2485 17.47042,-51.54627 17.47042,-51.54627 z"
       id="path30387"
       sodipodi:nodetypes="czczcc" />
    <path
       id="path13104"
       style="fill:#61dfff;fill-opacity:1;stroke:none;stroke-width:14.3815;stroke-opacity:1;paint-order:markers stroke fill"
       d="m 357.54722,72.89472 c -7.37562,0.0756 -14.0743,3.20932 -15.18065,13.82433 -1.25451,12.036548 -1.88764,17.44887 4.58426,34.49232 6.44183,16.96425 19.13914,33.81162 31.89349,34.22651 v 0.008 c 0.0297,-6e-4 0.0595,-0.003 0.0893,-0.004 0.0298,7.9e-4 0.0595,0.003 0.0893,0.004 v -0.008 c 12.75442,-0.41472 25.45163,-17.26217 31.8935,-34.22651 6.4719,-17.04345 5.83876,-22.455772 4.58424,-34.49232 -2.57985,-24.75282 -35.49611,-10.03138 -36.56703,-9.50748 -0.61167,-0.29924 -11.56297,-4.41746 -21.38638,-4.31685 z"
       sodipodi:nodetypes="ssscccccsscs" />
    <path
       id="path27346"
       style="fill:#004759;fill-opacity:1;stroke:none;stroke-width:14.3815;stroke-opacity:1;paint-order:markers stroke fill"
       d="m 353.03317,81.271665 c -0.42376,-0.003 -0.83184,0.0469 -1.22206,0.1554 -8.32447,2.31332 -5.76609,6.66645 -5.76609,6.66645 4.41851,-4.28209 19.14082,14.699625 30.63121,15.279475 0,0 -15.0265,-22.038225 -23.64306,-22.101325 z m 51.23856,0 c -8.61655,0.063 -23.64238,22.101325 -23.64238,22.101325 11.4904,-0.57985 26.21204,-19.561565 30.63055,-15.279475 0,0 2.55906,-4.35313 -5.76542,-6.66645 -0.39022,-0.10842 -0.79898,-0.15851 -1.22275,-0.1554 z" />
    <path
       id="path13180"
       style="fill:#00a1ca;fill-opacity:1;stroke:none;stroke-width:14.3815;stroke-opacity:1;paint-order:markers stroke fill"
       d="m 353.70111,86.14653 c -4.03833,-0.0426 -8.16173,0.93096 -12.55047,3.53395 0,0 -0.001,12.13731 1.26159,18.37859 1.26279,6.24127 2.56542,19.51212 11.8021,20.00006 6.3677,-0.34714 15.76772,-2.32455 21.26097,-16.39659 1.09178,2.33211 3.14955,8.12298 3.14955,8.12298 l 0.30875,0.83152 0.30943,-0.83356 c 0,0 2.05803,-5.78938 3.14955,-8.12094 5.49325,14.07204 14.89328,16.04945 21.26097,16.39659 9.2367,-0.48794 10.53933,-13.75879 11.80211,-20.00006 1.26277,-6.24128 1.2609,-18.37859 1.2609,-18.37859 -13.35694,-7.92207 -24.25532,-0.74878 -37.78228,4.21348 -9.08261,-3.33182 -16.98081,-7.66043 -25.23317,-7.74743 z"
       sodipodi:nodetypes="scscccccccsccs" />
    <path
       id="path13807"
       style="fill:#004759;fill-opacity:1;stroke:none;stroke-width:19.5128;stroke-opacity:1;paint-order:markers stroke fill"
       d="m 399.53003,101.44306 c -5.97042,-0.0338 -13.95031,3.74232 -14.56111,11.34816 13.07407,1.90564 24.2636,1.11482 27.55939,-10.97263 0,0 -4.64115,1.15457 -10.58959,-0.12741 -0.74356,-0.16025 -1.55577,-0.24327 -2.40869,-0.24809 z m -41.16014,0.2549 c -0.81711,0.005 -1.59479,0.0836 -2.30713,0.23719 -5.69869,1.22818 -10.1452,0.12265 -10.1452,0.12265 3.15741,11.57991 13.87695,12.33751 26.40206,10.5119 -0.58515,-7.28651 -8.22999,-10.90408 -13.94973,-10.87176 z" />
    <path
       style="fill:#00a1ca;fill-opacity:1;stroke:none;stroke-width:14.3815;stroke-opacity:1;paint-order:markers stroke fill"
       d="m 354.99839,48.18659 c -14.27041,5.95238 -28.42102,10.10424 -41.51572,-1.61259 4.33868,12.65803 8.21721,25.96703 16.67584,32.79687 z"
       id="path22328"
       sodipodi:nodetypes="cccc" />
    <path
       style="fill:#00a1ca;fill-opacity:1;stroke:none;stroke-width:14.3815;stroke-opacity:1;paint-order:markers stroke fill"
       d="m 392.83575,113.45646 c 13.15526,8.12494 13.78678,19.36431 11.90024,36.83419 7.75556,-10.90419 9.28125,-28.66082 9.89964,-39.51499 z"
       id="path22384"
       sodipodi:nodetypes="cccc" />
    <path
       id="path24893"
       style="fill:#004759;fill-opacity:1;stroke:none;stroke-width:19.8311;stroke-opacity:1;paint-order:markers stroke fill"
       d="m 374.93482,120.76563 c 0,0 1.33243,6.92804 3.99742,6.92408 2.66106,-0.004 3.97357,-6.92408 3.97357,-6.92408 -2.38755,1.34789 -4.98412,1.64875 -7.97099,0 z m -14.12558,6.94317 c -2.28861,9e-5 -4.14388,1.85535 -4.14397,4.14396 -2.9e-4,2.28888 1.85509,4.14456 4.14397,4.14465 2.28914,2.8e-4 4.14492,-1.85551 4.14463,-4.14465 -9e-5,-2.28887 -1.85576,-4.14424 -4.14463,-4.14396 z m 33.51358,0.36055 c -2.18929,-4e-5 -3.96407,1.77473 -3.96403,3.96402 -5e-5,2.1893 1.77473,3.96408 3.96403,3.96404 2.1893,5e-5 3.96409,-1.77474 3.96404,-3.96404 4e-5,-2.18929 -1.77475,-3.96407 -3.96404,-3.96402 z m -21.00674,6.94045 c -2.64238,0.0422 -8.74321,1.30548 -8.74321,1.30548 1.70349,0.83699 3.39144,3.17636 5.09135,3.56845 1.74943,1.64075 4.69595,3.46374 9.15351,3.46374 4.50724,0 7.41471,-1.84938 9.10853,-3.49101 1.66035,-0.39196 3.30974,-2.7234 4.97413,-3.54118 0,0 -6.71534,-1.56733 -9.1065,-1.2898 -2.21877,0.25751 -4.70602,1.77431 -5.05726,1.99428 -0.35215,-0.22053 -2.83832,-1.73684 -5.05659,-1.99428 -0.11211,-0.0132 -0.23401,-0.0178 -0.36396,-0.0157 z m 5.30877,16.09942 c -2.61937,0.0177 -3.80454,2.26964 -3.80454,2.26964 2.47466,-0.80782 4.95621,-1.44589 7.51434,0 0,0 -0.87645,-2.21364 -3.58371,-2.26896 -0.0423,-8.6e-4 -0.0845,-9.6e-4 -0.12609,-6.8e-4 z"
       sodipodi:nodetypes="csccccccccccccsccsccsccsssccss" />
    <path
       id="path53610"
       style="fill:#61dfff;fill-opacity:1;stroke:none;stroke-width:19.5128;stroke-opacity:1;paint-order:markers stroke fill"
       d="m 399.53003,34.021495 c -5.97042,-0.0338 -13.95031,3.74232 -14.56111,11.34816 13.07407,1.90564 24.2636,1.11482 27.55939,-10.97263 0,0 -4.64115,1.15457 -10.58959,-0.12741 -0.74356,-0.16025 -1.55577,-0.24327 -2.40869,-0.24809 z m -41.16014,0.2549 c -0.81711,0.005 -1.59479,0.0836 -2.30713,0.23719 -5.69869,1.22818 -10.1452,0.12265 -10.1452,0.12265 3.15741,11.57991 13.87695,12.33751 26.40206,10.5119 -0.58515,-7.28651 -8.22999,-10.90408 -13.94973,-10.87176 z" />
  </g>
</svg>
