<?xml version="1.0" encoding="UTF-8" standalone="no"?>
<!-- Created with Inkscape (http://www.inkscape.org/) -->

<svg
   width="233.21227mm"
   height="158.87335mm"
   viewBox="0 0 233.21227 158.87335"
   version="1.1"
   id="svg5"
   inkscape:version="1.2.2 (b0a8486, 2022-12-01)"
   sodipodi:docname="Carruagem.svg"
   xmlns:inkscape="http://www.inkscape.org/namespaces/inkscape"
   xmlns:sodipodi="http://sodipodi.sourceforge.net/DTD/sodipodi-0.dtd"
   xmlns="http://www.w3.org/2000/svg"
   xmlns:svg="http://www.w3.org/2000/svg">
  <sodipodi:namedview
     id="namedview7"
     pagecolor="#ffffff"
     bordercolor="#000000"
     borderopacity="0.25"
     inkscape:showpageshadow="2"
     inkscape:pageopacity="0.0"
     inkscape:pagecheckerboard="0"
     inkscape:deskcolor="#d1d1d1"
     inkscape:document-units="mm"
     showgrid="false"
     showguides="true"
     inkscape:zoom="0.35212985"
     inkscape:cx="529.63416"
     inkscape:cy="1269.4181"
     inkscape:window-width="1360"
     inkscape:window-height="699"
     inkscape:window-x="0"
     inkscape:window-y="32"
     inkscape:window-maximized="1"
     inkscape:current-layer="layer1">
    <sodipodi:guide
       position="169.70774,-17.113594"
       orientation="0,-1"
       id="guide1988"
       inkscape:locked="false" />
    <sodipodi:guide
       position="181.18189,-58.031864"
       orientation="1,0"
       id="guide26143"
       inkscape:locked="false" />
    <sodipodi:guide
       position="182.2445,-59.260514"
       orientation="0,-1"
       id="guide26145"
       inkscape:locked="false" />
  </sodipodi:namedview>
  <defs
     id="defs2" />
  <g
     inkscape:label="Layer 1"
     inkscape:groupmode="layer"
     id="layer1"
     transform="translate(-1.1556569,-5.7119574)">
    <path
       style="fill:#00a1ca;fill-opacity:1;stroke:none;stroke-width:4.73093;stroke-dasharray:none;stroke-opacity:1;paint-order:markers stroke fill"
       d="M 152.79591,101.50776 190.44455,151.35731 135.7146,125.56104 69.480921,127.30403 30.437919,154.4947 56.234195,112.6629 1.1556568,75.014279 67.737939,85.123632 234.36793,29.788237 Z"
       id="path16842" />
    <rect
       style="fill:#004759;fill-opacity:1;stroke:none;stroke-width:2.204;stroke-dasharray:none;stroke-opacity:1;paint-order:markers stroke fill"
       id="rect6210"
       width="23.446344"
       height="39.989059"
       x="73.924858"
       y="124.59624"
       rx="4.3154178"
       ry="4.3154178" />
    <rect
       style="fill:#004759;fill-opacity:1;stroke:none;stroke-width:2.204;stroke-dasharray:none;stroke-opacity:1;paint-order:markers stroke fill"
       id="rect4827"
       width="23.446344"
       height="39.989059"
       x="124.46478"
       y="124.59624"
       rx="4.3154178"
       ry="4.3154178" />
    <path
       id="rect4831"
       style="fill:#004759;stroke-width:2.204;paint-order:markers stroke fill"
       d="M 57.981151,52.369152 C 93.297472,78.056838 120.2773,28.645712 155.59364,5.7369802 157.59936,4.4359212 168.19276,54.294412 168.24555,56.68457 l 1.56309,70.76541 c 0.0528,2.39015 -11.58435,22.01256 -17.8622,22.29096 l -82.242108,3.64718 c -2.38839,0.10592 -16.820143,-15.21093 -16.820143,-17.60167 -2.915971,-11.53937 3.256039,-84.582876 5.096962,-83.417298 z"
       sodipodi:nodetypes="cssssscc" />
    <rect
       style="fill:#004759;fill-opacity:1;stroke:#61dfff;stroke-width:2.204;stroke-dasharray:none;stroke-opacity:1;paint-order:markers stroke fill"
       id="rect6202"
       width="18.421185"
       height="35.184471"
       x="101.85202"
       y="63.387417"
       rx="9.2105923"
       ry="9.2105923" />
    <rect
       style="fill:#004759;fill-opacity:1;stroke:#61dfff;stroke-width:2.204;stroke-dasharray:none;stroke-opacity:1;paint-order:markers stroke fill"
       id="rect3249"
       width="18.421185"
       height="35.184471"
       x="139.62671"
       y="63.387417"
       rx="9.2105923"
       ry="9.2105923" />
    <path
       id="path4829"
       style="fill:#61dfff;fill-opacity:1;stroke:none;stroke-width:14.3782;paint-order:markers stroke fill"
       d="m 136.50307,139.28613 a 17.67799,23.236556 0 0 0 -16.40381,14.59029 h 32.8114 a 17.67799,23.236556 0 0 0 -16.40759,-14.59029 z" />
    <path
       id="path6204"
       style="fill:#61dfff;fill-opacity:1;stroke:none;stroke-width:14.4023;paint-order:markers stroke fill"
       d="m 111.06264,61.278897 c -6.40627,0 -11.624818,4.902719 -12.125618,11.175838 8.504348,2.35535 16.615108,2.50662 24.251258,0 -0.5008,-6.273119 -5.71937,-11.175838 -12.12564,-11.175838 z"
       sodipodi:nodetypes="sccs" />
    <rect
       style="fill:#004759;fill-opacity:1;stroke:#61dfff;stroke-width:2.204;stroke-dasharray:none;stroke-opacity:1;paint-order:markers stroke fill"
       id="rect6206"
       width="18.421185"
       height="35.184471"
       x="67.464035"
       y="63.387417"
       rx="9.2105923"
       ry="9.2105923" />
    <path
       id="path6212"
       style="fill:#61dfff;fill-opacity:1;stroke:none;stroke-width:14.3782;paint-order:markers stroke fill"
       d="m 85.963152,139.28613 a 17.67799,23.236556 0 0 0 -16.4038,14.59029 H 102.37074 A 17.67799,23.236556 0 0 0 85.963152,139.28613 Z" />
    <path
       style="fill:#61dfff;fill-opacity:1;stroke:none;stroke-width:10.904;paint-order:markers stroke fill"
       d="m 115.11229,86.556627 c -17.676818,-1.225719 -63.742049,-24.030123 -82.713528,-43.506 -4.057111,10.371213 0.74542,30.956491 9.045619,50.900531 8.3002,19.944042 20.09807,39.246832 30.031621,47.053092 19.03733,-8.94658 23.058778,-2.054 38.977038,7.13641 z"
       id="path236"
       sodipodi:nodetypes="ccsccc" />
    <path
       id="rect3251"
       style="fill:#61dfff;fill-opacity:1;stroke:none;stroke-width:14.4023;paint-order:markers stroke fill"
       d="m 148.83734,61.278897 c -6.40627,0 -11.62482,4.902719 -12.12562,11.175838 8.50435,2.35535 16.61511,2.50662 24.25125,0 -0.5008,-6.273119 -5.71936,-11.175838 -12.12563,-11.175838 z"
       sodipodi:nodetypes="sccs" />
    <path
       style="fill:#00a1ca;fill-opacity:1;stroke:none;stroke-width:10.904;paint-order:markers stroke fill"
       d="m 106.61268,86.556627 c 17.67683,-1.225719 63.61179,-24.030123 82.58327,-43.506 4.05711,10.371213 -0.74542,30.956491 -9.04562,50.900531 -8.3002,19.944042 -20.09807,39.246832 -30.03162,47.053092 -19.03733,-8.94658 -24.77372,-1.80836 -40.26653,7.13641 z"
       id="path4818"
       sodipodi:nodetypes="ccsccc" />
    <path
       id="path6208"
       style="fill:#61dfff;fill-opacity:1;stroke:none;stroke-width:14.4023;paint-order:markers stroke fill"
       d="m 76.674662,61.278897 c -6.40627,0 -11.62482,4.902719 -12.12562,11.175838 8.50435,2.35535 16.61511,2.50662 24.25125,0 -0.5008,-6.273119 -5.71936,-11.175838 -12.12563,-11.175838 z"
       sodipodi:nodetypes="sccs" />
    <path
       id="path2463"
       style="fill:#004759;fill-opacity:1;stroke:none;stroke-width:12.9347;paint-order:markers stroke fill"
       d="m 59.821321,90.04995 c -5.03662,-0.0028 -8.65374,0.204639 -8.65374,0.204639 2.31199,8.829004 8.82526,19.684601 15.297781,26.487271 13.2442,4.58255 25.73666,5.40534 37.018408,0.1757 0,0 -7.058558,-18.185457 -16.826358,-23.162922 -1.52622,-0.77773 -14.49465,-10.332125 -16.64089,-10.824895 -2.14624,-0.492781 6.52971,8.076058 4.0814,7.807694 -2.44831,-0.268365 -17.126144,-7.992348 -19.558574,-8.096839 -2.43242,-0.104492 7.380563,7.410509 5.281973,7.409352 z m 102.212889,0 c -8.39436,0.0046 -20.73173,0.593774 -26.8366,3.704688 -9.7678,4.977455 -16.82586,23.162922 -16.82586,23.162922 11.28176,5.22964 23.77423,4.40685 37.01842,-0.1757 6.47252,-6.80267 12.98579,-17.658267 15.29778,-26.487271 0,0 -3.61712,-0.207416 -8.65374,-0.204639 z m -58.06985,31.1981 c -1.46975,0.6033 -3.61939,1.09336 -6.159308,1.45056 0.11865,0.21971 0.23277,0.44556 0.34055,0.67851 l 3.416318,7.38456 c 0.54795,1.18433 0.87328,2.37566 0.98599,3.46749 2.99615,-0.0797 5.47107,-0.61917 6.93343,-1.88413 z m 13.92628,0 -5.51697,11.09699 c 1.46236,1.26496 3.93728,1.80443 6.93342,1.88413 0.11271,-1.09183 0.43804,-2.28316 0.98599,-3.46749 l 3.41634,-7.38456 c 0.10778,-0.23295 0.2219,-0.4588 0.34055,-0.67851 -2.53993,-0.3572 -4.68958,-0.84726 -6.15933,-1.45056 z m -59.159098,-3.58213 18.83288,12.60793 c 4.21397,0.91543 10.5984,2.47951 16.6579,3.3445 l -3.21117,-6.94066 c -0.52872,-1.14279 -0.84936,-2.29108 -0.97255,-3.35122 -5.98461,0.18433 -26.48776,-4.47016 -31.30706,-5.66055 z m 104.207708,0.18421 c -4.81929,1.19039 -25.13823,5.66067 -31.12283,5.47634 -0.12319,1.06014 -0.44383,2.20843 -0.97255,3.35122 l -3.21118,6.94066 c 6.05951,-0.86499 12.44394,-2.42907 16.6579,-3.3445 z"
       sodipodi:nodetypes="scccssssssscccscccccccccccccccccsccccsccc" />
  </g>
</svg>
