<?xml version="1.0" encoding="UTF-8" standalone="no"?>
<!-- Created with Inkscape (http://www.inkscape.org/) -->

<svg
   width="101.62109mm"
   height="101.6211mm"
   viewBox="0 0 101.62109 101.6211"
   version="1.1"
   id="svg69230"
   xml:space="preserve"
   inkscape:version="1.2.2 (b0a8486, 2022-12-01)"
   sodipodi:docname="All_puzzle.svg"
   xmlns:inkscape="http://www.inkscape.org/namespaces/inkscape"
   xmlns:sodipodi="http://sodipodi.sourceforge.net/DTD/sodipodi-0.dtd"
   xmlns="http://www.w3.org/2000/svg"
   xmlns:svg="http://www.w3.org/2000/svg"><sodipodi:namedview
     id="namedview69232"
     pagecolor="#ffffff"
     bordercolor="#000000"
     borderopacity="0.25"
     inkscape:showpageshadow="2"
     inkscape:pageopacity="0.0"
     inkscape:pagecheckerboard="0"
     inkscape:deskcolor="#d1d1d1"
     inkscape:document-units="mm"
     showgrid="false"
     showguides="true"
     inkscape:zoom="1.3430069"
     inkscape:cx="315.33717"
     inkscape:cy="682.79619"
     inkscape:window-width="1360"
     inkscape:window-height="699"
     inkscape:window-x="0"
     inkscape:window-y="32"
     inkscape:window-maximized="1"
     inkscape:current-layer="svg69230"><sodipodi:guide
       position="118.43545,109.61548"
       orientation="0,-1"
       id="guide31807"
       inkscape:locked="false" /><sodipodi:guide
       position="50.494629,42.245978"
       orientation="1,0"
       id="guide25880"
       inkscape:locked="false" /></sodipodi:namedview><defs
     id="defs69227"><linearGradient
       id="linearGradient8250"
       inkscape:swatch="solid"><stop
         style="stop-color:#9027ff;stop-opacity:1;"
         offset="0"
         id="stop8248" /></linearGradient></defs><rect
     style="fill:#04bf9d;fill-opacity:1;stroke:#253659;stroke-width:2.30039;stroke-linecap:round;stroke-linejoin:round;stroke-opacity:1;paint-order:markers stroke fill"
     id="rect1497"
     width="99.320702"
     height="99.320702"
     x="1.150195"
     y="1.1501954"
     rx="5.5467777"
     ry="5.5467777"
     inkscape:export-filename="veneza.svg"
     inkscape:export-xdpi="96"
     inkscape:export-ydpi="96" /><path
     id="rect32154"
     style="opacity:1;fill:#253659;fill-opacity:1;stroke:none;stroke-width:10.904;stroke-opacity:1;paint-order:markers stroke fill"
     d="M 41.016891,1.1501435 1.1500722,41.016964 v 31.69367 l 2.395204,-2.3952 -0.9084696,-2.47323 2.5853663,0.79633 L 72.710563,1.1501435 Z" /><path
     id="rect32158"
     style="opacity:1;fill:#253659;fill-opacity:1;stroke:none;stroke-width:10.904;stroke-opacity:1;paint-order:markers stroke fill"
     d="m 6.697023,1.1501435 c -1.2280847,0 -2.3566491,0.39965 -3.2737022,1.07022 l 0.056321,0.061 8.1235352,-1.1312 z m 7.190775,0 -5.0534373,8.9844705 0.4046263,0.83147 9.815938,-9.8159405 z" /><path
     id="rect32169"
     style="display:inline;opacity:1;fill:#253659;fill-opacity:1;stroke:none;stroke-width:10.904;stroke-opacity:1;paint-order:markers stroke fill"
     d="m 100.47114,54.962884 -11.059267,11.05927 2.257743,6.08594 8.801524,2.25257 z m 0,19.84788 -7.042457,5.57227 0.605646,9.50898 -7.932336,-5.27875 -8.856302,3.51452 2.569352,-9.17567 -1.510503,-1.82262 -23.341209,23.341196 31.693671,10e-6 13.814138,-13.814146 z" /><path
     id="rect32152"
     style="opacity:1;fill:#253659;fill-opacity:1;stroke:none;stroke-width:10.904;stroke-opacity:1;paint-order:markers stroke fill"
     d="m 97.790169,1.9500935 -74.855897,74.8559005 3.646295,2.4443 -8.754513,2.99361 -2.523869,8.90127 -2.87528,-3.83182 -10.4768829,10.47689 c 0.9694151,1.60684 2.7259744,2.680426 4.7470058,2.680446 H 30.963243 L 100.47114,30.962794 V 6.6970935 c 0,-2.02101 -1.074181,-3.77757 -2.680971,-4.747 z" /><path
     style="opacity:1;fill:#005e76;fill-opacity:1;stroke:none;stroke-width:10.904;stroke-opacity:1;paint-order:markers stroke fill"
     d="m 53.00351,44.894154 c 0,0 -1.352392,-21.15516 -6.278931,-26.0817 -4.926539,-4.92654 -8.690561,-6.16786 -14.296636,-6.47213 -5.606075,-0.30427 -13.064083,2.31284 -17.098013,5.60273 -4.03393,3.28989 -4.725089,6.71376 -6.5687248,11.49528 -1.8436354,4.78152 -3.2427155,10.54029 -3.7673576,17.09801 -0.5246421,6.55772 -2.1131155,17.3754 1.2557845,21.92796 l 7.1483209,9.65988 -2.414974,-8.8871 c -1.3783563,-5.07235 1.35173,-16.605 3.670761,-22.02456 2.31903,-5.41955 4.207792,-10.65035 7.824511,-10.43268 3.616719,0.21767 4.346951,7.53471 4.346951,7.53471"
     id="path13863"
     sodipodi:nodetypes="czzzzzscszzc" /><path
     style="opacity:1;fill:#005e76;fill-opacity:1;stroke:none;stroke-width:10.904;stroke-opacity:1;paint-order:markers stroke fill"
     d="m 47.418605,44.894154 c 0,0 1.352392,-21.15516 6.278931,-26.0817 4.926539,-4.92654 8.690561,-6.16786 14.296636,-6.47213 5.606075,-0.30427 13.064083,2.31284 17.098013,5.60273 4.03393,3.28989 4.725089,6.71376 6.568725,11.49528 1.843635,4.78152 3.242715,10.54029 3.767357,17.09801 0.524643,6.55772 2.113116,17.3754 -1.255784,21.92796 l -7.148321,9.65988 2.414974,-8.8871 c 1.378356,-5.07235 -1.35173,-16.605 -3.670761,-22.02456 -2.31903,-5.41955 -4.207792,-10.65035 -7.824511,-10.43268 -3.616719,0.21767 -4.346951,7.53471 -4.346951,7.53471"
     id="path21596"
     sodipodi:nodetypes="czzzzzscszzc" /><path
     style="opacity:1;fill:#005e76;fill-opacity:1;stroke:none;stroke-width:10.904;stroke-opacity:1;paint-order:markers stroke fill"
     d="m 29.159407,36.772534 c 0,0 -5.298931,11.33663 -6.324082,28.11675 -1.025149,16.7801 8.839073,34.78614 8.839073,34.78614 0,0 -0.05579,-12.13364 3.338875,-26.72774 3.394667,-14.59411 13.245978,-39.0821 13.245978,-39.0821 z"
     id="path30387"
     sodipodi:nodetypes="czczcc" /><path
     id="path13104"
     style="opacity:1;fill:#9aeba3;fill-opacity:1;stroke:none;stroke-width:10.904;stroke-opacity:1;paint-order:markers stroke fill"
     d="m 34.370786,30.460504 c -5.592166,0.0573 -10.671065,2.43329 -11.509891,10.48153 -0.951161,9.12605 -1.431205,13.22964 3.475757,26.15189 4.884158,12.8622 14.511188,25.63578 24.181469,25.95035 v 0.006 c 0.02255,-4.6e-4 0.04515,-0.002 0.0677,-0.003 0.02257,6e-4 0.04513,0.002 0.0677,0.003 v -0.006 c 9.670334,-0.31444 19.297286,-13.08808 24.18147,-25.95035 4.906961,-12.92225 4.426918,-17.02584 3.475757,-26.15189 -1.956035,-18.76745 -26.912956,-7.60574 -27.724923,-7.20852 -0.463763,-0.22688 -8.766984,-3.34929 -16.215031,-3.27301 z"
     sodipodi:nodetypes="ssscccccsscs" /><path
     id="path27346"
     style="opacity:1;fill:#04bf9d;fill-opacity:1;stroke:none;stroke-width:10.904;stroke-opacity:1;paint-order:markers stroke fill"
     d="m 30.948256,33.651524 c -0.321296,-0.002 -0.630703,0.0356 -0.926558,0.11782 -6.311578,1.75395 -4.371826,5.05447 -4.371826,5.05447 3.350089,-3.24666 14.512468,11.14518 23.224422,11.58482 0,0 -11.39301,-16.70927 -17.926038,-16.75711 z m 38.848792,0 c -6.533027,0.0478 -17.925521,16.75711 -17.925521,16.75711 8.711954,-0.43964 19.873816,-14.83148 23.223905,-11.58482 0,0 1.940269,-3.30052 -4.371309,-5.05447 -0.295855,-0.0822 -0.605779,-0.12018 -0.927075,-0.11782 z" /><path
     id="path13180"
     style="opacity:1;fill:#005e76;fill-opacity:1;stroke:none;stroke-width:10.904;stroke-opacity:1;paint-order:markers stroke fill"
     d="m 31.454685,40.507954 c -3.06184,-0.0323 -6.188179,0.70585 -9.515698,2.67942 0,0 -9.03e-4,9.20244 0.956531,13.93455 0.957434,4.73209 1.945082,14.79398 8.948291,15.16393 4.827942,-0.2632 11.954991,-1.76246 16.119946,-12.4318 0.827775,1.76819 2.387968,6.1588 2.387968,6.1588 l 0.234094,0.63045 0.234611,-0.632 c 0,0 1.56039,-4.38948 2.387968,-6.15725 4.164955,10.66934 11.292003,12.1686 16.119947,12.4318 7.003209,-0.36995 7.990857,-10.43184 8.948291,-15.16393 0.957434,-4.73211 0.956014,-13.93455 0.956014,-13.93455 -10.127168,-6.00647 -18.39024,-0.56772 -28.646314,3.19464 -6.886391,-2.52617 -12.874763,-5.8081 -19.131649,-5.87406 z"
     sodipodi:nodetypes="scscccccccsccs" /><path
     style="opacity:1;fill:#04bf9d;fill-opacity:1;stroke:none;stroke-width:14.7945;stroke-opacity:1;paint-order:markers stroke fill"
     d="m 45.571362,60.541734 c -0.507045,-6.31382 -8.005268,-8.99407 -12.325991,-8.06286 -4.320722,0.9312 -7.692163,0.0927 -7.692163,0.0927 2.393927,8.77983 10.521671,9.35437 20.018154,7.97019 z"
     id="path13807"
     sodipodi:nodetypes="czcc" /><path
     style="opacity:1;fill:#005e76;fill-opacity:1;stroke:none;stroke-width:10.904;stroke-opacity:1;paint-order:markers stroke fill"
     d="m 32.438279,11.726934 c -10.81975,4.51306 -21.548664,7.66098 -31.47699893,-1.22266 3.28956873,9.59725 6.23024823,19.68806 12.64353593,24.86641 z"
     id="path22328"
     sodipodi:nodetypes="cccc" /><path
     style="opacity:1;fill:#005e76;fill-opacity:1;stroke:none;stroke-width:10.904;stroke-opacity:1;paint-order:markers stroke fill"
     d="m 61.126346,61.214194 c 9.974248,6.16028 10.453055,14.68191 9.022702,27.92748 5.880218,-8.2675 7.036988,-21.73048 7.505843,-29.96005 z"
     id="path22384"
     sodipodi:nodetypes="cccc" /><path
     style="opacity:1;fill:#04bf9d;fill-opacity:1;stroke:none;stroke-width:15.4429;stroke-opacity:1;paint-order:markers stroke fill"
     d="m 55.161867,60.709804 c 0.529268,-6.59054 8.356117,-9.38826 12.866205,-8.41624 4.510087,0.97202 8.029289,0.0967 8.029289,0.0967 -2.498846,9.16464 -10.982807,9.76435 -20.895494,8.31951 z"
     id="path13109"
     sodipodi:nodetypes="czcc" /><path
     sodipodi:type="star"
     style="opacity:1;fill:#253659;fill-opacity:1;stroke:none;stroke-width:10.904;stroke-opacity:1;paint-order:markers stroke fill"
     id="path22386"
     inkscape:flatsided="false"
     sodipodi:sides="5"
     sodipodi:cx="86.991341"
     sodipodi:cy="186.81839"
     sodipodi:r1="11.292581"
     sodipodi:r2="5.6593261"
     sodipodi:arg1="1.0471976"
     sodipodi:arg2="1.6755161"
     inkscape:rounded="0"
     inkscape:randomized="0"
     d="m 92.63763,196.59805 -6.23785,-4.15134 -6.964651,2.7637 2.020555,-7.21538 -4.780629,-5.76975 7.486623,-0.30801 4.010059,-6.3296 2.606432,7.02502 7.258982,1.85784 -5.875759,4.64972 z"
     inkscape:transform-center-x="1.0959538e-06"
     inkscape:transform-center-y="-2.3536174e-06"
     transform="translate(-0.03796625,-109.55938)" /><path
     sodipodi:type="star"
     style="opacity:1;fill:#253659;fill-opacity:1;stroke:none;stroke-width:10.904;stroke-opacity:1;paint-order:markers stroke fill"
     id="path23375"
     inkscape:flatsided="false"
     sodipodi:sides="5"
     sodipodi:cx="86.991341"
     sodipodi:cy="186.81839"
     sodipodi:r1="11.292581"
     sodipodi:r2="5.6593261"
     sodipodi:arg1="1.0471976"
     sodipodi:arg2="1.6755161"
     inkscape:rounded="0"
     inkscape:randomized="0"
     d="m 92.63763,196.59805 -6.23785,-4.15134 -6.964651,2.7637 2.020555,-7.21538 -4.780629,-5.76975 7.486623,-0.30801 4.010059,-6.3296 2.606432,7.02502 7.258982,1.85784 -5.875759,4.64972 z"
     inkscape:transform-center-x="-0.99124423"
     inkscape:transform-center-y="1.1849217"
     transform="rotate(-52.524339,-61.185503,207.35314)" /><path
     id="path24105"
     style="opacity:1;fill:#253659;fill-opacity:1;stroke:none;stroke-width:10.904;stroke-opacity:1;paint-order:markers stroke fill"
     inkscape:transform-center-x="0.22785125"
     inkscape:transform-center-y="0.20515401"
     d="m 2.7215528,2.8254935 c -0.9721408,0.99823 -1.5714818,2.36169 -1.5714805,3.8716 l 3.1e-6,11.6530405 2.9869017,-2.87787 7.3463169,1.47537 -3.2762903,-6.73861 3.6731623,-6.5303505 -7.4212506,1.03353 z" /><path
     style="opacity:1;fill:#03a696;fill-opacity:1;stroke:none;stroke-width:15.0358;stroke-opacity:1;paint-order:markers stroke fill"
     d="m 41.994587,79.307864 c 0,0 2.358159,4.56944 8.503163,4.56944 6.145005,0 8.370118,-4.5334 8.370118,-4.5334 z"
     id="path24893"
     sodipodi:nodetypes="czcc" /><path
     style="opacity:1;fill:#03a696;fill-opacity:1;stroke:none;stroke-width:10.904;stroke-opacity:1;paint-order:markers stroke fill"
     d="m 50.383185,79.113334 c 0,0 2.07453,-1.33517 3.887505,-1.54558 1.812974,-0.21042 6.904807,2.30464 6.904807,2.30464 -3.542116,1.74039 -6.994903,2.07023 -10.792314,1.76826 z"
     id="path24107"
     sodipodi:nodetypes="czccc" /><path
     style="opacity:1;fill:#03a696;fill-opacity:1;stroke:none;stroke-width:10.904;stroke-opacity:1;paint-order:markers stroke fill"
     d="m 50.490098,79.113334 c 0,0 -2.07453,-1.33517 -3.887505,-1.54558 -1.812974,-0.21042 -6.904807,2.30464 -6.904807,2.30464 3.542116,1.74039 6.994903,2.07023 10.792314,1.76826 z"
     id="path24109"
     sodipodi:nodetypes="czccc" /><path
     style="opacity:1;fill:#03a696;fill-opacity:1;stroke:none;stroke-width:10.904;stroke-opacity:1;paint-order:markers stroke fill"
     d="m 50.447174,89.762744 c -2.052636,-0.0419 -2.97979,1.72038 -2.97979,1.72038 1.876272,-0.61248 3.757311,-1.09626 5.696869,0 0,0 -0.664443,-1.67844 -2.717079,-1.72038 z"
     id="path25882"
     sodipodi:nodetypes="zccz" /><circle
     style="opacity:1;fill:#03a696;fill-opacity:1;stroke:none;stroke-width:10.904;stroke-opacity:1;paint-order:markers stroke fill"
     id="path26614"
     cx="62.253998"
     cy="75.299004"
     r="3.0054448" /><circle
     style="opacity:1;fill:#03a696;fill-opacity:1;stroke:none;stroke-width:10.904;stroke-opacity:1;paint-order:markers stroke fill"
     id="path26616"
     cx="36.844261"
     cy="75.162392"
     r="3.1420543" /><path
     style="opacity:1;fill:#03a696;fill-opacity:1;stroke:none;stroke-width:16.3043;stroke-opacity:1;paint-order:markers stroke fill"
     d="m 50.584593,72.005614 c -2.020578,0.003 -3.030869,-5.24962 -3.030869,-5.24962 2.264632,1.25008 4.233623,1.02196 6.043847,0 0,0 -0.995375,5.24704 -3.012978,5.24962 z"
     id="path28199"
     sodipodi:nodetypes="sccs" /></svg>
