<?xml version="1.0" encoding="UTF-8" standalone="no"?>
<!-- Created with Inkscape (http://www.inkscape.org/) -->

<svg
   width="101.23798mm"
   height="101.238mm"
   viewBox="0 0 101.23798 101.238"
   version="1.1"
   id="svg69230"
   xml:space="preserve"
   inkscape:version="1.2.2 (b0a8486, 2022-12-01)"
   sodipodi:docname="All_puzzle.svg"
   xmlns:inkscape="http://www.inkscape.org/namespaces/inkscape"
   xmlns:sodipodi="http://sodipodi.sourceforge.net/DTD/sodipodi-0.dtd"
   xmlns="http://www.w3.org/2000/svg"
   xmlns:svg="http://www.w3.org/2000/svg"><sodipodi:namedview
     id="namedview69232"
     pagecolor="#ffffff"
     bordercolor="#000000"
     borderopacity="0.25"
     inkscape:showpageshadow="2"
     inkscape:pageopacity="0.0"
     inkscape:pagecheckerboard="0"
     inkscape:deskcolor="#d1d1d1"
     inkscape:document-units="mm"
     showgrid="false"
     showguides="false"
     inkscape:zoom="0.47482464"
     inkscape:cx="250.61884"
     inkscape:cy="400.14772"
     inkscape:window-width="1360"
     inkscape:window-height="699"
     inkscape:window-x="0"
     inkscape:window-y="32"
     inkscape:window-maximized="1"
     inkscape:current-layer="layer12"><sodipodi:guide
       position="-25.987592,80.617694"
       orientation="1,0"
       id="guide69718"
       inkscape:locked="false" /><sodipodi:guide
       position="-105.11329,21.134104"
       orientation="0,-1"
       id="guide69720"
       inkscape:locked="false" /><sodipodi:guide
       position="-86.028397,68.776694"
       orientation="1,0"
       id="guide69722"
       inkscape:locked="false" /><sodipodi:guide
       position="-65.968361,55.542644"
       orientation="1,0"
       id="guide69724"
       inkscape:locked="false" /><sodipodi:guide
       position="-46.04763,42.029974"
       orientation="1,0"
       id="guide69726"
       inkscape:locked="false" /><sodipodi:guide
       position="-75.447256,81.319294"
       orientation="0,-1"
       id="guide69728"
       inkscape:locked="false" /><sodipodi:guide
       position="-78.9238,61.114874"
       orientation="0,-1"
       id="guide69730"
       inkscape:locked="false" /><sodipodi:guide
       position="-75.859074,41.194144"
       orientation="0,-1"
       id="guide69732"
       inkscape:locked="false" /></sodipodi:namedview><defs
     id="defs69227"><linearGradient
       id="linearGradient8250"
       inkscape:swatch="solid"><stop
         style="stop-color:#9027ff;stop-opacity:1;"
         offset="0"
         id="stop8248" /></linearGradient></defs><g
     inkscape:groupmode="layer"
     id="layer12"
     inkscape:label="Mask"
     transform="translate(-106.08843,0.00305402)"><rect
       style="fill:#012030;fill-opacity:1;stroke:#9aeba3;stroke-width:2.29171;stroke-linecap:round;stroke-linejoin:round;stroke-opacity:1;paint-order:markers stroke fill"
       id="rect7073"
       width="98.946289"
       height="98.946289"
       x="107.23429"
       y="1.1428009"
       rx="5.5258679"
       ry="5.5258675"
       inkscape:export-filename="tropical.svg"
       inkscape:export-xdpi="96"
       inkscape:export-ydpi="96" /><g
       inkscape:groupmode="layer"
       id="layer13"
       inkscape:label="Folhas"><path
         style="opacity:1;fill:#9aeba3;fill-opacity:1;stroke-width:2.93171;stroke-linecap:round;stroke-linejoin:round;paint-order:markers stroke fill"
         d="m 110.88799,21.080578 c -0.78343,-0.412469 0.31705,-9.832853 4.44402,-13.4198553 3.6953,-3.2118083 15.00456,-8.7932865 12.65054,-4.7724499 -0.36556,0.6243688 2.31694,8.7954402 -5.56867,13.9963102 -5.24569,3.459724 -12.21716,5.298775 -11.52589,4.195995 z"
         id="path11239"
         sodipodi:nodetypes="csssc" /><path
         style="opacity:1;fill:#9aeba3;fill-opacity:1;stroke-width:2.93171;stroke-linecap:round;stroke-linejoin:round;paint-order:markers stroke fill"
         d="m 121.00842,57.927639 c -0.86345,0.195836 -6.15097,-7.677972 -5.34667,-13.086442 0.72017,-4.842766 5.68566,-16.435685 6.51064,-11.850057 0.12808,0.712076 7.47814,5.177404 4.86681,14.255557 -1.73713,6.038984 -5.83922,11.968299 -6.03078,10.680942 z"
         id="path17171"
         sodipodi:nodetypes="csssc" /><path
         style="opacity:1;fill:#9aeba3;fill-opacity:1;stroke-width:2.93171;stroke-linecap:round;stroke-linejoin:round;paint-order:markers stroke fill"
         d="m 152.857,92.426216 c -0.0921,0.880558 -9.24776,3.356269 -14.1106,0.856028 -4.35421,-2.238731 -13.73557,-10.667394 -9.12815,-9.974445 0.71547,0.107608 7.30657,-5.416859 15.06341,-0.02587 5.16003,3.586253 9.45594,9.376659 8.17534,9.14423 z"
         id="path17173"
         sodipodi:nodetypes="csssc" /><path
         style="opacity:1;fill:#9aeba3;fill-opacity:1;stroke-width:2.93171;stroke-linecap:round;stroke-linejoin:round;paint-order:markers stroke fill"
         d="m 178.18158,65.831649 c 0.2988,0.833434 -6.87795,7.034138 -12.34399,6.889658 -4.89434,-0.129389 -17.00257,-3.65683 -12.5503,-5.030167 0.69135,-0.213256 4.23528,-8.049254 13.56256,-6.554657 6.20471,0.994253 12.58646,4.349349 11.33173,4.695166 z"
         id="path17175"
         sodipodi:nodetypes="csssc" /><path
         style="opacity:1;fill:#9aeba3;fill-opacity:1;stroke-width:2.93171;stroke-linecap:round;stroke-linejoin:round;paint-order:markers stroke fill"
         d="m 178.18158,65.831649 c 0.2988,0.833434 -6.87795,7.034138 -12.34399,6.889658 -4.89434,-0.129389 -17.00257,-3.65683 -12.5503,-5.030167 0.69135,-0.213256 4.23528,-8.049254 13.56256,-6.554657 6.20471,0.994253 12.58646,4.349349 11.33173,4.695166 z"
         id="path17177"
         sodipodi:nodetypes="csssc" /><path
         style="opacity:1;fill:#9aeba3;fill-opacity:1;stroke-width:2.93171;stroke-linecap:round;stroke-linejoin:round;paint-order:markers stroke fill"
         d="m 178.80472,30.701929 c 0.11712,0.877609 -8.20217,5.432292 -13.51591,4.142761 -4.7579,-1.154667 -15.85494,-7.147015 -11.21354,-7.554404 0.72075,-0.06325 5.83173,-6.97992 14.6369,-3.559254 5.8574,2.275517 11.39194,6.896389 10.09255,6.970897 z"
         id="path17179"
         sodipodi:nodetypes="csssc" /><path
         style="opacity:1;fill:#9aeba3;fill-opacity:1;stroke-width:2.93171;stroke-linecap:round;stroke-linejoin:round;paint-order:markers stroke fill"
         d="m 153.75406,25.515229 c -0.41477,0.782204 -9.83184,-0.346141 -13.40665,-4.483701 -3.20088,-3.704797 -8.74887,-15.0305023 -4.73502,-12.6645961 0.62328,0.3673879 8.80228,-2.2909363 13.97977,5.6100301 3.44421,5.25591 5.26264,12.232801 4.1619,11.538267 z"
         id="path17181"
         sodipodi:nodetypes="csssc" /><path
         style="opacity:1;fill:#9aeba3;fill-opacity:1;stroke-width:2.93171;stroke-linecap:round;stroke-linejoin:round;paint-order:markers stroke fill"
         d="m 197.20457,86.077279 c -0.43548,0.770882 -9.81917,-0.607787 -13.28253,-4.839067 -3.10108,-3.788707 -8.34555,-15.258118 -4.39613,-12.78618 0.61326,0.383854 8.86014,-2.055758 13.82547,5.980256 3.30302,5.345759 4.93504,12.368587 3.85319,11.644991 z"
         id="path17183"
         sodipodi:nodetypes="csssc" /><path
         style="opacity:1;fill:#9aeba3;fill-opacity:1;stroke-width:2.93171;stroke-linecap:round;stroke-linejoin:round;paint-order:markers stroke fill"
         d="m 203.36875,21.940815 c -0.49247,0.735778 -9.74517,-1.347906 -12.87896,-5.828743 -2.80597,-4.012177 -7.16896,-15.84502873 -3.41757,-13.0817714 0.58254,0.4290917 8.99013,-1.3804896 13.33414,7.0076974 2.88971,5.580015 3.98648,12.706075 2.96239,11.902817 z"
         id="path17185"
         sodipodi:nodetypes="csssc" /><path
         style="opacity:1;fill:#9aeba3;fill-opacity:1;stroke-width:2.93171;stroke-linecap:round;stroke-linejoin:round;paint-order:markers stroke fill"
         d="m 185.84372,64.682411 c -0.75853,-0.456675 0.88008,-9.798497 5.20586,-13.143065 3.87333,-2.994715 15.48388,-7.918818 12.90328,-4.039522 -0.40074,0.602392 1.80905,8.913779 -6.36174,13.654133 -5.43536,3.153359 -12.50076,4.589825 -11.7474,3.528454 z"
         id="path17187"
         sodipodi:nodetypes="csssc" /><path
         style="opacity:1;fill:#9aeba3;fill-opacity:1;stroke-width:2.93171;stroke-linecap:round;stroke-linejoin:round;paint-order:markers stroke fill"
         d="m 157.97108,93.370029 c -0.75851,-0.456674 0.8801,-9.798503 5.20589,-13.143059 3.87332,-2.994717 15.48389,-7.918821 12.90329,-4.039522 -0.40073,0.602388 1.80903,8.913773 -6.36175,13.654126 -5.43537,3.153366 -12.50079,4.589829 -11.74743,3.528455 z"
         id="path17189"
         sodipodi:nodetypes="csssc" /><path
         style="opacity:1;fill:#9aeba3;fill-opacity:1;stroke-width:2.93171;stroke-linecap:round;stroke-linejoin:round;paint-order:markers stroke fill"
         d="m 129.2776,74.413999 c 0.67981,0.567257 -2.36735,9.548881 -7.15347,12.193001 -4.28555,2.367549 -16.5123,5.459255 -13.36907,2.01994 0.48807,-0.53406 -0.42543,-9.085533 8.37381,-12.521384 5.85351,-2.285589 13.05545,-2.625287 12.14873,-1.691557 z"
         id="path17206"
         sodipodi:nodetypes="csssc" /><path
         style="fill:#45c4b0;fill-opacity:1;stroke-width:2.93171;stroke-linecap:round;stroke-linejoin:round;paint-order:markers stroke fill"
         d="m 127.15241,30.856079 c -0.80698,0.364218 -7.55958,-6.295923 -7.85085,-11.756106 -0.26082,-4.889067 2.29111,-17.2397626 4.01468,-12.9110311 0.26764,0.6721829 8.36098,3.5807827 7.61396,12.9974661 -0.49694,6.264188 -3.33315,12.892893 -3.77779,11.669671 z"
         id="path17208"
         sodipodi:nodetypes="csssc" /><path
         style="fill:#45c4b0;fill-opacity:1;stroke-width:2.93171;stroke-linecap:round;stroke-linejoin:round;paint-order:markers stroke fill"
         d="m 142.71116,83.509285 c -0.37647,0.801337 -9.83711,0.12992 -13.60786,-3.829862 -3.37639,-3.545597 -9.4658,-14.589643 -5.34217,-12.42069 0.64033,0.336801 8.6811,-2.714096 14.23479,4.927135 3.69444,5.083121 5.8483,11.963881 4.71524,11.323417 z"
         id="path17210"
         sodipodi:nodetypes="csssc" /><path
         style="fill:#45c4b0;fill-opacity:1;stroke-width:2.93171;stroke-linecap:round;stroke-linejoin:round;paint-order:markers stroke fill"
         d="m 196.50934,84.331389 c 0.6378,0.614079 -3.03924,9.35673 -8.001,11.654411 -4.44279,2.057347 -16.8582,4.27327 -13.47875,1.065783 0.52475,-0.498066 0.22065,-9.092814 9.24157,-11.89535 6.00098,-1.864284 13.20888,-1.691869 12.23818,-0.824844 z"
         id="path17212"
         sodipodi:nodetypes="csssc" /><path
         style="fill:#45c4b0;fill-opacity:1;stroke-width:2.93171;stroke-linecap:round;stroke-linejoin:round;paint-order:markers stroke fill"
         d="m 184.09832,43.280591 c 0.84099,0.27682 1.31831,9.749233 -2.1565,13.971091 -3.11137,3.780255 -13.33817,11.160289 -11.68369,6.804686 0.25692,-0.676355 -3.74376,-8.28929 3.16996,-14.726102 4.59914,-4.281901 11.169,-7.251838 10.67023,-6.049675 z"
         id="path17214"
         sodipodi:nodetypes="csssc" /><path
         style="fill:#45c4b0;fill-opacity:1;stroke-width:2.93171;stroke-linecap:round;stroke-linejoin:round;paint-order:markers stroke fill"
         d="m 184.09832,43.280591 c 0.84099,0.27682 1.31831,9.749233 -2.1565,13.971091 -3.11137,3.780255 -13.33817,11.160289 -11.68369,6.804686 0.25692,-0.676355 -3.74376,-8.28929 3.16996,-14.726102 4.59914,-4.281901 11.169,-7.251838 10.67023,-6.049675 z"
         id="path17216"
         sodipodi:nodetypes="csssc" /><path
         style="fill:#45c4b0;fill-opacity:1;stroke-width:2.93171;stroke-linecap:round;stroke-linejoin:round;paint-order:markers stroke fill"
         d="m 156.28803,13.365224 c 0.76415,0.447258 -0.75915,9.80863 -5.04335,13.206311 -3.83605,3.042279 -15.385,8.109251 -12.85244,4.198405 0.39327,-0.607293 -1.91888,-8.89079 6.19278,-13.731578 5.39605,-3.220189 12.44322,-4.743694 11.70301,-3.673138 z"
         id="path17218"
         sodipodi:nodetypes="csssc" /><path
         style="fill:#45c4b0;fill-opacity:1;stroke-width:2.93171;stroke-linecap:round;stroke-linejoin:round;paint-order:markers stroke fill"
         d="m 138.42485,42.156683 c 0.36185,0.808066 -6.31826,7.540897 -11.7793,7.816046 -4.88979,0.246348 -17.2329,-2.342107 -12.89909,-4.052844 0.67298,-0.265654 3.60552,-8.350362 13.01993,-7.575491 6.2627,0.515475 12.88302,3.371265 11.65846,3.812289 z"
         id="path17220"
         sodipodi:nodetypes="csssc" /><path
         style="fill:#45c4b0;fill-opacity:1;stroke-width:2.93171;stroke-linecap:round;stroke-linejoin:round;paint-order:markers stroke fill"
         d="m 127.45121,64.143399 c 0.83847,0.284408 1.23005,9.760763 -2.28282,13.951 -3.14549,3.751968 -13.43864,11.039127 -11.74481,6.698696 0.26301,-0.674004 -3.66859,-8.322834 3.30307,-14.696828 4.63772,-4.240106 11.23422,-7.150475 10.72456,-5.952868 z"
         id="path17222"
         sodipodi:nodetypes="csssc" /><path
         style="fill:#45c4b0;fill-opacity:1;stroke-width:2.93171;stroke-linecap:round;stroke-linejoin:round;paint-order:markers stroke fill"
         d="m 161.45407,12.899276 c 0.68237,-0.564138 8.9522,4.079576 10.67306,9.269679 1.54085,4.647239 2.33616,17.233718 -0.46787,13.512717 -0.43542,-0.577815 -9.00931,-1.249217 -10.77194,-10.529584 -1.17251,-6.173495 -0.18476,-13.315485 0.56675,-12.252812 z"
         id="path17224"
         sodipodi:nodetypes="csssc" /><path
         style="fill:#45c4b0;fill-opacity:1;stroke-width:2.93171;stroke-linecap:round;stroke-linejoin:round;paint-order:markers stroke fill"
         d="m 191.8151,33.923426 c -0.82652,0.317388 -7.18626,-6.718844 -7.16414,-12.186741 0.0199,-4.895982 3.27549,-17.0801089 4.74812,-12.6597136 0.22867,0.6864213 8.14199,4.0541216 6.85647,13.4125176 -0.85517,6.225391 -4.06662,12.680648 -4.44045,11.433937 z"
         id="path17226"
         sodipodi:nodetypes="csssc" /><path
         style="fill:#45c4b0;fill-opacity:1;stroke-width:2.93171;stroke-linecap:round;stroke-linejoin:round;paint-order:markers stroke fill"
         d="m 193.38922,76.151655 c -0.82652,0.317385 -7.18626,-6.718847 -7.16412,-12.186745 0.0199,-4.895982 3.27547,-17.080105 4.7481,-12.659712 0.22867,0.686421 8.14198,4.054123 6.85647,13.412515 -0.85518,6.225394 -4.06661,12.680648 -4.44045,11.433942 z"
         id="path17228"
         sodipodi:nodetypes="csssc" /><path
         style="fill:#45c4b0;fill-opacity:1;stroke-width:2.93171;stroke-linecap:round;stroke-linejoin:round;paint-order:markers stroke fill"
         d="m 160.3083,73.595986 c 0.86532,-0.18731 6.07494,7.738256 5.21735,13.138531 -0.76789,4.835432 -5.84749,16.378823 -6.6272,11.785274 -0.12106,-0.713301 -7.42673,-5.250898 -4.72597,-14.302854 1.7966,-6.021559 5.95694,-11.91013 6.13582,-10.620951 z"
         id="path17230"
         sodipodi:nodetypes="csssc" /></g><path
       id="path14902"
       style="fill:#13678a;fill-opacity:1;stroke:none;stroke-width:6.45248;stroke-linecap:round;stroke-linejoin:round;stroke-dasharray:none;stroke-opacity:1;paint-order:markers stroke fill"
       d="m 141.8673,45.439523 c 0.10764,8.24e-4 0.21637,0.0094 0.32613,0.02617 1.99911,0.303384 3.13753,2.551384 4.72521,3.803533 2.51609,1.984402 6.92585,2.746731 7.60706,5.877958 0.3507,1.612073 -1.17581,3.177569 -2.30551,4.379912 -2.83331,3.015618 -7.38812,9.059203 -10.60316,6.454326 -1.17065,-0.948496 1.4453,-2.53459 0.72382,-3.857312 -0.26785,-0.491101 -0.77022,-0.907497 -1.22878,-1.320395 1.22964,-0.08048 2.7917,-0.533243 3.95861,-0.756986 1.37952,-0.264489 -0.82573,3.667723 -0.1262,3.071141 0.8488,-0.723886 6.72982,-4.680285 7.24375,-4.968553 0.51392,-0.288268 0.28555,-0.683905 0.009,-0.796917 0.36321,-0.726404 -5.19398,-8.233105 -10.20543,-8.438634 l -2.7813,3.242375 c 0,0 1.46442,-2.017115 0.38593,-2.090582 -1.07851,-0.07347 -3.18932,2.213532 -3.18932,2.213532 -0.33678,0.218634 1.85193,-2.360358 0.41592,-2.840883 -1.4131,-0.472858 -3.46875,-0.417828 -3.83928,-0.362736 -0.37051,0.05508 1.24484,1.636847 0.88767,1.700341 -0.35716,0.06347 -3.01254,-1.565116 -3.24635,-1.816315 -1.59694,-1.715692 1.02036,2.164207 0.71412,2.241835 -2.44982,0.621025 -3.29962,1.439799 -1.53028,2.227015 0.15152,0.06747 -3.86479,2.399839 -2.26586,5.905455 0.1785,0.39152 1.52153,-2.931559 2.49037,-3.438179 0.47645,-0.249146 -0.39447,1.602494 0.27903,3.568975 -0.27597,-0.299292 -0.60559,-0.441509 -1.01585,-0.337453 -1.4273,0.362024 1.3215,3.7139 -0.12805,3.972412 -2.52081,0.449535 -3.52319,-4.239541 -3.57247,-6.799627 -0.0358,-1.872748 1.79318,-3.306496 2.42059,-5.071384 0.43696,-1.229183 -0.12351,-3.022894 0.92167,-3.803537 0.61639,-0.460372 1.53622,0.103283 2.30548,0.115096 1.99791,0.03068 4.03393,0.277675 5.99305,-0.115096 1.63294,-0.327368 3.01646,-1.99764 4.63017,-1.985476 z m -9.81323,11.849498 c 0.009,0.0014 0.0168,0.0057 0.0235,0.01316 0.5135,0.549058 1.11713,1.090051 1.81806,1.578268 -0.52004,0.182854 -0.98667,0.453678 -1.37159,0.823136 -1.29921,1.246952 3.13709,4.176458 1.48588,4.894962 -1.77861,0.773927 -2.38688,-3.440718 -3.58735,-5.002212 0.32097,-0.149114 1.3808,-2.34511 1.63146,-2.307233 z"
       sodipodi:nodetypes="ssssssscssscccscsssccccscsssssssssccsscscc" /><ellipse
       style="fill:#45c4b0;fill-opacity:1;stroke:#13678a;stroke-width:6.45248;stroke-linecap:round;stroke-linejoin:round;stroke-dasharray:none;stroke-opacity:1;paint-order:markers stroke fill"
       id="path12750"
       cx="174.73"
       cy="53.443218"
       rx="5.1928058"
       ry="5.1928053" /><path
       style="fill:#13678a;fill-opacity:1;stroke:none;stroke-width:8.04845;stroke-linecap:round;stroke-linejoin:round;stroke-dasharray:none;stroke-opacity:1;paint-order:markers stroke fill"
       d="m 117.87531,41.012528 c 0,0 -6.54895,15.803834 -3.24266,29.090747 3.30629,13.286912 13.1545,21.031832 14.48386,20.699496 -0.78973,-0.823415 -2.35513,-2.758258 -2.31918,-3.878357 1.17967,1.891538 10.23559,5.233021 12.09396,5.820119 -1.24567,-1.1164 -7.26743,-5.102324 -7.68704,-6.67766 2.7252,1.914171 11.69934,5.952038 14.92835,6.347618 l -7.73034,-5.730278 c -0.93999,-0.696779 1.66608,-0.616643 1.30398,-0.673322 C 138.25777,85.78417 131.06563,82.680082 126.83669,72.695597 122.60774,62.711105 121.2848,45.48438 121.2848,45.48438 Z"
       id="path14905"
       sodipodi:nodetypes="czcccccsszcc" /><path
       style="fill:#13678a;fill-opacity:1;stroke:none;stroke-width:8.04845;stroke-linecap:round;stroke-linejoin:round;stroke-dasharray:none;stroke-opacity:1;paint-order:markers stroke fill"
       d="m 196.2435,52.014473 c 0,0 2.45134,-16.930469 -4.02804,-28.99244 C 185.7361,10.96006 174.2827,5.8816076 173.07628,6.531361 c 0.96831,0.6033445 2.96234,2.0926326 3.2036,3.1870352 -1.60952,-1.5424023 -11.20965,-2.5485768 -13.15541,-2.6594818 1.48243,0.7748949 8.3009,3.1535276 9.09584,4.5768316 -3.11293,-1.183377 -12.80544,-2.8846101 -16.03235,-2.472066 l 8.90428,3.648013 c 1.08272,0.443585 -1.4627,1.008293 -1.09779,0.973967 1.45968,-0.137311 9.195,1.098201 15.75458,9.732224 6.55954,8.634022 12.08791,25.003119 12.08791,25.003119 z"
       id="path16312"
       sodipodi:nodetypes="czcccccsszcc" /><path
       style="fill:#9aeba3;fill-opacity:1;stroke:none;stroke-width:9.41782;stroke-linecap:round;stroke-linejoin:round;stroke-dasharray:none;stroke-opacity:1;paint-order:markers stroke fill"
       d="m 117.42765,44.202307 c 0,0 0.13741,20.017198 9.75168,32.833647 9.61426,12.816454 23.75646,16.680196 25.03801,15.716637 -1.22614,-0.527951 -3.79461,-1.900699 -4.26588,-3.124441 2.1329,1.501729 13.41591,0.979769 15.68643,0.766353 -1.85112,-0.636117 -10.15705,-2.190463 -11.32669,-3.697454 3.80915,0.822326 15.3211,1.088258 18.98182,0.04429 l -10.94195,-2.656572 c -1.33052,-0.323022 1.5151,-1.42336 1.09895,-1.319554 -1.66455,0.415194 -10.83046,0.344338 -19.93548,-8.492273 -9.10499,-8.836597 -18.37551,-26.802931 -18.37551,-26.802931 z"
       id="path15758"
       sodipodi:nodetypes="czcccccsszcc" /><path
       style="fill:#9aeba3;fill-opacity:1;stroke:none;stroke-width:9.41782;stroke-linecap:round;stroke-linejoin:round;stroke-dasharray:none;stroke-opacity:1;paint-order:markers stroke fill"
       d="m 195.89107,48.812762 c 0,0 -5.06723,-19.365691 -17.54397,-29.416866 -12.47674,-10.0511636 -27.13499,-10.3097668 -28.1395,-9.06004 1.31845,0.209419 4.14604,0.906713 4.90442,1.976529 -2.43726,-0.929657 -13.24346,2.357351 -15.39131,3.123852 1.95078,0.160213 10.38359,-0.380748 11.88859,0.791446 -3.89432,0.141958 -15.11663,2.721832 -18.40706,4.635938 l 11.25915,-0.122486 c 1.36907,-0.01486 -1.11751,1.752902 -0.73977,1.549729 1.51083,-0.812687 10.41141,-3.003333 21.41361,3.316323 11.00223,6.319659 24.41522,21.446545 24.41522,21.446545 z"
       id="path16314"
       sodipodi:nodetypes="czcccccsszcc" /><path
       id="path14686"
       style="fill:#13678a;fill-opacity:1;stroke:none;stroke-width:6.45248;stroke-linecap:round;stroke-linejoin:round;stroke-dasharray:none;stroke-opacity:1;paint-order:markers stroke fill"
       d="m 173.75079,45.439523 c -0.10765,8.24e-4 -0.21634,0.0094 -0.3261,0.02617 -1.99914,0.303384 -3.13756,2.551384 -4.72523,3.803533 -2.5161,1.984402 -6.92587,2.746731 -7.60707,5.877958 -0.35073,1.612073 1.17584,3.177569 2.3055,4.379912 2.83331,3.015618 7.38815,9.059203 10.60316,6.454326 1.17066,-0.948496 -1.44525,-2.53459 -0.72379,-3.857312 0.26785,-0.491101 0.7702,-0.907497 1.22878,-1.320395 -1.22967,-0.08048 -2.79166,-0.533243 -3.95865,-0.756986 -1.37948,-0.264489 0.82574,3.667723 0.12623,3.071141 -0.84881,-0.723886 -6.72984,-4.680285 -7.24375,-4.968553 -0.51391,-0.288268 -0.28556,-0.683905 -0.01,-0.796917 -0.3632,-0.726404 5.19395,-8.233105 10.20543,-8.438634 l 2.78129,3.242375 c 0,0 -1.46444,-2.017115 -0.38592,-2.090582 1.07854,-0.07347 3.18931,2.213532 3.18931,2.213532 0.33677,0.218634 -1.85193,-2.360358 -0.41594,-2.840883 1.41308,-0.472858 3.46878,-0.417828 3.83929,-0.362736 0.37053,0.05508 -1.24483,1.636847 -0.88767,1.700341 0.35718,0.06347 3.01256,-1.565116 3.24636,-1.816315 1.59694,-1.715692 -1.02035,2.164207 -0.71417,2.241835 2.44987,0.621025 3.29967,1.439799 1.53033,2.227015 -0.15151,0.06747 3.86477,2.399839 2.26583,5.905455 -0.17847,0.39152 -1.52152,-2.931559 -2.49031,-3.438179 -0.47649,-0.249146 0.39443,1.602494 -0.27905,3.568975 0.27598,-0.299292 0.60557,-0.441509 1.01581,-0.337453 1.42733,0.362024 -1.32146,3.7139 0.12809,3.972412 2.52077,0.449535 3.52318,-4.239541 3.57246,-6.799627 0.0359,-1.872748 -1.79316,-3.306496 -2.42059,-5.071384 -0.437,-1.229183 0.1235,-3.022894 -0.92167,-3.803537 -0.61641,-0.460372 -1.53625,0.103283 -2.30549,0.115096 -1.99791,0.03068 -4.03391,0.277675 -5.99306,-0.115096 -1.63292,-0.327368 -3.01645,-1.99764 -4.63016,-1.985476 z m 9.81323,11.849498 c -0.009,0.0014 -0.0168,0.0057 -0.0235,0.01316 -0.51351,0.549058 -1.1171,1.090051 -1.81805,1.578268 0.52005,0.182854 0.98665,0.453678 1.37161,0.823136 1.29921,1.246952 -3.13713,4.176458 -1.4859,4.894962 1.77858,0.773927 2.38692,-3.440718 3.58734,-5.002212 -0.32096,-0.149114 -1.38076,-2.34511 -1.63143,-2.307233 z"
       sodipodi:nodetypes="ssssssscssscccscsssccccscsssssssssccsscscc" /><path
       id="path8944"
       style="fill:#9aeba3;fill-opacity:1;stroke-width:2.32443;stroke-linecap:round;stroke-linejoin:round;paint-order:markers stroke fill"
       d="m 116.88085,40.629842 c 0,0 0.13746,21.764148 16.84473,26.060593 14.94114,3.842264 22.60179,-4.55563 24.05857,-6.378467 V 44.059303 c -8.63561,-4.251683 -18.76844,-1.333548 -27.0311,0.731584 -8.28779,2.071394 -13.8722,-4.161045 -13.8722,-4.161045 z m 81.8563,0 c 0,0 -5.58445,6.232439 -13.87222,4.161045 -8.2627,-2.065132 -18.39549,-4.983267 -27.03107,-0.731584 v 16.252665 c 1.45673,1.822837 9.11737,10.220731 24.05853,6.378467 16.70723,-4.296445 16.84476,-26.060593 16.84476,-26.060593 z m -68.69388,5.559685 c 0.05,-0.0097 0.20106,0.115166 0.5005,0.43686 0.23379,0.2512 2.88917,1.879808 3.24633,1.816315 0.3572,-0.06347 -1.2582,-1.645267 -0.88767,-1.700345 0.37051,-0.0551 2.42708,-0.11012 3.84016,0.36274 1.43602,0.480528 -0.75271,3.059514 -0.41593,2.840883 0,0 2.35445,-2.368496 3.43297,-2.295029 1.07848,0.07346 -0.63044,2.17208 -0.63044,2.17208 l 2.57754,-1.938391 c 5.01146,0.205528 10.85389,6.897236 10.49068,7.623642 0.27626,0.113013 0.0971,0.345654 -0.41677,0.633923 -0.51395,0.288266 -5.98661,4.407663 -6.83541,5.131546 -0.69951,0.596584 2.07533,-3.49863 0.69584,-3.234139 -1.37148,0.262952 -2.83799,0.450589 -4.27788,0.507488 -4.32909,0.171027 -7.08663,-1.624591 -8.83742,-3.496604 -0.21888,-0.234 -1.5786,2.681441 -1.73349,2.26102 -0.73827,-2.002749 0.17398,-3.920824 -0.31041,-3.667509 -0.96887,0.506623 -2.31185,3.829703 -2.49036,3.438181 -1.59891,-3.505616 1.88762,-5.919491 1.73608,-5.986949 -1.76934,-0.787219 -0.91867,-1.605993 1.53117,-2.227016 0.24882,-0.06307 -1.43285,-2.636344 -1.21549,-2.678696 z m 55.53146,0 c 0.21735,0.04235 -1.46346,2.615624 -1.21468,2.678696 2.44986,0.621023 3.29968,1.439797 1.53032,2.227016 -0.15152,0.06747 3.33504,2.481333 1.73611,5.986949 -0.17849,0.391522 -1.52152,-2.931558 -2.49036,-3.438181 -0.48444,-0.253315 0.42786,1.66476 -0.31042,3.667509 -0.15491,0.420421 -1.51461,-2.49502 -1.73348,-2.26102 -1.75078,1.872013 -4.50836,3.667631 -8.8374,3.496604 -1.4399,-0.0569 -2.90648,-0.244536 -4.27791,-0.507488 -1.37949,-0.264491 1.39622,3.830723 0.69671,3.234139 -0.84881,-0.723883 -6.32236,-4.84328 -6.83624,-5.131546 -0.51394,-0.288269 -0.69307,-0.52091 -0.41683,-0.633923 -0.36317,-0.726406 5.4792,-7.418114 10.49068,-7.623642 l 2.57756,1.938391 c 0,0 -1.70892,-2.098612 -0.63043,-2.17208 1.07855,-0.07347 3.4338,2.295029 3.4338,2.295029 0.33681,0.218631 -1.85191,-2.360355 -0.41593,-2.840883 1.41309,-0.47286 3.46879,-0.417828 3.83929,-0.36274 0.37053,0.05508 -1.24481,1.636851 -0.88766,1.700345 0.35717,0.06348 3.01255,-1.565115 3.24637,-1.816315 0.29942,-0.321694 0.45034,-0.446631 0.5005,-0.43686 z" /><path
       style="fill:#13678a;fill-opacity:1;stroke-width:2.32443;stroke-linecap:round;stroke-linejoin:round;paint-order:markers stroke fill"
       d="m 157.84849,56.902692 v -5e-6 c 0,0 6.51362,6.870465 21.64588,4.323267 15.13229,-2.547196 18.51637,-17.863437 18.51637,-17.863437 -1.30108,6.875829 -6.54704,21.840649 -21.65843,21.368227 -15.1114,-0.472428 -18.50382,-7.645958 -18.50382,-7.828047 z"
       id="path9783"
       sodipodi:nodetypes="cczczsc" /><path
       style="fill:#13678a;fill-opacity:1;stroke-width:2.32443;stroke-linecap:round;stroke-linejoin:round;paint-order:markers stroke fill"
       d="m 157.79252,56.902692 v -5e-6 c 0,0 -6.51365,6.870465 -21.64588,4.323267 -15.13229,-2.547196 -18.51642,-17.863437 -18.51642,-17.863437 1.30107,6.875829 6.54707,21.840649 21.65847,21.368227 15.11141,-0.472428 18.50383,-7.645958 18.50383,-7.828047 z"
       id="path11968"
       sodipodi:nodetypes="cczczsc" /><path
       style="fill:#13678a;fill-opacity:1;stroke-width:2.32443;stroke-linecap:round;stroke-linejoin:round;paint-order:markers stroke fill"
       d="m 157.84849,60.162652 v -5e-6 c 0,0 6.51362,6.870461 21.64588,4.323268 15.13229,-2.547196 18.51637,-17.863435 18.51637,-17.863435 -1.30108,6.875824 -6.54704,21.840647 -21.65843,21.368222 -15.1114,-0.472426 -18.50382,-7.645957 -18.50382,-7.828045 z"
       id="path13688"
       sodipodi:nodetypes="cczczsc" /><path
       style="fill:#13678a;fill-opacity:1;stroke-width:2.32443;stroke-linecap:round;stroke-linejoin:round;paint-order:markers stroke fill"
       d="m 157.79252,60.162652 v -5e-6 c 0,0 -6.51365,6.870461 -21.64588,4.323268 -15.13229,-2.547196 -18.51642,-17.863435 -18.51642,-17.863435 1.30107,6.875824 6.54707,21.840647 21.65847,21.368222 15.11141,-0.472426 18.50383,-7.645957 18.50383,-7.828045 z"
       id="path13690"
       sodipodi:nodetypes="cczczsc" /><path
       style="fill:#012030;fill-opacity:1;stroke:none;stroke-width:6.45248;stroke-linecap:round;stroke-linejoin:round;stroke-dasharray:none;stroke-opacity:1;paint-order:markers stroke fill"
       d="m 157.80826,55.562044 -3.99257,9.564029 h 7.57851 z"
       id="path17042"
       sodipodi:nodetypes="cccc" /></g></svg>
