<?xml version="1.0" encoding="UTF-8" standalone="no"?>
<!-- Created with Inkscape (http://www.inkscape.org/) -->

<svg
   width="75.565918mm"
   height="83.053818mm"
   viewBox="0 0 75.565918 83.053818"
   version="1.1"
   id="svg808"
   xmlns:inkscape="http://www.inkscape.org/namespaces/inkscape"
   xmlns:sodipodi="http://sodipodi.sourceforge.net/DTD/sodipodi-0.dtd"
   xmlns="http://www.w3.org/2000/svg"
   xmlns:svg="http://www.w3.org/2000/svg">
  <sodipodi:namedview
     id="namedview810"
     pagecolor="#ffffff"
     bordercolor="#000000"
     borderopacity="0.25"
     inkscape:showpageshadow="2"
     inkscape:pageopacity="0.0"
     inkscape:pagecheckerboard="0"
     inkscape:deskcolor="#d1d1d1"
     inkscape:document-units="mm"
     showgrid="false" />
  <defs
     id="defs805" />
  <g
     inkscape:label="Layer 1"
     inkscape:groupmode="layer"
     id="layer1"
     transform="translate(-8.7005045,-134.88218)">
    <path
       id="path13104"
       style="fill:#61dfff;fill-opacity:1;stroke:none;stroke-width:14.3815;stroke-opacity:1;paint-order:markers stroke fill"
       d="m 25.097084,135.38482 c -7.37562,0.0756 -14.0743,3.20932 -15.1806497,13.82433 -1.25451,12.03655 -1.88764,17.44887 4.5842597,34.49232 6.44183,16.96425 19.13914,33.81163 31.89349,34.22652 v 0.008 c 0.0297,-6e-4 0.0595,-0.003 0.0893,-0.004 0.0298,7.9e-4 0.0595,0.003 0.0893,0.004 v -0.008 c 12.75442,-0.41472 25.45163,-17.26218 31.8935,-34.22652 6.4719,-17.04345 5.83876,-22.45577 4.58424,-34.49232 -2.57985,-24.75282 -35.49611,-10.03138 -36.56703,-9.50748 -0.61167,-0.29924 -11.56297,-4.41746 -21.38638,-4.31685 z"
       sodipodi:nodetypes="ssscccccsscs" />
    <path
       id="path13180"
       style="fill:#00a1ca;fill-opacity:1;stroke:none;stroke-width:14.3815;stroke-opacity:1;paint-order:markers stroke fill"
       d="m 21.250974,148.63663 c -4.03833,-0.0426 -8.16173,0.93096 -12.5504697,3.53395 0,0 -0.001,12.13731 1.26159,18.37859 1.2627897,6.24127 2.5654197,19.51212 11.8020997,20.00006 6.3677,-0.34714 15.76772,-2.32455 21.26097,-16.39659 1.09178,2.33211 3.14955,8.12298 3.14955,8.12298 l 0.30875,0.83152 0.30943,-0.83356 c 0,0 2.05803,-5.78938 3.14955,-8.12094 5.49325,14.07204 14.89328,16.04945 21.26097,16.39659 9.2367,-0.48794 10.53933,-13.75879 11.80211,-20.00006 1.26277,-6.24128 1.2609,-18.37859 1.2609,-18.37859 -13.35694,-7.92207 -24.25532,-0.74878 -37.78228,4.21348 -9.08261,-3.33182 -16.98081,-7.66043 -25.23317,-7.74743 z"
       sodipodi:nodetypes="scscccccccsccs" />
    <path
       id="path13807"
       style="fill:#004759;fill-opacity:1;stroke:none;stroke-width:19.5128;stroke-opacity:1;paint-order:markers stroke fill"
       d="m 67.079894,163.93316 c -5.97042,-0.0338 -13.95031,3.74232 -14.56111,11.34816 13.07407,1.90564 24.2636,1.11482 27.55939,-10.97263 0,0 -4.64115,1.15457 -10.58959,-0.12741 -0.74356,-0.16025 -1.55577,-0.24327 -2.40869,-0.24809 z m -41.16014,0.2549 c -0.81711,0.005 -1.59479,0.0836 -2.30713,0.23719 -5.69869,1.22818 -10.1452,0.12265 -10.1452,0.12265 3.15741,11.57991 13.87695,12.33751 26.40206,10.5119 -0.58515,-7.28651 -8.22999,-10.90408 -13.94973,-10.87176 z" />
    <path
       style="fill:#00a1ca;fill-opacity:1;stroke:none;stroke-width:14.3815;stroke-opacity:1;paint-order:markers stroke fill"
       d="m 60.385614,175.94656 c 13.15526,8.12494 13.78678,19.36431 11.90024,36.83419 7.75556,-10.90419 9.28125,-28.66082 9.89964,-39.51499 z"
       id="path22384"
       sodipodi:nodetypes="cccc" />
    <path
       id="path24893"
       style="fill:#004759;fill-opacity:1;stroke:none;stroke-width:19.8311;stroke-opacity:1;paint-order:markers stroke fill"
       d="m 42.484684,183.25573 c 0,0 1.33243,6.92804 3.99742,6.92408 2.66106,-0.004 3.97357,-6.92408 3.97357,-6.92408 -2.38755,1.34789 -4.98412,1.64875 -7.97099,0 z m -14.12558,6.94317 c -2.28861,9e-5 -4.14388,1.85535 -4.14397,4.14396 -2.9e-4,2.28888 1.85509,4.14456 4.14397,4.14465 2.28914,2.8e-4 4.14492,-1.85551 4.14463,-4.14465 -9e-5,-2.28887 -1.85576,-4.14424 -4.14463,-4.14396 z m 33.51358,0.36055 c -2.18929,-4e-5 -3.96407,1.77473 -3.96403,3.96402 -5e-5,2.1893 1.77473,3.96408 3.96403,3.96404 2.1893,5e-5 3.96409,-1.77474 3.96404,-3.96404 4e-5,-2.18929 -1.77475,-3.96407 -3.96404,-3.96402 z m -21.00674,6.94045 c -2.64238,0.0422 -8.74321,1.30548 -8.74321,1.30548 1.70349,0.83699 3.39144,3.17636 5.09135,3.56845 1.74943,1.64075 4.69595,3.46374 9.15351,3.46374 4.50724,0 7.41471,-1.84938 9.10853,-3.49101 1.66035,-0.39196 3.30974,-2.7234 4.97413,-3.54118 0,0 -6.71534,-1.56733 -9.1065,-1.2898 -2.21877,0.25751 -4.70602,1.77431 -5.05726,1.99428 -0.35215,-0.22053 -2.83832,-1.73684 -5.05659,-1.99428 -0.11211,-0.0132 -0.23401,-0.0178 -0.36396,-0.0157 z m 5.30877,16.09942 c -2.61937,0.0177 -3.80454,2.26964 -3.80454,2.26964 2.47466,-0.80781 4.95621,-1.44588 7.51434,0 0,0 -0.87645,-2.21363 -3.58371,-2.26895 -0.0423,-8.6e-4 -0.0845,-9.6e-4 -0.12609,-6.9e-4 z"
       sodipodi:nodetypes="csccccccccccccsccsccsccsssccss" />
  </g>
</svg>
