<?xml version="1.0" encoding="UTF-8" standalone="no"?>
<!-- Created with Inkscape (http://www.inkscape.org/) -->

<svg
   width="210mm"
   height="297mm"
   viewBox="0 0 210 297"
   version="1.1"
   id="svg1259"
   inkscape:version="1.2.2 (b0a8486, 2022-12-01)"
   sodipodi:docname="Others.svg"
   xmlns:inkscape="http://www.inkscape.org/namespaces/inkscape"
   xmlns:sodipodi="http://sodipodi.sourceforge.net/DTD/sodipodi-0.dtd"
   xmlns="http://www.w3.org/2000/svg"
   xmlns:svg="http://www.w3.org/2000/svg">
  <sodipodi:namedview
     id="namedview1261"
     pagecolor="#175f4d"
     bordercolor="#000000"
     borderopacity="0.25"
     inkscape:showpageshadow="2"
     inkscape:pageopacity="0"
     inkscape:pagecheckerboard="0"
     inkscape:deskcolor="#d1d1d1"
     inkscape:document-units="mm"
     showgrid="false"
     inkscape:zoom="0.48947917"
     inkscape:cx="389.18919"
     inkscape:cy="541.39178"
     inkscape:window-width="1360"
     inkscape:window-height="699"
     inkscape:window-x="0"
     inkscape:window-y="32"
     inkscape:window-maximized="1"
     inkscape:current-layer="layer1"
     showguides="true" />
  <defs
     id="defs1256" />
  <g
     inkscape:label="Layer 1"
     inkscape:groupmode="layer"
     id="layer1">
    <path
       id="path9439"
       style="opacity:1;fill:#13678a;fill-opacity:1;stroke:none;stroke-width:2.784;stroke-linecap:round;stroke-linejoin:round;stroke-dasharray:2.784, 22.272;stroke-dashoffset:0;stroke-opacity:1;paint-order:markers stroke fill"
       d="m 162.89066,3.3992758 -3.73052,3.7305215 9.85935,9.8593457 -9.85935,9.859864 3.73052,3.730522 9.85935,-9.859347 9.85935,9.859347 3.73104,-3.730522 -9.85987,-9.859863 9.85987,-9.8593467 -3.73104,-3.7305222 -9.85935,9.8593469 z"
       inkscape:export-filename="Others/Pista.svg"
       inkscape:export-xdpi="96"
       inkscape:export-ydpi="96" />
    <path
       id="rect1445"
       style="fill:#586f7a;fill-opacity:1;stroke-width:3.824;stroke-linecap:round;stroke-linejoin:round;paint-order:markers stroke fill"
       d="m 0.24959717,27.373839 v 45.329529 l 280.31993283,0 V 27.373839 Z"
       inkscape:export-filename="Others/Pista.svg"
       inkscape:export-xdpi="96"
       inkscape:export-ydpi="96"
       sodipodi:nodetypes="ccccc" />
    <rect
       style="fill:none;fill-opacity:1;stroke:#d3e3c7;stroke-width:2.784;stroke-linecap:round;stroke-linejoin:round;stroke-dasharray:2.784, 22.272;stroke-dashoffset:0;stroke-opacity:1;paint-order:markers stroke fill"
       id="rect7088"
       width="274.74988"
       height="0.35404152"
       x="4.7687969"
       y="57.854073"
       rx="4.8316393"
       ry="0" />
    <path
       id="rect9365"
       style="opacity:1;fill:#13678a;fill-opacity:1;stroke:none;stroke-width:2.784;stroke-linecap:round;stroke-linejoin:round;stroke-dasharray:2.784, 22.272;stroke-dashoffset:0;stroke-opacity:1;paint-order:markers stroke fill"
       d="M 25.349784 -20.542482 L 25.349784 -15.266728 L 39.293005 -15.266728 L 39.293371 -1.3231408 L 44.569125 -1.3231408 L 44.569125 -15.266362 L 58.512347 -15.266362 L 58.512712 -20.542482 L 44.56876 -20.542482 L 44.569125 -34.486069 L 39.293005 -34.485704 L 39.293005 -20.542482 L 25.349784 -20.542482 z "
       transform="rotate(45)" />
    <g
       id="g6807"
       transform="translate(-2.8656682,-49.546667)">
      <g
         id="g3047"
         transform="translate(-4.9497915,37.25364)">
        <path
           id="rect5983"
           style="fill:#45c4b0;stroke-width:3.824;stroke-linecap:round;stroke-linejoin:round;paint-order:markers stroke fill;fill-opacity:1"
           transform="rotate(-90)"
           d="m -43.385801,33.885212 h 26.392731 c 1.814265,0 3.274847,1.401362 3.274847,3.142067 0,1.740705 -1.460582,3.142067 -3.274847,3.142067 h -26.392731 c -1.814265,0 -3.274847,-1.401362 -3.274847,-3.142067 0,-1.740705 1.460582,-3.142067 3.274847,-3.142067 z"
           sodipodi:nodetypes="sssssss" />
        <path
           id="rect3059"
           style="fill:#45c4b0;stroke-width:3.824;stroke-linecap:round;stroke-linejoin:round;paint-order:markers stroke fill;fill-opacity:1"
           transform="rotate(-90)"
           d="m -43.518581,84.162209 h 26.658291 c 1.740705,0 3.142067,1.401361 3.142067,3.142067 0,1.740705 -1.401362,3.142066 -3.142067,3.142066 h -26.658291 c -1.740705,0 -3.142067,-1.401361 -3.142067,-3.142066 0,-1.740706 1.401362,-3.142067 3.142067,-3.142067 z"
           sodipodi:nodetypes="sssssss" />
        <path
           id="rect3061"
           style="fill:#45c4b0;stroke-width:3.824;stroke-linecap:round;stroke-linejoin:round;paint-order:markers stroke fill;fill-opacity:1"
           transform="rotate(-90)"
           d="m -43.518581,137.23578 h 26.658291 c 1.740705,0 3.142067,1.40136 3.142067,3.14207 0,1.7407 -1.401362,3.14206 -3.142067,3.14206 h -26.658291 c -1.740705,0 -3.142067,-1.40136 -3.142067,-3.14206 0,-1.74071 1.401362,-3.14207 3.142067,-3.14207 z"
           sodipodi:nodetypes="sssssss" />
        <path
           id="rect3069"
           style="fill:#45c4b0;stroke-width:3.824;stroke-linecap:round;stroke-linejoin:round;paint-order:markers stroke fill;fill-opacity:1"
           transform="rotate(-90)"
           d="m -43.385801,189.67314 h 26.392731 c 1.814265,0 3.274847,1.40136 3.274847,3.14207 0,1.7407 -1.460582,3.14207 -3.274847,3.14207 h -26.392731 c -1.814265,0 -3.274847,-1.40137 -3.274847,-3.14207 0,-1.74071 1.460582,-3.14207 3.274847,-3.14207 z"
           sodipodi:nodetypes="sssssss" />
        <path
           id="path7366"
           style="fill:#45c4b0;stroke-width:3.824;stroke-linecap:round;stroke-linejoin:round;paint-order:markers stroke fill;fill-opacity:1"
           d="m 285.94349,13.718062 c -1.74071,0 -3.14245,1.401741 -3.14245,3.142444 v 26.658321 c 0,1.740704 1.40174,3.141927 3.14245,3.141927 0.8953,0 1.69888,-0.372517 2.27014,-0.969449 V 14.687512 c -0.57126,-0.596932 -1.37484,-0.96945 -2.27014,-0.96945 z" />
        <path
           id="path7374"
           style="fill:#45c4b0;stroke-width:3.824;stroke-linecap:round;stroke-linejoin:round;paint-order:markers stroke fill;fill-opacity:1"
           d="M 237.97136,43.385801 V 16.99307 c 0,-1.814265 1.40136,-3.274847 3.14207,-3.274847 1.7407,0 3.14207,1.460582 3.14207,3.274847 v 26.392731 c 0,1.814265 -1.40137,3.274847 -3.14207,3.274847 -1.74071,0 -3.14207,-1.460582 -3.14207,-3.274847 z"
           sodipodi:nodetypes="sssssss" />
        <path
           id="rect5457"
           style="fill:#9aeba3;stroke-width:3.824;stroke-linecap:round;stroke-linejoin:round;paint-order:markers stroke fill;fill-opacity:1"
           d="m 8.0650569,12.898474 v 6.284371 l 280.1443031,0 v -6.284371 z"
           sodipodi:nodetypes="ccccc" />
        <path
           id="rect5979"
           style="fill:#45c4b0;stroke-width:3.824;stroke-linecap:round;stroke-linejoin:round;paint-order:markers stroke fill;fill-opacity:1"
           d="m -13.718062,9.9310928 c 0,-0.7010211 -0.230272,-1.3444546 -0.615467,-1.8660359 h -31.711759 c -0.385195,0.5215813 -0.615466,1.1650148 -0.615466,1.8660359 0,1.7407032 1.401223,3.1424442 3.141927,3.1424442 h 26.658321 c 1.740703,0 3.142444,-1.401741 3.142444,-3.1424442 z"
           transform="rotate(-90)" />
        <path
           id="rect5981"
           style="fill:#45c4b0;stroke-width:3.824;stroke-linecap:round;stroke-linejoin:round;paint-order:markers stroke fill;fill-opacity:1"
           transform="rotate(-90)"
           d="m -43.518581,59.862827 h 26.658291 c 1.740705,0 3.142067,1.401362 3.142067,3.142067 0,1.740705 -1.401362,3.142067 -3.142067,3.142067 h -26.658291 c -1.740705,0 -3.142067,-1.401362 -3.142067,-3.142067 0,-1.740705 1.401362,-3.142067 3.142067,-3.142067 z"
           sodipodi:nodetypes="sssssss" />
        <path
           id="rect3063"
           style="fill:#45c4b0;stroke-width:3.824;stroke-linecap:round;stroke-linejoin:round;paint-order:markers stroke fill;fill-opacity:1"
           transform="rotate(-90)"
           d="m -43.385801,111.25816 h 26.392731 c 1.814265,0 3.274847,1.40137 3.274847,3.14207 0,1.74071 -1.460582,3.14207 -3.274847,3.14207 h -26.392731 c -1.814265,0 -3.274847,-1.40136 -3.274847,-3.14207 0,-1.7407 1.460582,-3.14207 3.274847,-3.14207 z"
           sodipodi:nodetypes="sssssss" />
        <path
           id="rect3065"
           style="fill:#45c4b0;stroke-width:3.824;stroke-linecap:round;stroke-linejoin:round;paint-order:markers stroke fill;fill-opacity:1"
           transform="rotate(-90)"
           d="m -43.518581,164.14029 h 26.658291 c 1.740705,0 3.142067,1.40136 3.142067,3.14207 0,1.7407 -1.401362,3.14206 -3.142067,3.14206 h -26.658291 c -1.740705,0 -3.142067,-1.40136 -3.142067,-3.14206 0,-1.74071 1.401362,-3.14207 3.142067,-3.14207 z"
           sodipodi:nodetypes="sssssss" />
        <path
           id="path7372"
           style="fill:#45c4b0;stroke-width:3.824;stroke-linecap:round;stroke-linejoin:round;paint-order:markers stroke fill;fill-opacity:1"
           d="M 213.27956,43.385801 V 16.99307 c 0,-1.814265 1.40136,-3.274847 3.14207,-3.274847 1.7407,0 3.14207,1.460582 3.14207,3.274847 v 26.392731 c 0,1.814265 -1.40137,3.274847 -3.14207,3.274847 -1.74071,0 -3.14207,-1.460582 -3.14207,-3.274847 z"
           sodipodi:nodetypes="sssssss" />
        <path
           id="path7376"
           style="fill:#45c4b0;stroke-width:3.824;stroke-linecap:round;stroke-linejoin:round;paint-order:markers stroke fill;fill-opacity:1"
           d="M 261.84911,43.385801 V 16.99307 c 0,-1.814265 1.40136,-3.274847 3.14207,-3.274847 1.7407,0 3.14207,1.460582 3.14207,3.274847 v 26.392731 c 0,1.814265 -1.40137,3.274847 -3.14207,3.274847 -1.74071,0 -3.14207,-1.460582 -3.14207,-3.274847 z"
           sodipodi:nodetypes="sssssss" />
      </g>
      <path
         id="rect6303"
         style="fill:#d9f7dc;stroke-width:2.784;stroke-linecap:round;stroke-linejoin:round;stroke-dasharray:2.784, 22.272;paint-order:markers stroke fill;fill-opacity:1"
         d="M 6.8905609,50.810462 H 49.811939 c 0.867452,0 1.565798,0.575108 1.565798,1.289481 0,0.714372 -0.698346,1.28948 -1.565798,1.28948 H 6.8905609 c -0.8674523,0 -1.5657983,-0.575108 -1.5657983,-1.28948 0,-0.714373 0.698346,-1.289481 1.5657983,-1.289481 z" />
      <path
         id="rect6792"
         style="fill:#d9f7dc;stroke-width:2.784;stroke-linecap:round;stroke-linejoin:round;stroke-dasharray:2.784, 22.272;paint-order:markers stroke fill;fill-opacity:1"
         d="M 56.811986,50.810462 H 63.2594 c 0.867452,0 1.565798,0.575108 1.565798,1.289481 0,0.714372 -0.698346,1.28948 -1.565798,1.28948 h -6.447414 c -0.867452,0 -1.565798,-0.575108 -1.565798,-1.28948 0,-0.714373 0.698346,-1.289481 1.565798,-1.289481 z" />
    </g>
    <rect
       style="fill:none;fill-opacity:1;stroke:#d3e3c7;stroke-width:2.784;stroke-linecap:round;stroke-linejoin:round;stroke-dasharray:2.784, 22.272;stroke-dashoffset:0;stroke-opacity:1;paint-order:markers stroke fill"
       id="rect2677"
       width="274.76175"
       height="0.35405686"
       x="4.7687969"
       y="44.567795"
       rx="4.8316393"
       ry="0" />
    <path
       id="rect6811"
       style="opacity:0.555402;fill:#2e3435;fill-opacity:1;stroke-width:2.784;stroke-linecap:round;stroke-linejoin:round;stroke-dasharray:2.784, 22.272;paint-order:markers stroke fill"
       d="M 0.24959717,32.833454 V 62.117813 L 260.4674,52.372313 280.56953,36.332982 v -3.499528 z"
       sodipodi:nodetypes="cccccc" />
    <path
       id="rect6809"
       style="fill:#13678a;fill-opacity:1;stroke:none;stroke-width:2.784;stroke-linecap:round;stroke-linejoin:round;stroke-dasharray:2.784, 22.272;stroke-dashoffset:0;stroke-opacity:1;paint-order:markers stroke fill"
       d="m 0.24959717,26.581122 v 7.815544 l 280.35045283,0 v -7.815544 z"
       sodipodi:nodetypes="ccccc" />
    <rect
       style="opacity:1;fill:#d9f7dc;fill-opacity:1;stroke:none;stroke-width:2.784;stroke-linecap:round;stroke-linejoin:round;stroke-dasharray:2.784, 22.272;stroke-dashoffset:0;stroke-opacity:1;paint-order:markers stroke fill"
       id="rect7624"
       width="278.33926"
       height="1.6720424"
       x="1.0992757"
       y="4.9769158"
       rx="0.83602118"
       ry="0.83602118" />
    <rect
       style="opacity:1;fill:#9aeba3;fill-opacity:1;stroke:none;stroke-width:2.784;stroke-linecap:round;stroke-linejoin:round;stroke-dasharray:2.784, 22.272;stroke-dashoffset:0;stroke-opacity:1;paint-order:markers stroke fill"
       id="rect8872"
       width="280.68051"
       height="3.1142597"
       x="-0.053008977"
       y="31.540812"
       rx="0"
       ry="0" />
    <circle
       style="fill:#9aeba3;fill-opacity:1;stroke:none;stroke-width:2.03016;stroke-linecap:round;stroke-linejoin:round;stroke-dasharray:2.03016, 16.2413;paint-order:markers stroke fill"
       id="path257"
       cx="53.778687"
       cy="129.87894"
       r="35.259964"
       inkscape:export-filename="Others/Ball.svg"
       inkscape:export-xdpi="96"
       inkscape:export-ydpi="96" />
    <path
       id="path2321"
       style="fill:#9aeba3;fill-opacity:1;stroke:none;stroke-width:2.10892;stroke-linecap:square;stroke-linejoin:round;stroke-dasharray:0, 23.198;stroke-dashoffset:0;stroke-opacity:1;paint-order:markers stroke fill"
       d="m 38.329134,74.557084 7.804292,18.566 11.796503,-0.33086 2.799144,-14.899003 -8.000247,9.218182 z m 40.201334,4.26391 -4.734574,11.72679 -6.650419,3.97261 6.933044,3.44166 6.837328,-7.88758 z m -66.408457,10.71347 7.218688,12.804916 2.476573,6.17786 11.683828,-11.429076 -9.365528,-2.10351 z m 85.304573,2.18566 -12.524551,7.69501 -5.693635,2.127236 9.734454,12.59841 3.489132,-10.21077 z m -95.0499518,20.877136 8.6016788,8.65895 -13.5834624,13.43311 19.0916874,-6.4115 0.541138,-11.78859 z m 107.7960778,2.09219 -19.419151,6.5645 0.774399,11.7754 16.153112,4.1697 -9.512121,-7.64791 z m -91.934636,25.20059 -15.0617938,1.71951 11.1675618,4.92526 -7.7481439,17.46225 15.4378779,-12.93342 z m 72.631548,2.56513 -8.742622,13.80957 9.598038,-0.10664 12.945102,2.54176 -9.969591,-10.80203 z m -65.933649,11.95704 -1.250721,9.51701 -4.344553,12.45597 12.10174,-8.34392 5.929529,-3.02337 z m 53.290766,4.96709 -16.369416,8.78896 8.501817,4.45572 12.319554,7.60042 -3.658334,-14.23689 z m -36.474795,6.30636 -6.559977,13.66637 10.113548,-6.83318 10.659963,15.85352 -2.733575,-19.95351 z" />
    <circle
       style="fill:#ffffff;fill-opacity:1;stroke:none;stroke-width:2.892;stroke-linecap:square;stroke-linejoin:round;stroke-dasharray:0, 31.8119;stroke-dashoffset:0;stroke-opacity:1;paint-order:markers stroke fill"
       id="path3233"
       cx="-23.95359"
       cy="250.11032"
       r="27.034405"
       transform="rotate(-13.341713)"
       inkscape:export-filename="Others/Cloud/cloud_0.svg"
       inkscape:export-xdpi="96"
       inkscape:export-ydpi="96" />
    <circle
       style="fill:#ffffff;fill-opacity:1;stroke:none;stroke-width:2.27371;stroke-linecap:square;stroke-linejoin:round;stroke-dasharray:0, 25.0107;stroke-dashoffset:0;stroke-opacity:1;paint-order:markers stroke fill"
       id="path3339"
       cx="-3.0025136"
       cy="262.65454"
       r="21.365158"
       transform="rotate(-13.341713)" />
    <circle
       style="fill:#ffffff;fill-opacity:1;stroke:none;stroke-width:2.04996;stroke-linecap:square;stroke-linejoin:round;stroke-dasharray:0, 22.5495;stroke-dashoffset:0;stroke-opacity:1;paint-order:markers stroke fill"
       id="circle3341"
       cx="55.436684"
       cy="274.33157"
       r="19.163013"
       transform="rotate(-13.341713)"
       inkscape:export-filename="Others/Cloud/cloud_1.svg"
       inkscape:export-xdpi="96"
       inkscape:export-ydpi="96" />
    <circle
       style="fill:#ffffff;fill-opacity:1;stroke:none;stroke-width:2.63271;stroke-linecap:square;stroke-linejoin:round;stroke-dasharray:0, 28.9597;stroke-dashoffset:0;stroke-opacity:1;paint-order:markers stroke fill"
       id="circle3343"
       cx="79.674553"
       cy="273.01672"
       r="24.738588"
       transform="rotate(-13.341713)" />
    <circle
       style="fill:#ffffff;fill-opacity:1;stroke:none;stroke-width:2.04996;stroke-linecap:square;stroke-linejoin:round;stroke-dasharray:0, 22.5495;stroke-dashoffset:0;stroke-opacity:1;paint-order:markers stroke fill"
       id="circle3345"
       cx="98.164085"
       cy="289.08743"
       r="19.163013"
       transform="rotate(-13.341713)" />
    <circle
       style="fill:#ffffff;fill-opacity:1;stroke:none;stroke-width:2.04996;stroke-linecap:square;stroke-linejoin:round;stroke-dasharray:0, 22.5495;stroke-dashoffset:0;stroke-opacity:1;paint-order:markers stroke fill"
       id="circle3347"
       cx="150.61478"
       cy="303.45267"
       r="19.163013"
       transform="rotate(-13.341713)"
       inkscape:export-filename="Others/Cloud/cloud_2.svg"
       inkscape:export-xdpi="96"
       inkscape:export-ydpi="96" />
    <circle
       style="fill:#ffffff;fill-opacity:1;stroke:none;stroke-width:2.63271;stroke-linecap:square;stroke-linejoin:round;stroke-dasharray:0, 28.9597;stroke-dashoffset:0;stroke-opacity:1;paint-order:markers stroke fill"
       id="circle3349"
       cx="174.85265"
       cy="302.13782"
       r="24.738588"
       transform="rotate(-13.341713)" />
    <circle
       style="fill:#ffffff;fill-opacity:1;stroke:none;stroke-width:2.45093;stroke-linecap:square;stroke-linejoin:round;stroke-dasharray:0, 26.9602;stroke-dashoffset:0;stroke-opacity:1;paint-order:markers stroke fill"
       id="circle3351"
       cx="195.50453"
       cy="309.09079"
       r="22.911299"
       transform="rotate(-13.341713)" />
    <circle
       style="fill:#ffffff;fill-opacity:1;stroke:none;stroke-width:2.04996;stroke-linecap:square;stroke-linejoin:round;stroke-dasharray:0, 22.5495;stroke-dashoffset:0;stroke-opacity:1;paint-order:markers stroke fill"
       id="circle3353"
       cx="211.07034"
       cy="318.17545"
       r="19.163013"
       transform="rotate(-13.341713)" />
  </g>
</svg>
