<?xml version="1.0" encoding="UTF-8" standalone="no"?>
<!-- Created with Inkscape (http://www.inkscape.org/) -->

<svg
   width="78.14579mm"
   height="60.715103mm"
   viewBox="0 0 78.14579 60.715103"
   version="1.1"
   id="svg5"
   inkscape:version="1.2.2 (b0a8486, 2022-12-01)"
   sodipodi:docname="All_persons.svg"
   xml:space="preserve"
   xmlns:inkscape="http://www.inkscape.org/namespaces/inkscape"
   xmlns:sodipodi="http://sodipodi.sourceforge.net/DTD/sodipodi-0.dtd"
   xmlns="http://www.w3.org/2000/svg"
   xmlns:svg="http://www.w3.org/2000/svg"><sodipodi:namedview
     id="namedview7"
     pagecolor="#fbf3d6"
     bordercolor="#000000"
     borderopacity="0.25"
     inkscape:showpageshadow="2"
     inkscape:pageopacity="0"
     inkscape:pagecheckerboard="0"
     inkscape:deskcolor="#d1d1d1"
     inkscape:document-units="mm"
     showgrid="false"
     inkscape:zoom="0.67150345"
     inkscape:cx="515.26169"
     inkscape:cy="351.45017"
     inkscape:window-width="1360"
     inkscape:window-height="699"
     inkscape:window-x="0"
     inkscape:window-y="32"
     inkscape:window-maximized="1"
     inkscape:current-layer="layer5"
     showguides="false"><sodipodi:guide
       position="29.258615,100.63952"
       orientation="0,-1"
       id="guide15826"
       inkscape:locked="false" /></sodipodi:namedview><defs
     id="defs2" /><g
     inkscape:groupmode="layer"
     id="layer10"
     inkscape:label="Torcida"
     transform="translate(1.9729842,-235.01176)"><path
       id="path2194"
       style="fill:#4f004f;fill-opacity:1;stroke-width:1.133;stroke-linecap:round;stroke-linejoin:round;paint-order:markers stroke fill"
       d="m 13.943993,241.44492 c -1.456455,0.0291 -3.094338,0.98544 -3.9671997,2.08514 -1.222591,1.54033 -1.635042,4.23645 -0.54622,5.87406 0.9249947,1.39122 3.2613147,0.8101 4.7816197,1.50276 7.050221,3.21211 19.80861,12.15843 19.80861,12.15843 v 30.32786 L 51.23371,293.93939 48.638,263.74847 c 0,0 17.411146,-7.04447 21.311356,-14.75414 0.719753,-1.42276 0.618293,-3.3771 -0.13643,-4.78162 -0.71162,-1.32433 -2.18569,-2.55863 -3.68866,-2.59519 -1.616566,-0.0393 -3.522816,1.08407 -4.098456,2.59519 -0.35404,0.9294 1.15606,1.93299 0.82011,2.86908 -1.72315,4.80138 -10.52008,8.87838 -14.39912,10.47429 a 7.6502457,7.6502457 0 0 0 0.60099,-2.96054 7.6502457,7.6502457 0 0 0 -7.65018,-7.65018 7.6502457,7.6502457 0 0 0 -7.650175,7.65018 7.6502457,7.6502457 0 0 0 0.815971,3.42976 c -3.507965,-1.73249 -14.659686,-7.52894 -18.438668,-12.99248 -0.640831,-0.9265 0.167412,-2.73678 -0.820105,-3.27887 -0.410254,-0.22521 -0.875155,-0.31874 -1.36064,-0.30903 z"
       inkscape:export-filename="Background/back_0.svg"
       inkscape:export-xdpi="96"
       inkscape:export-ydpi="96" /><path
       id="path1523"
       style="fill:#680068;fill-opacity:1;stroke-width:1.133;stroke-linecap:round;stroke-linejoin:round;paint-order:markers stroke fill"
       d="m 19.081242,241.36433 a 9.1529675,9.1529675 0 0 0 -9.1529297,9.15293 9.1529675,9.1529675 0 0 0 2.5109577,6.29316 c -1.384882,1.97198 -2.291098,4.43712 -3.0985187,6.66471 -1.335626,3.68485 -1.456242,11.66802 -1.456242,11.66802 0,0 -4.424457,-9.64635 -2.794145,-14.1795 0.309752,-0.86128 1.753765,-0.90226 2.124935,-1.73891 0.522963,-1.1788 0.7411,-2.97503 -0.193269,-3.86385 -1.866413,-1.77542 -5.730191,-1.62652 -7.72769395,0 -1.47885905,1.20421 -1.33780605,3.70403 -1.15910305,5.60276 0.90099105,9.57304 11.012248,26.66142 11.012248,26.66142 l 3.2840367,-11.39878 -0.579292,17.38757 16.228467,-0.96584 -0.38654,-19.12648 4.250387,8.40414 c 0,0 8.963016,-14.80354 7.72821,-22.70094 -0.38401,-2.45601 -1.971983,-5.72426 -4.443656,-5.9893 -1.361341,-0.14598 -2.656329,1.40653 -3.091285,2.70475 -0.501548,1.49698 0.911892,3.05909 0.96635,4.63692 0.118564,3.43523 -1.402499,10.21592 -1.402499,10.21592 0,0 -1.524574,-6.87786 -3.041158,-10.02265 -0.726846,-1.50719 -1.402657,-3.22208 -2.362646,-4.62814 a 9.1529675,9.1529675 0 0 0 1.936316,-5.62498 9.1529675,9.1529675 0 0 0 -9.15293,-9.15293 z" /><path
       id="path2305"
       style="fill:#901290;fill-opacity:1;stroke-width:1.133;stroke-linecap:round;stroke-linejoin:round;paint-order:markers stroke fill"
       d="m 55.408192,247.1714 c -4.52709,-1.3e-4 -8.19705,3.66983 -8.19692,8.19692 10e-4,2.90295 1.53766,5.58877 4.03955,7.06107 l -2.94659,3.04787 -12.4318,2.04949 c 0,0 -2.98997,-7.21783 -1.50275,-10.38283 0.40857,-0.86948 2.06551,-0.62647 2.45928,-1.50275 0.73957,-1.64581 0.57217,-4.36934 -0.95653,-5.32784 -2.00327,-1.25606 -5.40179,0.0291 -6.83059,1.91306 -1.34828,1.77777 -0.30551,4.48345 0,6.69365 0.71261,5.1553 4.2354,15.02751 4.2354,15.02751 l 15.98352,-4.6452 -1.36633,25.68319 19.12545,-0.95653 c 0,0 -2.1878,-6.58765 -0.91674,-9.5064 1.68759,-3.87523 10.069667,-7.7065 10.069667,-7.7065 l -11.748637,-14.89057 -3.13521,-0.85473 c 1.48331,-1.52787 2.31379,-3.57303 2.31562,-5.70249 1.3e-4,-4.52688 -3.66951,-8.19675 -8.19639,-8.19692 z m 9.01598,19.94556 5.73815,9.01598 c 0,0 -2.83962,4.07848 -4.54959,3.30884 -3.76368,-1.69399 -1.18856,-12.32482 -1.18856,-12.32482 z"
       sodipodi:nodetypes="sccccaaaaaccccaccccsccac" /><path
       id="path4337"
       style="fill:#c631c6;fill-opacity:1;stroke-width:1.133;stroke-linecap:round;stroke-linejoin:round;paint-order:markers stroke fill"
       d="m 46.397911,235.48147 c -1.54588,-0.8933 -3.81506,-0.40124 -5.32836,0.54622 -0.95327,0.59683 -1.91834,1.75348 -1.7756,2.86907 0.17577,1.37371 2.67286,1.5242 3.0055,2.86856 1.89195,7.64631 -7.51375,22.40432 -7.51375,22.40432 l -0.0336,10e-4 c 0.29166,-0.83478 0.44152,-1.71248 0.44338,-2.59674 4e-5,-4.37607 -3.54747,-7.92359 -7.923538,-7.92355 -4.37607,-4e-5 -7.92359,3.54748 -7.92355,7.92355 0.002,3.10535 1.81768,5.92333 4.64468,7.20835 l -0.54622,0.98857 -5.87406,2.45876 c 0,0 4.20203,-11.04576 0.95601,-14.75414 -1.32276,-1.51117 -4.25019,-1.37565 -6.011,-0.40979 -1.00051,0.54881 -1.85526,1.885 -1.63918,3.0055 0.25724,1.33391 2.60354,1.34846 3.14193,2.59571 1.93521,4.48313 -0.95602,14.61771 -0.95602,14.61771 l 10.10895,-1.50275 -3.55172,19.39881 18.579228,0.54622 -1.36633,-20.49177 c 0,0 12.43037,-22.39184 11.88558,-34.56275 -0.0848,-1.89367 -0.68109,-4.24248 -2.32234,-5.19089 z"
       sodipodi:nodetypes="aaaaccccccccaaaacccccaa" /><path
       id="path4753"
       style="fill:#646464;fill-opacity:1;stroke-width:1.133;stroke-linecap:round;stroke-linejoin:round;paint-order:markers stroke fill"
       d="m 13.943993,241.44492 c -1.456455,0.0291 -3.094338,0.98544 -3.9671997,2.08514 -1.222591,1.54033 -1.635042,4.23645 -0.54622,5.87406 0.9249947,1.39122 3.2613147,0.8101 4.7816197,1.50276 7.050221,3.21211 19.80861,12.15843 19.80861,12.15843 v 30.32786 L 51.23371,293.93939 48.638,263.74847 c 0,0 17.411146,-7.04447 21.311356,-14.75414 0.719753,-1.42276 0.618293,-3.3771 -0.13643,-4.78162 -0.71162,-1.32433 -2.18569,-2.55863 -3.68866,-2.59519 -1.616566,-0.0393 -3.522816,1.08407 -4.098456,2.59519 -0.35404,0.9294 1.15606,1.93299 0.82011,2.86908 -1.72315,4.80138 -10.52008,8.87838 -14.39912,10.47429 a 7.6502457,7.6502457 0 0 0 0.60099,-2.96054 7.6502457,7.6502457 0 0 0 -7.65018,-7.65018 7.6502457,7.6502457 0 0 0 -7.650175,7.65018 7.6502457,7.6502457 0 0 0 0.815971,3.42976 c -3.507965,-1.73249 -14.659686,-7.52894 -18.438668,-12.99248 -0.640831,-0.9265 0.167412,-2.73678 -0.820105,-3.27887 -0.410254,-0.22521 -0.875155,-0.31874 -1.36064,-0.30903 z" /><path
       id="path4755"
       style="fill:#b5b5b5;fill-opacity:1;stroke-width:1.133;stroke-linecap:round;stroke-linejoin:round;paint-order:markers stroke fill"
       d="m 19.081242,241.36433 a 9.1529675,9.1529675 0 0 0 -9.1529297,9.15293 9.1529675,9.1529675 0 0 0 2.5109577,6.29316 c -1.384882,1.97198 -2.291098,4.43712 -3.0985187,6.66471 -1.335626,3.68485 -1.456242,11.66802 -1.456242,11.66802 0,0 -4.424457,-9.64635 -2.794145,-14.1795 0.309752,-0.86128 1.753765,-0.90226 2.124935,-1.73891 0.522963,-1.1788 0.7411,-2.97503 -0.193269,-3.86385 -1.866413,-1.77542 -5.730191,-1.62652 -7.72769395,0 -1.47885905,1.20421 -1.33780605,3.70403 -1.15910305,5.60276 0.90099105,9.57304 11.012248,26.66142 11.012248,26.66142 l 3.2840367,-11.39878 -0.579292,17.38757 16.228467,-0.96584 -0.38654,-19.12648 4.250387,8.40414 c 0,0 8.963016,-14.80354 7.72821,-22.70094 -0.38401,-2.45601 -1.971983,-5.72426 -4.443656,-5.9893 -1.361341,-0.14598 -2.656329,1.40653 -3.091285,2.70475 -0.501548,1.49698 0.911892,3.05909 0.96635,4.63692 0.118564,3.43523 -1.402499,10.21592 -1.402499,10.21592 0,0 -1.524574,-6.87786 -3.041158,-10.02265 -0.726846,-1.50719 -1.402657,-3.22208 -2.362646,-4.62814 a 9.1529675,9.1529675 0 0 0 1.936316,-5.62498 9.1529675,9.1529675 0 0 0 -9.15293,-9.15293 z" /><path
       id="path4757"
       style="fill:#d8d8d8;fill-opacity:1;stroke-width:1.133;stroke-linecap:round;stroke-linejoin:round;paint-order:markers stroke fill"
       d="m 55.408192,247.1714 c -4.52709,-1.3e-4 -8.19705,3.66983 -8.19692,8.19692 10e-4,2.90295 1.53766,5.58877 4.03955,7.06107 l -2.94659,3.04787 -12.4318,2.04949 c 0,0 -2.98997,-7.21783 -1.50275,-10.38283 0.40857,-0.86948 2.06551,-0.62647 2.45928,-1.50275 0.73957,-1.64581 0.57217,-4.36934 -0.95653,-5.32784 -2.00327,-1.25606 -5.40179,0.0291 -6.83059,1.91306 -1.34828,1.77777 -0.30551,4.48345 0,6.69365 0.71261,5.1553 4.2354,15.02751 4.2354,15.02751 l 15.98352,-4.6452 -1.36633,25.68319 19.12545,-0.95653 c 0,0 -2.1878,-6.58765 -0.91674,-9.5064 1.68759,-3.87523 10.069667,-7.7065 10.069667,-7.7065 l -11.748637,-14.89057 -3.13521,-0.85473 c 1.48331,-1.52787 2.31379,-3.57303 2.31562,-5.70249 1.3e-4,-4.52688 -3.66951,-8.19675 -8.19639,-8.19692 z m 9.01598,19.94556 5.73815,9.01598 c 0,0 -2.83962,4.07848 -4.54959,3.30884 -3.76368,-1.69399 -1.18856,-12.32482 -1.18856,-12.32482 z"
       sodipodi:nodetypes="sccccaaaaaccccaccccsccac" /><path
       id="path4759"
       style="fill:#fcfcfc;fill-opacity:1;stroke-width:1.133;stroke-linecap:round;stroke-linejoin:round;paint-order:markers stroke fill"
       d="m 46.397911,235.48147 c -1.54588,-0.8933 -3.81506,-0.40124 -5.32836,0.54622 -0.95327,0.59683 -1.91834,1.75348 -1.7756,2.86907 0.17577,1.37371 2.67286,1.5242 3.0055,2.86856 1.89195,7.64631 -7.51375,22.40432 -7.51375,22.40432 l -0.0336,10e-4 c 0.29166,-0.83478 0.44152,-1.71248 0.44338,-2.59674 4e-5,-4.37607 -3.54747,-7.92359 -7.923538,-7.92355 -4.37607,-4e-5 -7.92359,3.54748 -7.92355,7.92355 0.002,3.10535 1.81768,5.92333 4.64468,7.20835 l -0.54622,0.98857 -5.87406,2.45876 c 0,0 4.20203,-11.04576 0.95601,-14.75414 -1.32276,-1.51117 -4.25019,-1.37565 -6.011,-0.40979 -1.00051,0.54881 -1.85526,1.885 -1.63918,3.0055 0.25724,1.33391 2.60354,1.34846 3.14193,2.59571 1.93521,4.48313 -0.95602,14.61771 -0.95602,14.61771 l 10.10895,-1.50275 -3.55172,19.39881 18.579228,0.54622 -1.36633,-20.49177 c 0,0 12.43037,-22.39184 11.88558,-34.56275 -0.0848,-1.89367 -0.68109,-4.24248 -2.32234,-5.19089 z"
       sodipodi:nodetypes="aaaaccccccccaaaacccccaa" /></g></svg>
