<?xml version="1.0" encoding="UTF-8" standalone="no"?>
<!-- Created with Inkscape (http://www.inkscape.org/) -->

<svg
   width="470mm"
   height="370mm"
   viewBox="0 0 470 370"
   version="1.1"
   id="svg5"
   inkscape:version="1.2.2 (b0a8486, 2022-12-01)"
   sodipodi:docname="Carruagem.svg"
   xmlns:inkscape="http://www.inkscape.org/namespaces/inkscape"
   xmlns:sodipodi="http://sodipodi.sourceforge.net/DTD/sodipodi-0.dtd"
   xmlns="http://www.w3.org/2000/svg"
   xmlns:svg="http://www.w3.org/2000/svg">
  <sodipodi:namedview
     id="namedview7"
     pagecolor="#ffffff"
     bordercolor="#000000"
     borderopacity="0.25"
     inkscape:showpageshadow="2"
     inkscape:pageopacity="0.0"
     inkscape:pagecheckerboard="0"
     inkscape:deskcolor="#d1d1d1"
     inkscape:document-units="mm"
     showgrid="false"
     showguides="true"
     inkscape:zoom="0.17606493"
     inkscape:cx="1241.0195"
     inkscape:cy="925.79484"
     inkscape:window-width="1360"
     inkscape:window-height="699"
     inkscape:window-x="0"
     inkscape:window-y="32"
     inkscape:window-maximized="1"
     inkscape:current-layer="layer1">
    <sodipodi:guide
       position="170.86335,188.30111"
       orientation="0,-1"
       id="guide1988"
       inkscape:locked="false" />
    <sodipodi:guide
       position="182.33752,147.38281"
       orientation="1,0"
       id="guide26143"
       inkscape:locked="false" />
    <sodipodi:guide
       position="183.40013,146.15416"
       orientation="0,-1"
       id="guide26145"
       inkscape:locked="false" />
  </sodipodi:namedview>
  <defs
     id="defs2" />
  <g
     inkscape:label="Layer 1"
     inkscape:groupmode="layer"
     id="layer1">
    <path
       id="path53608"
       style="fill:#004759;fill-opacity:1;stroke:none;stroke-width:14.3815;stroke-opacity:1;paint-order:markers stroke fill"
       d="m 338.07026,17.988137 c -4.03833,-0.0426 -8.16173,0.93096 -12.55047,3.53395 0,0 -10e-4,12.13731 1.26159,18.37859 1.26279,6.24127 2.56542,19.51212 11.8021,20.00006 6.3677,-0.34714 15.76772,-2.32455 21.26097,-16.39659 1.09178,2.33211 3.14955,8.12298 3.14955,8.12298 l 0.30875,0.83152 0.30943,-0.83356 c 0,0 2.05803,-5.78938 3.14955,-8.12094 5.49325,14.07204 14.89328,16.04945 21.26097,16.39659 9.2367,-0.48794 10.53933,-13.75879 11.80211,-20.00006 1.26277,-6.24128 1.2609,-18.37859 1.2609,-18.37859 -13.35694,-7.922071 -24.25532,-0.74878 -37.78228,4.21348 -9.08261,-3.33182 -16.98081,-7.66043 -25.23317,-7.74743 z"
       sodipodi:nodetypes="scscccccccsccs" />
    <path
       style="fill:#004759;fill-opacity:1;stroke:none;stroke-width:5.39283;stroke-dasharray:none;stroke-opacity:1;paint-order:markers stroke fill"
       d="m 392.82011,468.83043 2.01371,5.47613 h 4.89059 l -1.98685,-9.79752 -1.09276,-11.77209 2.80642,-2.80642 -2.50839,-2.45873 -3.65083,3.65083 -3.50184,0.6954 c -0.66311,-8.10079 -1.35787,-7.17182 -0.81958,0.0745 v 16.98756 z"
       id="path25409"
       sodipodi:nodetypes="cccccccccccc" />
    <path
       style="fill:#004759;fill-opacity:1;stroke:none;stroke-width:15.1335;stroke-opacity:1;paint-order:markers stroke fill"
       d="m 366.6841,53.74323 c 0,0 -1.87699,29.361 -8.71446,36.1985 -6.83748,6.837478 -12.06154,8.560278 -19.84214,8.982588 -7.78061,0.42228 -18.13147,-3.209968 -23.73013,-7.775968 -5.59864,-4.566 -6.55789,-9.31795 -9.11665,-15.95417 -2.55876,-6.63621 -4.50053,-14.62874 -5.22868,-23.73012 -0.72814,-9.10138 -2.93276,-24.1151 1.7429,-30.43356 L 311.716,7.6236698 308.36428,19.95797 c -1.913,7.03986 1.87606,23.04589 5.09462,30.56763 3.21855,7.52172 5.83994,14.78149 10.85955,14.47939 5.0196,-0.30209 6.03308,-10.45733 6.03308,-10.45733"
       id="path16986"
       sodipodi:nodetypes="czzzzzscszzc" />
    <path
       style="fill:#004759;fill-opacity:1;stroke:none;stroke-width:15.1335;stroke-opacity:1;paint-order:markers stroke fill"
       d="m 358.93286,53.74323 c 0,0 1.87697,29.361 8.71445,36.1985 6.83749,6.837478 12.06154,8.560278 19.84215,8.982588 7.78059,0.42228 18.13148,-3.209968 23.73012,-7.775968 5.59864,-4.566 6.5579,-9.31795 9.11667,-15.95417 2.55874,-6.63621 4.50051,-14.62874 5.22866,-23.73012 0.72814,-9.10138 2.93277,-24.1151 -1.74289,-30.43356 L 413.90095,7.6236698 417.25266,19.95797 c 1.91301,7.03986 -1.87605,23.04589 -5.0946,30.56763 -3.21855,7.52172 -5.83995,14.78149 -10.85954,14.47939 -5.01961,-0.30209 -6.03308,-10.45733 -6.03308,-10.45733"
       id="path16988"
       sodipodi:nodetypes="czzzzzscszzc" />
    <path
       style="fill:#00a1ca;fill-opacity:1;stroke:none;stroke-width:4.73093;stroke-dasharray:none;stroke-opacity:1;paint-order:markers stroke fill"
       d="M 152.79591,101.50776 190.44455,151.35731 135.7146,125.56104 69.480921,127.30403 30.437919,154.4947 56.234195,112.6629 1.1556568,75.014279 67.737939,85.123632 234.36793,29.788237 Z"
       id="path16842" />
    <rect
       style="fill:#004759;fill-opacity:1;stroke:none;stroke-width:2.204;stroke-dasharray:none;stroke-opacity:1;paint-order:markers stroke fill"
       id="rect6210"
       width="23.446344"
       height="39.989059"
       x="73.924858"
       y="124.59624"
       rx="4.3154178"
       ry="4.3154178" />
    <rect
       style="fill:#004759;fill-opacity:1;stroke:none;stroke-width:2.204;stroke-dasharray:none;stroke-opacity:1;paint-order:markers stroke fill"
       id="rect4827"
       width="23.446344"
       height="39.989059"
       x="124.46478"
       y="124.59624"
       rx="4.3154178"
       ry="4.3154178" />
    <path
       id="rect4831"
       style="fill:#004759;stroke-width:2.204;paint-order:markers stroke fill"
       d="M 57.981151,52.369152 C 93.297472,78.056838 120.2773,28.645712 155.59364,5.7369802 157.59936,4.4359212 168.19276,54.294412 168.24555,56.68457 l 1.56309,70.76541 c 0.0528,2.39015 -11.58435,22.01256 -17.8622,22.29096 l -82.242108,3.64718 c -2.38839,0.10592 -16.820143,-15.21093 -16.820143,-17.60167 -2.915971,-11.53937 3.256039,-84.582876 5.096962,-83.417298 z"
       sodipodi:nodetypes="cssssscc" />
    <rect
       style="fill:#004759;fill-opacity:1;stroke:#61dfff;stroke-width:2.204;stroke-dasharray:none;stroke-opacity:1;paint-order:markers stroke fill"
       id="rect6202"
       width="18.421185"
       height="35.184471"
       x="101.85202"
       y="63.387417"
       rx="9.2105923"
       ry="9.2105923" />
    <rect
       style="fill:#004759;fill-opacity:1;stroke:#61dfff;stroke-width:2.204;stroke-dasharray:none;stroke-opacity:1;paint-order:markers stroke fill"
       id="rect3249"
       width="18.421185"
       height="35.184471"
       x="139.62671"
       y="63.387417"
       rx="9.2105923"
       ry="9.2105923" />
    <path
       id="path4829"
       style="fill:#61dfff;fill-opacity:1;stroke:none;stroke-width:14.3782;paint-order:markers stroke fill"
       d="m 136.50307,139.28613 a 17.67799,23.236556 0 0 0 -16.40381,14.59029 h 32.8114 a 17.67799,23.236556 0 0 0 -16.40759,-14.59029 z" />
    <path
       id="path6204"
       style="fill:#61dfff;fill-opacity:1;stroke:none;stroke-width:14.4023;paint-order:markers stroke fill"
       d="m 111.06264,61.278897 c -6.40627,0 -11.624818,4.902719 -12.125618,11.175838 8.504348,2.35535 16.615108,2.50662 24.251258,0 -0.5008,-6.273119 -5.71937,-11.175838 -12.12564,-11.175838 z"
       sodipodi:nodetypes="sccs" />
    <rect
       style="fill:#004759;fill-opacity:1;stroke:#61dfff;stroke-width:2.204;stroke-dasharray:none;stroke-opacity:1;paint-order:markers stroke fill"
       id="rect6206"
       width="18.421185"
       height="35.184471"
       x="67.464035"
       y="63.387417"
       rx="9.2105923"
       ry="9.2105923" />
    <path
       id="path6212"
       style="fill:#61dfff;fill-opacity:1;stroke:none;stroke-width:14.3782;paint-order:markers stroke fill"
       d="m 85.963152,139.28613 a 17.67799,23.236556 0 0 0 -16.4038,14.59029 H 102.37074 A 17.67799,23.236556 0 0 0 85.963152,139.28613 Z" />
    <path
       style="fill:#61dfff;fill-opacity:1;stroke:none;stroke-width:10.904;paint-order:markers stroke fill"
       d="m 115.11229,86.556627 c -17.676818,-1.225719 -63.742049,-24.030123 -82.713528,-43.506 -4.057111,10.371213 0.74542,30.956491 9.045619,50.900531 8.3002,19.944042 20.09807,39.246832 30.031621,47.053092 19.03733,-8.94658 23.058778,-2.054 38.977038,7.13641 z"
       id="path236"
       sodipodi:nodetypes="ccsccc" />
    <path
       id="rect3251"
       style="fill:#61dfff;fill-opacity:1;stroke:none;stroke-width:14.4023;paint-order:markers stroke fill"
       d="m 148.83734,61.278897 c -6.40627,0 -11.62482,4.902719 -12.12562,11.175838 8.50435,2.35535 16.61511,2.50662 24.25125,0 -0.5008,-6.273119 -5.71936,-11.175838 -12.12563,-11.175838 z"
       sodipodi:nodetypes="sccs" />
    <path
       style="fill:#00a1ca;fill-opacity:1;stroke:none;stroke-width:10.904;paint-order:markers stroke fill"
       d="m 106.61268,86.556627 c 17.67683,-1.225719 63.61179,-24.030123 82.58327,-43.506 4.05711,10.371213 -0.74542,30.956491 -9.04562,50.900531 -8.3002,19.944042 -20.09807,39.246832 -30.03162,47.053092 -19.03733,-8.94658 -24.77372,-1.80836 -40.26653,7.13641 z"
       id="path4818"
       sodipodi:nodetypes="ccsccc" />
    <path
       id="path6208"
       style="fill:#61dfff;fill-opacity:1;stroke:none;stroke-width:14.4023;paint-order:markers stroke fill"
       d="m 76.674662,61.278897 c -6.40627,0 -11.62482,4.902719 -12.12562,11.175838 8.50435,2.35535 16.61511,2.50662 24.25125,0 -0.5008,-6.273119 -5.71936,-11.175838 -12.12563,-11.175838 z"
       sodipodi:nodetypes="sccs" />
    <path
       id="path2463"
       style="fill:#004759;fill-opacity:1;stroke:none;stroke-width:12.9347;paint-order:markers stroke fill"
       d="m 59.821321,90.04995 c -5.03662,-0.0028 -8.65374,0.204639 -8.65374,0.204639 2.31199,8.829004 8.82526,19.684601 15.297781,26.487271 13.2442,4.58255 25.73666,5.40534 37.018408,0.1757 0,0 -7.058558,-18.185457 -16.826358,-23.162922 -1.52622,-0.77773 -14.49465,-10.332125 -16.64089,-10.824895 -2.14624,-0.492781 6.52971,8.076058 4.0814,7.807694 -2.44831,-0.268365 -17.126144,-7.992348 -19.558574,-8.096839 -2.43242,-0.104492 7.380563,7.410509 5.281973,7.409352 z m 102.212889,0 c -8.39436,0.0046 -20.73173,0.593774 -26.8366,3.704688 -9.7678,4.977455 -16.82586,23.162922 -16.82586,23.162922 11.28176,5.22964 23.77423,4.40685 37.01842,-0.1757 6.47252,-6.80267 12.98579,-17.658267 15.29778,-26.487271 0,0 -3.61712,-0.207416 -8.65374,-0.204639 z m -58.06985,31.1981 c -1.46975,0.6033 -3.61939,1.09336 -6.159308,1.45056 0.11865,0.21971 0.23277,0.44556 0.34055,0.67851 l 3.416318,7.38456 c 0.54795,1.18433 0.87328,2.37566 0.98599,3.46749 2.99615,-0.0797 5.47107,-0.61917 6.93343,-1.88413 z m 13.92628,0 -5.51697,11.09699 c 1.46236,1.26496 3.93728,1.80443 6.93342,1.88413 0.11271,-1.09183 0.43804,-2.28316 0.98599,-3.46749 l 3.41634,-7.38456 c 0.10778,-0.23295 0.2219,-0.4588 0.34055,-0.67851 -2.53993,-0.3572 -4.68958,-0.84726 -6.15933,-1.45056 z m -59.159098,-3.58213 18.83288,12.60793 c 4.21397,0.91543 10.5984,2.47951 16.6579,3.3445 l -3.21117,-6.94066 c -0.52872,-1.14279 -0.84936,-2.29108 -0.97255,-3.35122 -5.98461,0.18433 -26.48776,-4.47016 -31.30706,-5.66055 z m 104.207708,0.18421 c -4.81929,1.19039 -25.13823,5.66067 -31.12283,5.47634 -0.12319,1.06014 -0.44383,2.20843 -0.97255,3.35122 l -3.21118,6.94066 c 6.05951,-0.86499 12.44394,-2.42907 16.6579,-3.3445 z"
       sodipodi:nodetypes="scccssssssscccscccccccccccccccccsccccsccc" />
    <path
       style="fill:#004759;fill-opacity:1;stroke:none;stroke-width:20.4861;stroke-opacity:1;paint-order:markers stroke fill"
       d="m 368.05486,96.10674 c 0,0 -2.54086,39.74566 -11.79667,49.0015 -9.25582,9.25582 -16.32757,11.58798 -26.86008,12.15964 -10.53253,0.57165 -24.54439,-4.3453 -32.12322,-10.52624 -7.57882,-6.18095 -8.87736,-12.61361 -12.34112,-21.59699 -3.46376,-8.98336 -6.09231,-19.80277 -7.07801,-32.12321 -0.98567,-12.32044 -3.97004,-32.64436 2.35934,-41.19758 l 13.43005,-18.14868 -4.53719,16.6968 c -2.58961,9.52978 2.53959,31.19698 6.89653,41.37908 4.35692,10.18208 7.90546,20.00955 14.70045,19.6006 6.79498,-0.40895 8.16692,-14.155982 8.16692,-14.155982"
       id="path16844"
       sodipodi:nodetypes="czzzzzscszzc" />
    <path
       style="fill:#004759;fill-opacity:1;stroke:none;stroke-width:20.4861;stroke-opacity:1;paint-order:markers stroke fill"
       d="m 357.5621,96.10674 c 0,0 2.54083,39.74566 11.79665,49.0015 9.25584,9.25582 16.32757,11.58798 26.86011,12.15964 10.53251,0.57165 24.54439,-4.3453 32.12321,-10.52624 7.57882,-6.18095 8.87735,-12.61361 12.34113,-21.59699 3.46375,-8.98336 6.0923,-19.80277 7.07798,-32.12321 0.98569,-12.32044 3.97006,-32.64436 -2.35933,-41.19758 l -13.43004,-18.14868 4.53717,16.6968 c 2.58962,9.52978 -2.53959,31.19698 -6.89651,41.37908 -4.35692,10.18208 -7.90547,20.00955 -14.70044,19.6006 -6.79499,-0.40895 -8.16692,-14.155982 -8.16692,-14.155982"
       id="path16846"
       sodipodi:nodetypes="czzzzzscszzc" />
    <rect
       style="fill:#004759;fill-opacity:1;stroke:none;stroke-width:2.204;stroke-dasharray:none;stroke-opacity:1;paint-order:markers stroke fill"
       id="rect6268"
       width="23.446344"
       height="39.989059"
       x="325.91406"
       y="129.84514"
       rx="4.3154178"
       ry="4.3154178" />
    <rect
       style="fill:#004759;fill-opacity:1;stroke:none;stroke-width:2.204;stroke-dasharray:none;stroke-opacity:1;paint-order:markers stroke fill"
       id="rect6270"
       width="23.446344"
       height="39.989059"
       x="376.45395"
       y="129.84514"
       rx="4.3154178"
       ry="4.3154178" />
    <path
       style="fill:#61dfff;fill-opacity:1;stroke:none;stroke-width:4.99999;stroke-dasharray:none;stroke-opacity:1;paint-order:markers stroke fill"
       d="m 319.31845,143.95235 c 0,0 -19.19678,-7.46783 -27.09357,-20.58069 -7.89679,-13.11286 -9.37854,-57.052779 -9.37854,-57.052779 0,0 13.08563,44.540459 20.32019,54.968659 7.23456,10.4282 13.28625,11.46266 13.28625,11.46266 l 92.32205,6.87854 c 0,0 14.69916,-7.20506 20.92924,-13.88134 6.23007,-6.67628 14.43944,-24.43472 14.43944,-24.43472 0,0 -2.3865,18.88628 -7.76308,27.95551 -5.37658,9.06922 -23.92135,22.15013 -23.92135,22.15013 l -25.78965,-6.63163 z"
       id="path51752"
       sodipodi:nodetypes="czczcczczccc" />
    <path
       id="path6272"
       style="fill:#004759;stroke:none;stroke-width:5;stroke-dasharray:none;stroke-opacity:1;paint-order:markers stroke fill"
       d="M 309.97037,57.61807 C 278.4172,32.96992 448.18458,24.28369 420.23477,61.93349 l 1.56309,70.76541 c 0.0528,2.39015 -11.58435,22.01256 -17.8622,22.29096 l -82.24211,3.64718 c -2.38839,0.10592 -16.82014,-15.21093 -16.82014,-17.60167 -2.91597,-11.53937 3.25604,-84.58288 5.09696,-83.4173 z"
       sodipodi:nodetypes="ccssscc" />
    <rect
       style="fill:#004759;fill-opacity:1;stroke:#61dfff;stroke-width:2.204;stroke-dasharray:none;stroke-opacity:1;paint-order:markers stroke fill"
       id="rect6274"
       width="18.421185"
       height="35.184471"
       x="354.94647"
       y="68.63633"
       rx="9.2105923"
       ry="9.2105923" />
    <rect
       style="fill:#004759;fill-opacity:1;stroke:#61dfff;stroke-width:2.204;stroke-dasharray:none;stroke-opacity:1;paint-order:markers stroke fill"
       id="rect6276"
       width="18.421185"
       height="35.184471"
       x="391.61588"
       y="105.47872"
       rx="9.2105923"
       ry="9.2105923" />
    <path
       id="path6278"
       style="fill:#61dfff;fill-opacity:1;stroke:none;stroke-width:14.3782;paint-order:markers stroke fill"
       d="m 388.49229,144.53505 a 17.67799,23.236556 0 0 0 -16.40381,14.59029 h 32.8114 a 17.67799,23.236556 0 0 0 -16.40759,-14.59029 z" />
    <rect
       style="fill:#004759;fill-opacity:1;stroke:#61dfff;stroke-width:2.204;stroke-dasharray:none;stroke-opacity:1;paint-order:markers stroke fill"
       id="rect6284"
       width="18.421185"
       height="35.184471"
       x="315.67688"
       y="105.47872"
       rx="9.2105923"
       ry="9.2105923" />
    <path
       id="path6286"
       style="fill:#61dfff;fill-opacity:1;stroke:none;stroke-width:14.3782;paint-order:markers stroke fill"
       d="m 337.95237,144.53505 a 17.67799,23.236556 0 0 0 -16.4038,14.59029 h 32.81139 a 17.67799,23.236556 0 0 0 -16.40759,-14.59029 z" />
    <path
       style="fill:#00a1ca;fill-opacity:1;stroke:none;stroke-width:14.3815;stroke-opacity:1;paint-order:markers stroke fill"
       d="m 366.49151,91.93159 c 0,0 -1.78372,-27.90202 -8.28143,-34.39975 -6.49772,-6.49772 -11.46219,-8.13493 -18.85616,-8.53624 -7.39399,-0.40131 -17.23051,3.05046 -22.55096,7.38957 -5.32044,4.33911 -6.23203,8.85493 -8.66364,15.16139 -2.43161,6.30645 -4.27689,13.90183 -4.96886,22.55095 -0.69196,8.64913 -2.78703,22.91681 1.65629,28.92129 l 9.42808,12.74063 -3.18517,-11.72139 c -1.81794,-6.69004 1.78283,-21.90072 4.84146,-29.0487 3.05862,-7.14797 5.54975,-14.04699 10.31993,-13.7599 4.77017,0.28709 5.73329,9.9377 5.73329,9.9377"
       id="path13863"
       sodipodi:nodetypes="czzzzzscszzc" />
    <path
       style="fill:#00a1ca;fill-opacity:1;stroke:none;stroke-width:14.3815;stroke-opacity:1;paint-order:markers stroke fill"
       d="m 359.12544,91.93159 c 0,0 1.7837,-27.90202 8.28142,-34.39975 6.49773,-6.49772 11.46219,-8.13493 18.85618,-8.53624 7.39397,-0.40131 17.23051,3.05046 22.55095,7.38957 5.32044,4.33911 6.23203,8.85493 8.66365,15.16139 2.4316,6.30645 4.27688,13.90183 4.96884,22.55095 0.69197,8.64913 2.78704,22.91681 -1.65628,28.92129 l -9.42808,12.74063 3.18516,-11.72139 c 1.81795,-6.69004 -1.78283,-21.90072 -4.84145,-29.0487 -3.05862,-7.14797 -5.54975,-14.04699 -10.31992,-13.7599 -4.77018,0.28709 -5.73329,9.9377 -5.73329,9.9377"
       id="path21596"
       sodipodi:nodetypes="czzzzzscszzc" />
    <path
       style="fill:#00a1ca;fill-opacity:1;stroke:none;stroke-width:14.3815;stroke-opacity:1;paint-order:markers stroke fill"
       d="m 335.04297,81.2198 c 0,0 -6.98888,14.95214 -8.34098,37.08382 -1.35209,22.13166 11.65805,45.88023 11.65805,45.88023 0,0 -0.0736,-16.00333 4.40373,-35.25182 4.47731,-19.2485 17.47042,-51.54627 17.47042,-51.54627 z"
       id="path30387"
       sodipodi:nodetypes="czczcc" />
    <path
       id="path13104"
       style="fill:#61dfff;fill-opacity:1;stroke:none;stroke-width:14.3815;stroke-opacity:1;paint-order:markers stroke fill"
       d="m 341.91637,72.89472 c -7.37562,0.0756 -14.0743,3.20932 -15.18065,13.82433 -1.25451,12.036548 -1.88764,17.44887 4.58426,34.49232 6.44183,16.96425 19.13914,33.81162 31.89349,34.22651 v 0.008 c 0.0297,-6e-4 0.0595,-0.003 0.0893,-0.004 0.0298,7.9e-4 0.0595,0.003 0.0893,0.004 v -0.008 c 12.75442,-0.41472 25.45163,-17.26217 31.8935,-34.22651 6.4719,-17.04345 5.83876,-22.455772 4.58424,-34.49232 -2.57985,-24.75282 -35.49611,-10.03138 -36.56703,-9.50748 -0.61167,-0.29924 -11.56297,-4.41746 -21.38638,-4.31685 z"
       sodipodi:nodetypes="ssscccccsscs" />
    <path
       id="path27346"
       style="fill:#004759;fill-opacity:1;stroke:none;stroke-width:14.3815;stroke-opacity:1;paint-order:markers stroke fill"
       d="m 337.40232,81.271665 c -0.42376,-0.003 -0.83184,0.0469 -1.22206,0.1554 -8.32447,2.31332 -5.76609,6.66645 -5.76609,6.66645 4.41851,-4.28209 19.14082,14.699625 30.63121,15.279475 0,0 -15.0265,-22.038225 -23.64306,-22.101325 z m 51.23856,0 c -8.61655,0.063 -23.64238,22.101325 -23.64238,22.101325 11.4904,-0.57985 26.21204,-19.561565 30.63055,-15.279475 0,0 2.55906,-4.35313 -5.76542,-6.66645 -0.39022,-0.10842 -0.79898,-0.15851 -1.22275,-0.1554 z" />
    <path
       id="path13180"
       style="fill:#00a1ca;fill-opacity:1;stroke:none;stroke-width:14.3815;stroke-opacity:1;paint-order:markers stroke fill"
       d="m 338.07026,86.14653 c -4.03833,-0.0426 -8.16173,0.93096 -12.55047,3.53395 0,0 -10e-4,12.13731 1.26159,18.37859 1.26279,6.24127 2.56542,19.51212 11.8021,20.00006 6.3677,-0.34714 15.76772,-2.32455 21.26097,-16.39659 1.09178,2.33211 3.14955,8.12298 3.14955,8.12298 l 0.30875,0.83152 0.30943,-0.83356 c 0,0 2.05803,-5.78938 3.14955,-8.12094 5.49325,14.07204 14.89328,16.04945 21.26097,16.39659 9.2367,-0.48794 10.53933,-13.75879 11.80211,-20.00006 1.26277,-6.24128 1.2609,-18.37859 1.2609,-18.37859 -13.35694,-7.92207 -24.25532,-0.74878 -37.78228,4.21348 -9.08261,-3.33182 -16.98081,-7.66043 -25.23317,-7.74743 z"
       sodipodi:nodetypes="scscccccccsccs" />
    <path
       id="path13807"
       style="fill:#004759;fill-opacity:1;stroke:none;stroke-width:19.5128;stroke-opacity:1;paint-order:markers stroke fill"
       d="m 383.89918,101.44306 c -5.97042,-0.0338 -13.95031,3.74232 -14.56111,11.34816 13.07407,1.90564 24.2636,1.11482 27.55939,-10.97263 0,0 -4.64115,1.15457 -10.58959,-0.12741 -0.74356,-0.16025 -1.55577,-0.24327 -2.40869,-0.24809 z m -41.16014,0.2549 c -0.81711,0.005 -1.59479,0.0836 -2.30713,0.23719 -5.69869,1.22818 -10.1452,0.12265 -10.1452,0.12265 3.15741,11.57991 13.87695,12.33751 26.40206,10.5119 -0.58515,-7.28651 -8.22999,-10.90408 -13.94973,-10.87176 z" />
    <path
       style="fill:#00a1ca;fill-opacity:1;stroke:none;stroke-width:14.3815;stroke-opacity:1;paint-order:markers stroke fill"
       d="m 339.36754,48.18659 c -14.27041,5.95238 -28.42102,10.10424 -41.51572,-1.61259 4.33868,12.65803 8.21721,25.96703 16.67584,32.79687 z"
       id="path22328"
       sodipodi:nodetypes="cccc" />
    <path
       style="fill:#00a1ca;fill-opacity:1;stroke:none;stroke-width:14.3815;stroke-opacity:1;paint-order:markers stroke fill"
       d="m 377.2049,113.45646 c 13.15526,8.12494 13.78678,19.36431 11.90024,36.83419 7.75556,-10.90419 9.28125,-28.66082 9.89964,-39.51499 z"
       id="path22384"
       sodipodi:nodetypes="cccc" />
    <path
       id="path24893"
       style="fill:#004759;fill-opacity:1;stroke:none;stroke-width:19.8311;stroke-opacity:1;paint-order:markers stroke fill"
       d="m 359.30397,120.76563 c 0,0 1.33243,6.92804 3.99742,6.92408 2.66106,-0.004 3.97357,-6.92408 3.97357,-6.92408 -2.38755,1.34789 -4.98412,1.64875 -7.97099,0 z m -14.12558,6.94317 c -2.28861,9e-5 -4.14388,1.85535 -4.14397,4.14396 -2.9e-4,2.28888 1.85509,4.14456 4.14397,4.14465 2.28914,2.8e-4 4.14492,-1.85551 4.14463,-4.14465 -9e-5,-2.28887 -1.85576,-4.14424 -4.14463,-4.14396 z m 33.51358,0.36055 c -2.18929,-4e-5 -3.96407,1.77473 -3.96403,3.96402 -5e-5,2.1893 1.77473,3.96408 3.96403,3.96404 2.1893,5e-5 3.96409,-1.77474 3.96404,-3.96404 4e-5,-2.18929 -1.77475,-3.96407 -3.96404,-3.96402 z m -21.00674,6.94045 c -2.64238,0.0422 -8.74321,1.30548 -8.74321,1.30548 1.70349,0.83699 3.39144,3.17636 5.09135,3.56845 1.74943,1.64075 4.69595,3.46374 9.15351,3.46374 4.50724,0 7.41471,-1.84938 9.10853,-3.49101 1.66035,-0.39196 3.30974,-2.7234 4.97413,-3.54118 0,0 -6.71534,-1.56733 -9.1065,-1.2898 -2.21877,0.25751 -4.70602,1.77431 -5.05726,1.99428 -0.35215,-0.22053 -2.83832,-1.73684 -5.05659,-1.99428 -0.11211,-0.0132 -0.23401,-0.0178 -0.36396,-0.0157 z m 5.30877,16.09942 c -2.61937,0.0177 -3.80454,2.26964 -3.80454,2.26964 2.47466,-0.80782 4.95621,-1.44589 7.51434,0 0,0 -0.87645,-2.21364 -3.58371,-2.26896 -0.0423,-8.6e-4 -0.0845,-9.6e-4 -0.12609,-6.8e-4 z"
       sodipodi:nodetypes="csccccccccccccsccsccsccsssccss" />
    <path
       id="rect20103"
       style="fill:#004759;fill-opacity:1;stroke:none;stroke-width:4.99999;stroke-dasharray:none;stroke-opacity:1;paint-order:markers stroke fill"
       d="m 342.46957,455.90594 c -5.82428,0 -10.51306,4.68877 -10.51306,10.51306 v 11.27786 c 0,5.82428 4.68878,10.51305 10.51306,10.51305 h 39.15265 c 5.82427,0 10.51305,-4.68877 10.51305,-10.51305 v -5.0984 c -1.05776,0.28087 -2.14725,0.4245 -3.24166,0.42737 -1.47308,-0.003 -2.67402,-0.26074 -4.05912,-0.76223 l -1.21337,3.10245 h -6.63541 l 1.33842,-7.41795 c -1.67315,-2.21248 -2.18907,-4.90988 -2.19202,-7.68377 0.003,-1.48689 0.26518,-2.96188 0.77567,-4.35839 z"
       sodipodi:nodetypes="ssssssccccccccs" />
    <path
       style="fill:#004759;fill-opacity:1;stroke:none;stroke-width:5.39283;stroke-dasharray:none;stroke-opacity:1;paint-order:markers stroke fill"
       d="m 385.04816,468.83043 -2.01371,5.47613 h -4.89059 l 1.98685,-9.79752 1.09276,-11.77209 -2.80642,-2.80642 2.50839,-2.45873 3.65083,3.65083 4.17239,0.6954 0.0497,-4.34623 c 0,0 -0.62089,-0.40821 -0.62089,-0.89408 0,-0.48586 0.40042,-1.11459 1.36044,-1.11459 0.96003,0 1.24002,0.83769 1.24002,1.34112 0,0.50343 -0.56394,0.74206 -0.56394,0.74206 l -0.64573,4.34623 -0.67056,16.98756 z"
       id="path23063"
       sodipodi:nodetypes="cccccccccczzzcccc" />
    <path
       style="fill:#00a1ca;fill-opacity:1;stroke:none;stroke-width:6.1874;stroke-dasharray:none;stroke-opacity:1;paint-order:markers stroke fill"
       d="m 399.21072,453.24299 -5.84411,-4.821 c 0,0 2.58451,-2.7263 5.30691,-0.48049 2.7224,2.24578 0.53717,5.30149 0.53717,5.30149 z"
       id="path25411"
       sodipodi:nodetypes="cczc" />
    <circle
       style="fill:#00a1ca;fill-opacity:1;stroke:none;stroke-width:5.39283;stroke-dasharray:none;stroke-opacity:1;paint-order:markers stroke fill"
       id="path20157"
       cx="388.89346"
       cy="460.26447"
       r="11.379814" />
    <path
       style="fill:#00a1ca;fill-opacity:1;stroke:none;stroke-width:6.1874;stroke-dasharray:none;stroke-opacity:1;paint-order:markers stroke fill"
       d="m 378.65755,453.24299 5.84411,-4.821 c 0,0 -2.58451,-2.7263 -5.30691,-0.48049 -2.7224,2.24578 -0.53717,5.30149 -0.53717,5.30149 z"
       id="path23211"
       sodipodi:nodetypes="cczc" />
    <circle
       style="fill:#004759;fill-opacity:1;stroke:none;stroke-width:5.39283;stroke-dasharray:none;stroke-opacity:1;paint-order:markers stroke fill"
       id="path24060"
       cx="389.0321"
       cy="460.86749"
       r="8.6402254" />
    <circle
       style="fill:#00a1ca;fill-opacity:1;stroke:none;stroke-width:5.39283;stroke-dasharray:none;stroke-opacity:1;paint-order:markers stroke fill"
       id="path26139"
       cx="389.09561"
       cy="460.66742"
       r="1.7611345" />
    <rect
       style="fill:#00a1ca;fill-opacity:1;stroke:none;stroke-width:5.39283;stroke-dasharray:none;stroke-opacity:1;paint-order:markers stroke fill"
       id="rect26141"
       width="7.2296576"
       height="1.5149744"
       x="389.56326"
       y="460.04889"
       rx="0.75748831"
       ry="0.75748718" />
    <rect
       style="fill:#00a1ca;fill-opacity:1;stroke:none;stroke-width:5.39283;stroke-dasharray:none;stroke-opacity:1;paint-order:markers stroke fill"
       id="rect26147"
       width="7.4755173"
       height="1.205845"
       x="582.72131"
       y="-150.74155"
       rx="0.6029225"
       ry="0.6029225"
       transform="rotate(64.23636)" />
    <path
       id="path33915"
       style="fill:#004759;fill-opacity:1;stroke:none;stroke-width:32.6025;stroke-linecap:butt;stroke-linejoin:miter;stroke-dasharray:none;stroke-opacity:1;paint-order:markers stroke fill"
       d="m 191.72092,205.27732 c -6.07798,5.48289 -26.25717,-1.69517 -33.80655,6.77285 l -11.28496,21.8049 28.06223,3.25172 c 8.93226,-8.34446 16.02815,-17.96662 17.02928,-31.82947 z m -61.754,-27.041 c -1.10389,-0.92545 -2.28191,-1.81564 -3.54037,-2.66845 1.70934,8.00511 -14.5976,21.89232 -11.03873,32.66431 l 13.2428,20.67573 16.84615,-22.67617 c -2.45848,-10.60535 -6.52246,-20.45819 -15.50985,-27.99542 z m 74.66705,89.66578 c -8.17479,-0.42076 -17.36854,-19.76559 -28.69454,-19.11602 l -23.39899,7.44098 17.54467,22.14065 c 12.21651,0.41561 24.03843,-1.37101 34.54886,-10.46561 z m -155.150289,1.34974 c -12.216456,-0.41562 -24.038402,1.37093 -34.548841,10.4656 8.174799,0.42075 17.368569,19.76555 28.69456,19.11599 l 23.397832,-7.43967 z m 21.21717,44.88208 -28.062228,-3.25176 c -8.932266,8.34449 -16.028137,17.96659 -17.029255,31.82949 6.077943,-5.48292 26.257163,1.69511 33.806521,-6.77288 z"
       sodipodi:nodetypes="cccccccccccccccccccccccccc" />
    <rect
       style="fill:#004759;fill-opacity:1;stroke:none;stroke-width:2.204;stroke-dasharray:none;stroke-opacity:1;paint-order:markers stroke fill"
       id="rect32075"
       width="23.446344"
       height="39.989059"
       x="73.924858"
       y="306.43567"
       rx="4.3154178"
       ry="4.3154178" />
    <rect
       style="fill:#004759;fill-opacity:1;stroke:none;stroke-width:2.204;stroke-dasharray:none;stroke-opacity:1;paint-order:markers stroke fill"
       id="rect32077"
       width="23.446344"
       height="39.989059"
       x="124.46478"
       y="306.43567"
       rx="4.3154178"
       ry="4.3154178" />
    <path
       id="path32079"
       style="fill:#004759;stroke-width:2.204;paint-order:markers stroke fill"
       d="m 57.981151,234.20858 c 35.316321,25.68769 62.296149,-23.72344 97.612489,-46.63217 2.00572,-1.30106 12.59912,48.55743 12.65191,50.94759 l 1.56309,70.76541 c 0.0528,2.39015 -11.58435,22.01256 -17.8622,22.29096 l -82.242108,3.64718 c -2.38839,0.10592 -16.820143,-15.21093 -16.820143,-17.60167 -2.915971,-11.53937 3.256039,-84.58287 5.096962,-83.4173 z"
       sodipodi:nodetypes="cssssscc" />
    <rect
       style="fill:#004759;fill-opacity:1;stroke:#61dfff;stroke-width:2.204;stroke-dasharray:none;stroke-opacity:1;paint-order:markers stroke fill"
       id="rect34061"
       width="18.421185"
       height="35.184471"
       x="102.95735"
       y="280.0206"
       rx="9.2105923"
       ry="9.2105923" />
    <rect
       style="fill:#004759;fill-opacity:1;stroke:#61dfff;stroke-width:2.9865;stroke-dasharray:none;stroke-opacity:1;paint-order:markers stroke fill"
       id="rect34057"
       width="24.961411"
       height="47.676308"
       x="139.59299"
       y="252.03214"
       rx="12.480705"
       ry="12.480705" />
    <path
       id="path32081"
       style="fill:#61dfff;fill-opacity:1;stroke:none;stroke-width:14.3782;paint-order:markers stroke fill"
       d="m 136.50307,321.12556 a 17.67799,23.236556 0 0 0 -16.40381,14.59029 h 32.8114 a 17.67799,23.236556 0 0 0 -16.40759,-14.59029 z" />
    <path
       id="path32083"
       style="fill:#61dfff;fill-opacity:1;stroke:none;stroke-width:14.3782;paint-order:markers stroke fill"
       d="m 85.963152,321.12556 a 17.67799,23.236556 0 0 0 -16.4038,14.59029 H 102.37074 A 17.67799,23.236556 0 0 0 85.963152,321.12556 Z" />
    <path
       id="path34063"
       style="fill:#61dfff;fill-opacity:1;stroke:none;stroke-width:14.4023;paint-order:markers stroke fill"
       d="m 112.16796,277.91209 c -6.40627,0 -11.62482,4.90272 -12.12562,11.17584 8.50435,2.35535 16.61511,2.50662 24.25127,0 -0.5008,-6.27312 -5.71938,-11.17584 -12.12565,-11.17584 z"
       sodipodi:nodetypes="sccs" />
    <path
       id="path47864"
       style="fill:#00a1ca;fill-opacity:1;stroke:none;stroke-width:32.6025;stroke-linecap:butt;stroke-linejoin:miter;stroke-dasharray:none;stroke-opacity:1;paint-order:markers stroke fill"
       d="m 100.29342,185.20634 c -1.123944,8.10806 -21.188945,15.5994 -21.518174,26.93925 l 5.39396,23.95223 23.572264,-15.56955 c 1.46724,-12.13517 0.70663,-24.06662 -7.44805,-35.32193 z m -64.669821,19.0417 c -1.440497,0.002 -2.91504,0.0787 -4.427104,0.23578 6.459807,5.02737 2.914609,26.15088 12.570636,32.1059 l 23.441651,7.3039 -1.697917,-28.19784 c -8.706516,-6.5356 -18.157698,-11.46204 -29.887266,-11.44774 z m 114.853981,20.58355 c -6.52801,4.93854 -26.01392,-3.95228 -34.26519,3.83341 l -13.12194,20.7532 27.67713,5.65687 c 9.61836,-7.54341 17.51751,-16.51855 19.71,-30.24348 z M 37.236695,259.17482 c -9.618329,7.54336 -17.517549,16.51846 -19.709998,30.24346 6.528015,-4.93856 26.013923,3.95222 34.265195,-3.83344 l 13.121891,-20.75146 z m 65.960645,8.18251 1.69791,28.19782 c 9.77575,7.33827 20.48963,12.64645 34.31437,11.21199 -6.45984,-5.02741 -2.91464,-26.15088 -12.57063,-32.10593 z M 82.359366,279.87539 58.787079,295.4449 c -1.467216,12.13521 -0.706642,24.06658 7.448082,35.32193 1.123902,-8.10806 21.188895,-15.59945 21.518135,-26.93925 z" />
    <path
       id="path34059"
       style="fill:#61dfff;fill-opacity:1;stroke:none;stroke-width:19.5157;paint-order:markers stroke fill"
       d="m 152.07371,249.17502 c -8.68074,0 -15.75207,6.64337 -16.43068,15.14369 11.52372,3.19159 22.51411,3.39657 32.86139,0 -0.6786,-8.50032 -7.74997,-15.14369 -16.43071,-15.14369 z"
       sodipodi:nodetypes="sccs" />
    <path
       id="path47724"
       style="fill:#61dfff;fill-opacity:1;stroke:none;stroke-width:32.6025;stroke-linecap:butt;stroke-linejoin:miter;stroke-dasharray:none;stroke-opacity:1;paint-order:markers stroke fill"
       d="m 79.240028,209.02964 c -6.831073,0.003 -15.903621,2.61463 -20.766734,9.09004 -5.763714,7.67452 -0.709199,10.9536 3.718083,17.32678 -8.606935,-3.68573 -17.690896,-4.5824 -21.402809,2.54772 -3.711903,7.13015 -4.778145,12.7625 -2.717343,20.21546 2.060834,7.453 6.303568,9.78486 13.249138,9.17142 -5.897141,4.9806 -10.022777,8.65103 -7.134277,16.47871 2.8885,7.8277 8.571984,13.51948 14.777414,15.45758 6.205387,1.9381 12.979337,2.57548 16.81795,-11.21195 -0.165378,9.77334 1.571859,14.21896 8.492906,16.47701 6.92108,2.25799 14.1432,0.25962 21.574144,-4.24561 7.43097,-4.50546 7.63519,-13.75007 -2.03885,-24.97164 8.38539,2.3844 19.28227,9.6977 26.00804,0.34087 6.72578,-9.3568 6.77565,-10.21162 3.39752,-20.3851 -3.37813,-10.17349 -12.75019,-7.94493 -19.87453,-7.98407 0,0 17.83937,-6.69102 11.89046,-19.53531 -1.8895,-4.07957 -8.23149,-13.02537 -19.02474,-14.0989 -10.793254,-1.07353 -14.270244,10.36214 -14.270244,10.36214 0.81706,-9.81564 -2.32372,-13.69174 -9.173101,-14.77909 -1.07021,-0.17008 -2.258014,-0.2571 -3.523027,-0.25601 z" />
    <circle
       style="fill:#004759;fill-opacity:1;stroke:none;stroke-width:6.13206;stroke-dasharray:none;stroke-opacity:1;paint-order:markers stroke fill"
       id="path34055"
       cx="84.731567"
       cy="257.33395"
       r="16.933475" />
    <rect
       style="fill:#004759;fill-opacity:1;stroke:none;stroke-width:2.204;stroke-dasharray:none;stroke-opacity:1;paint-order:markers stroke fill"
       id="rect40769"
       width="23.446344"
       height="39.989059"
       x="318.54556"
       y="306.43567"
       rx="4.3154178"
       ry="4.3154178" />
    <path
       style="fill:#004759;fill-opacity:1;stroke:none;stroke-width:4.99999;stroke-dasharray:none;stroke-opacity:1;paint-order:markers stroke fill"
       d="m 301.09037,287.14176 -40.52662,17.68432 -7.00006,25.78968 25.78967,4.78952 33.52656,-25.05284 90.26384,3.31581 17.31592,11.05273 16.94752,-4.42108 -9.57906,-16.94749 -20.63172,-3.68426 z"
       id="path40902"
       sodipodi:nodetypes="ccccccccccc" />
    <rect
       style="fill:#004759;fill-opacity:1;stroke:none;stroke-width:2.204;stroke-dasharray:none;stroke-opacity:1;paint-order:markers stroke fill"
       id="rect40771"
       width="23.446344"
       height="39.989059"
       x="369.08548"
       y="306.43567"
       rx="4.3154178"
       ry="4.3154178" />
    <path
       id="path40773"
       style="fill:#004759;stroke-width:2.204;paint-order:markers stroke fill"
       d="m 297.07551,237.52439 c 35.31632,25.68769 35.62245,0.94743 24.66458,-37.79 -3.84425,-13.5899 90.81002,24.47658 91.12617,38.78961 l 1.56309,70.76541 c 0.0528,2.39015 -11.58435,22.01256 -17.8622,22.29096 l -82.2421,3.64718 c -2.38839,0.10592 -16.82015,-15.21093 -16.82015,-17.60167 -2.91597,-11.53937 -2.27032,-81.26706 -0.42939,-80.10149 z"
       sodipodi:nodetypes="cssssscc" />
    <path
       id="path40775"
       style="fill:#61dfff;fill-opacity:1;stroke:none;stroke-width:14.3782;paint-order:markers stroke fill"
       d="m 381.12378,321.12556 a 17.67799,23.236556 0 0 0 -16.4038,14.59029 h 32.81139 a 17.67799,23.236556 0 0 0 -16.40759,-14.59029 z" />
    <path
       id="path40777"
       style="fill:#61dfff;fill-opacity:1;stroke:none;stroke-width:14.3782;paint-order:markers stroke fill"
       d="m 330.58387,321.12556 a 17.67799,23.236556 0 0 0 -16.4038,14.59029 h 32.81139 a 17.67799,23.236556 0 0 0 -16.40759,-14.59029 z" />
    <path
       style="fill:#00a1ca;fill-opacity:1;stroke:none;stroke-width:4.99999;stroke-dasharray:none;stroke-opacity:1;paint-order:markers stroke fill"
       d="m 300.94529,282.49419 0.52103,-34.909 c 0,0 19.72301,10.26524 28.65665,1.56309 8.93364,-8.70215 -1.30258,-46.11114 -1.30258,-46.11114 24.20109,6.87804 47.10663,11.0653 79.9781,35.95106 -25.75743,26.73436 -53.17521,51.4763 -107.8532,43.50599 z"
       id="path45406"
       sodipodi:nodetypes="cczccc" />
    <path
       style="fill:#004759;fill-opacity:1;stroke:none;stroke-width:4.99999;stroke-dasharray:none;stroke-opacity:1;paint-order:markers stroke fill"
       d="m 330.82498,293.9733 -18.49656,5.99186 -6.25235,-13.80731 4.42874,-18.49654 24.22791,-4.68928 8.33647,8.59699 3.6472,-23.18582 11.98369,-12.24421 9.37856,15.37039 0.78152,21.1017 15.6309,-11.46265 20.58069,12.2442 2.08413,24.48841 -34.90902,-7.03391 z"
       id="path46868"
       sodipodi:nodetypes="ccccccccccccccc" />
    <path
       id="path41704"
       style="fill:#61dfff;fill-opacity:1;stroke:none;stroke-width:14.0573;stroke-linecap:butt;stroke-linejoin:miter;stroke-dasharray:none;stroke-opacity:1;paint-order:markers stroke fill"
       d="m 356.54684,219.07655 -13.45396,13.45448 v 28.45717 l -19.61173,-3.34036 v -7.68894 l -18.31877,18.31878 v 31.75414 c 12.66262,1.46858 24.58701,-0.75377 36.55745,-2.74609 -1.99921,-0.41907 -4.01078,-0.90794 -6.03529,-1.46864 0.62895,-7.87828 5.41929,-14.5476 12.18427,-17.81959 v -27.2588 l 8.96328,-8.96534 8.23309,8.27701 v 27.17767 c 7.70209,2.89928 13.29728,10.03031 13.98054,18.58905 -1.28921,0.42319 -2.58598,0.80394 -3.8902,1.14308 l 32.78559,3.07165 V 268.27768 L 389.62234,249.9589 v 7.68894 l -19.60966,3.34036 v -28.45717 l -13.45603,-13.45448 -0.004,0.75809 z m -29.02459,47.76608 c 2.32023,-0.0293 4.44174,0.4773 6.03943,1.70325 5.68064,4.35895 4.41899,14.29424 0,19.89491 -4.419,5.60068 -16.76393,9.68279 -22.28082,5.32991 -5.51688,-4.35289 -4.29396,-13.65868 0,-19.25464 3.08629,-4.0221 10.31191,-7.59843 16.24139,-7.67343 z m 58.21505,0 c 5.9295,0.075 13.1551,3.65133 16.24139,7.67343 4.29396,5.59596 5.51688,14.90175 0,19.25464 -5.51689,4.35288 -17.86181,0.27078 -22.28081,-5.32991 -4.41901,-5.60068 -5.68066,-15.53596 0,-19.89491 1.59768,-1.22595 3.71918,-1.7326 6.03942,-1.70325 z m -28.62357,0.79271 -8.76743,10.1384 c 2.7448,-1.24589 5.7981,-1.9389 9.01909,-1.9389 2.62003,0 5.12791,0.46004 7.45019,1.30173 z" />
    <path
       style="fill:#61dfff;fill-opacity:1;stroke:none;stroke-width:4.99999;stroke-dasharray:none;stroke-opacity:1;paint-order:markers stroke fill"
       d="m 298.94963,291.36506 -33.15814,16.94749 -5.52636,19.15803 9.94744,-16.21065 29.47389,-16.21062 z"
       id="path43810" />
    <path
       style="fill:#61dfff;fill-opacity:1;stroke:none;stroke-width:4.99999;stroke-dasharray:none;stroke-opacity:1;paint-order:markers stroke fill"
       d="m 420.89791,321.57582 12.89481,-2.57897 -6.63162,-11.78957 -23.21068,-8.10532 19.52646,11.42113 5.52633,7.00006 z"
       id="path43812" />
    <path
       id="path44540"
       style="fill:#61dfff;fill-opacity:1;stroke:none;stroke-width:4.99999;stroke-dasharray:none;stroke-opacity:1;paint-order:markers stroke fill"
       d="m 378.35739,291.85402 c 0.34579,1.2776 0.57968,2.60203 0.68833,3.96307 -13.6535,4.48185 -28.15534,4.21137 -43.36118,0 0.0874,-1.09503 0.25634,-2.16615 0.49868,-3.20859 l -30.2333,4.65139 c 0,0 -4.4909,13.55074 -2.94762,18.78955 1.54328,5.23882 3.93166,9.43456 9.57874,9.57926 5.64709,0.1447 7.34839,-9.86036 18.10174,-9.33328 10.75335,0.52707 14.75442,9.59543 23.99957,10.69857 9.24516,1.10315 14.40112,-8.41494 25.45839,-10.52752 11.05729,-2.11257 10.60264,7.19261 16.80983,6.58306 6.20719,-0.60955 9.20688,-3.00973 11.42101,-8.10545 2.21413,-5.09571 -1.28933,-19.158 -1.28933,-19.158 z" />
    <rect
       style="fill:#004759;fill-opacity:1;stroke:#61dfff;stroke-width:2.74723;stroke-dasharray:none;stroke-opacity:1;paint-order:markers stroke fill"
       id="rect47596"
       width="22.961554"
       height="43.856583"
       x="345.14185"
       y="280.18631"
       rx="11.480777"
       ry="11.480777" />
    <path
       id="rect49470"
       style="fill:#00a1ca;fill-opacity:1;stroke:none;stroke-width:5.82401;stroke-dasharray:none;stroke-opacity:1;paint-order:markers stroke fill"
       d="m 356.7796,300.62419 a 5.1586321,5.1586321 0 0 0 -5.15854,5.15854 5.1586321,5.1586321 0 0 0 3.25644,4.79437 c -1.9404,0.76326 -3.307,2.65008 -3.307,4.86781 v 3.2185 c 0,2.89752 2.33265,5.23018 5.23017,5.23018 2.8975,0 5.23016,-2.33266 5.23016,-5.23018 v -3.2185 c 0,-2.22618 -1.3771,-4.11867 -3.32928,-4.87623 a 5.1586321,5.1586321 0 0 0 3.23718,-4.78595 5.1586321,5.1586321 0 0 0 -5.15913,-5.15854 z" />
    <path
       id="path90927"
       style="fill:#004759;fill-opacity:1;stroke:none;stroke-width:15.5739;stroke-linecap:butt;stroke-linejoin:miter;stroke-dasharray:none;stroke-opacity:1;paint-order:markers stroke fill"
       d="m 324.67843,202.9837 c 8.77387,0.22746 17.02461,3.08508 20.18921,9.87551 0.51057,1.09557 0.86158,2.22265 1.07141,3.36889 2.47533,5.35996 4.52941,10.8802 3.96605,17.18381 -15.83685,23.00754 -30.89375,25.41535 -48.59684,23.92209 -7.05811,-1.90058 -11.58326,-4.813 -12.96871,-8.97854 -2.07069,-3.53762 -3.05753,-6.49854 -3.99827,-9.43545 -6.60096,-10.6913 9.432,-27.05438 21.06117,-32.30037 5.31153,-2.39572 12.45183,-3.81213 19.27598,-3.63594 z" />
    <path
       id="path90925"
       style="fill:#61dfff;fill-opacity:1;stroke:none;stroke-width:13.6821;stroke-linecap:butt;stroke-linejoin:miter;stroke-dasharray:none;stroke-opacity:1;paint-order:markers stroke fill"
       d="m 323.44058,205.79024 c 7.70806,0.20081 14.95656,2.71039 17.73673,8.67597 4.40124,9.44395 -4.4503,21.51074 -16.11812,26.78088 -13.03273,5.88664 -28.33895,8.93186 -36.82682,-3.5295 -6.38991,-9.38122 7.92713,-24.06605 18.27375,-28.7335 4.66612,-2.10515 10.93928,-3.34868 16.93446,-3.19385 z m 20.5145,5.11283 c 1.51491,0.0541 4.15399,0.62461 5.53373,3.73684 2.0068,4.52685 -1.7378,7.32917 -1.7378,7.32917 -0.99618,-4.05358 -2.86917,-7.58981 -4.94123,-11.00787 0,0 0.45661,-0.0822 1.14521,-0.0581 z m 2.32941,17.70161 c 0,0 3.92604,3.69681 1.37961,7.94362 -2.54648,4.24681 -7.8352,2.32552 -7.8352,2.32552 3.16388,-3.05238 5.08311,-6.55538 6.45559,-10.26914 z m -60.92335,10.78098 c 1.59874,4.09523 4.09283,7.21409 6.99182,9.91069 0,0 -5.46277,2.16582 -8.40165,-1.81955 -2.93885,-3.98526 1.40983,-8.09114 1.40983,-8.09114 z m 47.46533,5.62229 c 0,0 2.30333,6.40355 -2.12426,8.62088 -4.42755,2.21729 -8.83284,-3.4198 -8.83284,-3.4198 4.30767,-0.87809 7.80625,-2.80361 10.9571,-5.20108 z m -33.05347,6.69069 c 4.17953,1.36324 8.17208,1.41518 12.09583,0.886 0,0 -1.15867,6.70656 -6.10372,6.44873 -4.945,-0.25793 -5.99211,-7.33473 -5.99211,-7.33473 z" />
    <path
       id="path49390"
       style="fill:#61dfff;fill-opacity:1;stroke:none;stroke-width:19.5157;paint-order:markers stroke fill"
       d="m 357.36518,278.83315 c -8.68074,0 -15.75207,6.64337 -16.43068,15.14369 11.52372,3.19159 22.51411,3.39657 32.86139,0 -0.6786,-8.50032 -7.74997,-15.14369 -16.43071,-15.14369 z"
       sodipodi:nodetypes="sccs" />
    <path
       id="path49473"
       style="fill:#00a1ca;fill-opacity:1;stroke:none;stroke-width:5.82401;stroke-dasharray:none;stroke-opacity:1;paint-order:markers stroke fill"
       d="m 356.71074,293.51279 v 0.0115 l -1.92498,3.58268 v 2.89709 l -0.8132,0.67776 a 5.4949923,5.4949923 0 0 1 2.80559,-0.77828 5.4949923,5.4949923 0 0 1 2.4312,0.57363 l -0.56761,-0.47311 v -2.89709 l -1.92499,-3.58268 v -0.0115 l -0.003,0.006 z m -6.37745,6.75907 -2.30659,0.26845 -0.16072,2.89649 3.21852,1.98516 0.19984,-0.002 a 5.4949923,5.4949923 0 0 1 -10e-4,-0.0216 5.4949923,5.4949923 0 0 1 1.35917,-3.60856 l -0.43158,0.35934 z m 12.76091,0 -1.87802,1.87741 -0.0373,-0.0313 a 5.4949923,5.4949923 0 0 1 1.09491,3.28052 5.4949923,5.4949923 0 0 1 -0.001,0.0228 l 0.0704,6.1e-4 3.21852,-1.98517 -0.16072,-2.89649 z" />
    <circle
       style="fill:#61dfff;fill-opacity:1;stroke:none;stroke-width:4.99999;stroke-dasharray:none;stroke-opacity:1;paint-order:markers stroke fill"
       id="path49483"
       cx="354.20621"
       cy="306.95895"
       r="1.5630897" />
    <circle
       style="fill:#61dfff;fill-opacity:1;stroke:none;stroke-width:4.99999;stroke-dasharray:none;stroke-opacity:1;paint-order:markers stroke fill"
       id="circle49485"
       cx="359.15601"
       cy="306.95895"
       r="1.5630897" />
    <path
       id="path53610"
       style="fill:#61dfff;fill-opacity:1;stroke:none;stroke-width:19.5128;stroke-opacity:1;paint-order:markers stroke fill"
       d="m 383.89918,34.021495 c -5.97042,-0.0338 -13.95031,3.74232 -14.56111,11.34816 13.07407,1.90564 24.2636,1.11482 27.55939,-10.97263 0,0 -4.64115,1.15457 -10.58959,-0.12741 -0.74356,-0.16025 -1.55577,-0.24327 -2.40869,-0.24809 z m -41.16014,0.2549 c -0.81711,0.005 -1.59479,0.0836 -2.30713,0.23719 -5.69869,1.22818 -10.1452,0.12265 -10.1452,0.12265 3.15741,11.57991 13.87695,12.33751 26.40206,10.5119 -0.58515,-7.28651 -8.22999,-10.90408 -13.94973,-10.87176 z" />
    <path
       id="path60152"
       style="fill:#004759;fill-opacity:1;stroke:none;stroke-width:4.99999;stroke-dasharray:none;stroke-opacity:1;paint-order:markers stroke fill"
       d="m 342.46957,455.90594 c -5.82428,0 -10.51306,4.68877 -10.51306,10.51306 v 11.27786 c 0,5.82428 4.68878,10.51305 10.51306,10.51305 h 39.15265 c 5.82427,0 10.51305,-4.68877 10.51305,-10.51305 v -5.0984 c -1.05776,0.28087 -2.14725,0.4245 -3.24166,0.42737 -1.47308,-0.003 -2.67402,-0.26074 -4.05912,-0.76223 l -1.21337,3.10245 h -6.63541 l 1.33842,-7.41795 c -1.67315,-2.21248 -2.18907,-4.90988 -2.19202,-7.68377 0.003,-1.48689 0.26518,-2.96188 0.77567,-4.35839 z"
       sodipodi:nodetypes="ssssssccccccccs" />
  </g>
</svg>
