<?xml version="1.0" encoding="UTF-8" standalone="no"?>
<!-- Created with Inkscape (http://www.inkscape.org/) -->

<svg
   width="280.68051mm"
   height="72.097923mm"
   viewBox="0 0 280.68051 72.097923"
   version="1.1"
   id="svg1259"
   inkscape:version="1.2.2 (b0a8486, 2022-12-01)"
   sodipodi:docname="Others.svg"
   xmlns:inkscape="http://www.inkscape.org/namespaces/inkscape"
   xmlns:sodipodi="http://sodipodi.sourceforge.net/DTD/sodipodi-0.dtd"
   xmlns="http://www.w3.org/2000/svg"
   xmlns:svg="http://www.w3.org/2000/svg">
  <sodipodi:namedview
     id="namedview1261"
     pagecolor="#175f4d"
     bordercolor="#000000"
     borderopacity="0.25"
     inkscape:showpageshadow="2"
     inkscape:pageopacity="0"
     inkscape:pagecheckerboard="0"
     inkscape:deskcolor="#d1d1d1"
     inkscape:document-units="mm"
     showgrid="false"
     inkscape:zoom="0.48947917"
     inkscape:cx="389.18919"
     inkscape:cy="541.39178"
     inkscape:window-width="1360"
     inkscape:window-height="699"
     inkscape:window-x="0"
     inkscape:window-y="32"
     inkscape:window-maximized="1"
     inkscape:current-layer="layer1"
     showguides="true" />
  <defs
     id="defs1256" />
  <g
     inkscape:label="Layer 1"
     inkscape:groupmode="layer"
     id="layer1"
     transform="translate(0.05300897,-0.60544698)">
    <path
       id="path9439"
       style="opacity:1;fill:#13678a;fill-opacity:1;stroke:none;stroke-width:2.784;stroke-linecap:round;stroke-linejoin:round;stroke-dasharray:2.784, 22.272;stroke-dashoffset:0;stroke-opacity:1;paint-order:markers stroke fill"
       d="m 162.89066,3.3992758 -3.73052,3.7305215 9.85935,9.8593457 -9.85935,9.859864 3.73052,3.730522 9.85935,-9.859347 9.85935,9.859347 3.73104,-3.730522 -9.85987,-9.859863 9.85987,-9.8593467 -3.73104,-3.7305222 -9.85935,9.8593469 z"
       inkscape:export-filename="Others/Pista.svg"
       inkscape:export-xdpi="96"
       inkscape:export-ydpi="96" />
    <path
       id="rect1445"
       style="fill:#13678a;fill-opacity:1;stroke-width:3.824;stroke-linecap:round;stroke-linejoin:round;paint-order:markers stroke fill"
       d="M 0.24959717,27.373839 V 72.703368 H 280.56953 V 27.373839 Z"
       inkscape:export-filename="Others/Pista.svg"
       inkscape:export-xdpi="96"
       inkscape:export-ydpi="96"
       sodipodi:nodetypes="ccccc" />
    <rect
       style="fill:none;fill-opacity:1;stroke:#9aeba3;stroke-width:2.784;stroke-linecap:round;stroke-linejoin:round;stroke-dasharray:2.784, 22.272;stroke-dashoffset:0;stroke-opacity:1;paint-order:markers stroke fill"
       id="rect7088"
       width="274.74988"
       height="0.35404152"
       x="4.7687969"
       y="57.854073"
       rx="4.8316393"
       ry="0" />
    <path
       id="rect9365"
       style="opacity:1;fill:#13678a;fill-opacity:1;stroke:none;stroke-width:2.784;stroke-linecap:round;stroke-linejoin:round;stroke-dasharray:2.784, 22.272;stroke-dashoffset:0;stroke-opacity:1;paint-order:markers stroke fill"
       d="m 25.349784,-20.542482 v 5.275754 h 13.943221 l 3.66e-4,13.9435872 h 5.275754 V -15.266362 h 13.943222 l 3.65e-4,-5.27612 H 44.56876 l 3.65e-4,-13.943587 -5.27612,3.65e-4 v 13.943222 z"
       transform="rotate(45)" />
    <g
       id="g6807"
       transform="translate(-2.8656682,-49.546667)">
      <g
         id="g3047"
         transform="translate(-4.9497915,37.25364)">
        <path
           id="rect5983"
           style="fill:#45c4b0;fill-opacity:1;stroke-width:3.824;stroke-linecap:round;stroke-linejoin:round;paint-order:markers stroke fill"
           transform="rotate(-90)"
           d="m -43.385801,33.885212 h 26.392731 c 1.814265,0 3.274847,1.401362 3.274847,3.142067 0,1.740705 -1.460582,3.142067 -3.274847,3.142067 h -26.392731 c -1.814265,0 -3.274847,-1.401362 -3.274847,-3.142067 0,-1.740705 1.460582,-3.142067 3.274847,-3.142067 z"
           sodipodi:nodetypes="sssssss" />
        <path
           id="rect3059"
           style="fill:#45c4b0;fill-opacity:1;stroke-width:3.824;stroke-linecap:round;stroke-linejoin:round;paint-order:markers stroke fill"
           transform="rotate(-90)"
           d="m -43.518581,84.162209 h 26.658291 c 1.740705,0 3.142067,1.401361 3.142067,3.142067 0,1.740705 -1.401362,3.142066 -3.142067,3.142066 h -26.658291 c -1.740705,0 -3.142067,-1.401361 -3.142067,-3.142066 0,-1.740706 1.401362,-3.142067 3.142067,-3.142067 z"
           sodipodi:nodetypes="sssssss" />
        <path
           id="rect3061"
           style="fill:#45c4b0;fill-opacity:1;stroke-width:3.824;stroke-linecap:round;stroke-linejoin:round;paint-order:markers stroke fill"
           transform="rotate(-90)"
           d="m -43.518581,137.23578 h 26.658291 c 1.740705,0 3.142067,1.40136 3.142067,3.14207 0,1.7407 -1.401362,3.14206 -3.142067,3.14206 h -26.658291 c -1.740705,0 -3.142067,-1.40136 -3.142067,-3.14206 0,-1.74071 1.401362,-3.14207 3.142067,-3.14207 z"
           sodipodi:nodetypes="sssssss" />
        <path
           id="rect3069"
           style="fill:#45c4b0;fill-opacity:1;stroke-width:3.824;stroke-linecap:round;stroke-linejoin:round;paint-order:markers stroke fill"
           transform="rotate(-90)"
           d="m -43.385801,189.67314 h 26.392731 c 1.814265,0 3.274847,1.40136 3.274847,3.14207 0,1.7407 -1.460582,3.14207 -3.274847,3.14207 h -26.392731 c -1.814265,0 -3.274847,-1.40137 -3.274847,-3.14207 0,-1.74071 1.460582,-3.14207 3.274847,-3.14207 z"
           sodipodi:nodetypes="sssssss" />
        <path
           id="path7366"
           style="fill:#45c4b0;fill-opacity:1;stroke-width:3.824;stroke-linecap:round;stroke-linejoin:round;paint-order:markers stroke fill"
           d="m 285.94349,13.718062 c -1.74071,0 -3.14245,1.401741 -3.14245,3.142444 v 26.658321 c 0,1.740704 1.40174,3.141927 3.14245,3.141927 0.8953,0 1.69888,-0.372517 2.27014,-0.969449 V 14.687512 c -0.57126,-0.596932 -1.37484,-0.96945 -2.27014,-0.96945 z" />
        <path
           id="path7374"
           style="fill:#45c4b0;fill-opacity:1;stroke-width:3.824;stroke-linecap:round;stroke-linejoin:round;paint-order:markers stroke fill"
           d="M 237.97136,43.385801 V 16.99307 c 0,-1.814265 1.40136,-3.274847 3.14207,-3.274847 1.7407,0 3.14207,1.460582 3.14207,3.274847 v 26.392731 c 0,1.814265 -1.40137,3.274847 -3.14207,3.274847 -1.74071,0 -3.14207,-1.460582 -3.14207,-3.274847 z"
           sodipodi:nodetypes="sssssss" />
        <path
           id="rect5457"
           style="fill:#9aeba3;fill-opacity:1;stroke-width:3.824;stroke-linecap:round;stroke-linejoin:round;paint-order:markers stroke fill"
           d="m 8.0650569,12.898474 v 6.284371 H 288.20936 v -6.284371 z"
           sodipodi:nodetypes="ccccc" />
        <path
           id="rect5979"
           style="fill:#45c4b0;fill-opacity:1;stroke-width:3.824;stroke-linecap:round;stroke-linejoin:round;paint-order:markers stroke fill"
           d="m -13.718062,9.9310928 c 0,-0.7010211 -0.230272,-1.3444546 -0.615467,-1.8660359 h -31.711759 c -0.385195,0.5215813 -0.615466,1.1650148 -0.615466,1.8660359 0,1.7407032 1.401223,3.1424442 3.141927,3.1424442 h 26.658321 c 1.740703,0 3.142444,-1.401741 3.142444,-3.1424442 z"
           transform="rotate(-90)" />
        <path
           id="rect5981"
           style="fill:#45c4b0;fill-opacity:1;stroke-width:3.824;stroke-linecap:round;stroke-linejoin:round;paint-order:markers stroke fill"
           transform="rotate(-90)"
           d="m -43.518581,59.862827 h 26.658291 c 1.740705,0 3.142067,1.401362 3.142067,3.142067 0,1.740705 -1.401362,3.142067 -3.142067,3.142067 h -26.658291 c -1.740705,0 -3.142067,-1.401362 -3.142067,-3.142067 0,-1.740705 1.401362,-3.142067 3.142067,-3.142067 z"
           sodipodi:nodetypes="sssssss" />
        <path
           id="rect3063"
           style="fill:#45c4b0;fill-opacity:1;stroke-width:3.824;stroke-linecap:round;stroke-linejoin:round;paint-order:markers stroke fill"
           transform="rotate(-90)"
           d="m -43.385801,111.25816 h 26.392731 c 1.814265,0 3.274847,1.40137 3.274847,3.14207 0,1.74071 -1.460582,3.14207 -3.274847,3.14207 h -26.392731 c -1.814265,0 -3.274847,-1.40136 -3.274847,-3.14207 0,-1.7407 1.460582,-3.14207 3.274847,-3.14207 z"
           sodipodi:nodetypes="sssssss" />
        <path
           id="rect3065"
           style="fill:#45c4b0;fill-opacity:1;stroke-width:3.824;stroke-linecap:round;stroke-linejoin:round;paint-order:markers stroke fill"
           transform="rotate(-90)"
           d="m -43.518581,164.14029 h 26.658291 c 1.740705,0 3.142067,1.40136 3.142067,3.14207 0,1.7407 -1.401362,3.14206 -3.142067,3.14206 h -26.658291 c -1.740705,0 -3.142067,-1.40136 -3.142067,-3.14206 0,-1.74071 1.401362,-3.14207 3.142067,-3.14207 z"
           sodipodi:nodetypes="sssssss" />
        <path
           id="path7372"
           style="fill:#45c4b0;fill-opacity:1;stroke-width:3.824;stroke-linecap:round;stroke-linejoin:round;paint-order:markers stroke fill"
           d="M 213.27956,43.385801 V 16.99307 c 0,-1.814265 1.40136,-3.274847 3.14207,-3.274847 1.7407,0 3.14207,1.460582 3.14207,3.274847 v 26.392731 c 0,1.814265 -1.40137,3.274847 -3.14207,3.274847 -1.74071,0 -3.14207,-1.460582 -3.14207,-3.274847 z"
           sodipodi:nodetypes="sssssss" />
        <path
           id="path7376"
           style="fill:#45c4b0;fill-opacity:1;stroke-width:3.824;stroke-linecap:round;stroke-linejoin:round;paint-order:markers stroke fill"
           d="M 261.84911,43.385801 V 16.99307 c 0,-1.814265 1.40136,-3.274847 3.14207,-3.274847 1.7407,0 3.14207,1.460582 3.14207,3.274847 v 26.392731 c 0,1.814265 -1.40137,3.274847 -3.14207,3.274847 -1.74071,0 -3.14207,-1.460582 -3.14207,-3.274847 z"
           sodipodi:nodetypes="sssssss" />
      </g>
      <path
         id="rect6303"
         style="fill:#d9f7dc;fill-opacity:1;stroke-width:2.784;stroke-linecap:round;stroke-linejoin:round;stroke-dasharray:2.784, 22.272;paint-order:markers stroke fill"
         d="M 6.8905609,50.810462 H 49.811939 c 0.867452,0 1.565798,0.575108 1.565798,1.289481 0,0.714372 -0.698346,1.28948 -1.565798,1.28948 H 6.8905609 c -0.8674523,0 -1.5657983,-0.575108 -1.5657983,-1.28948 0,-0.714373 0.698346,-1.289481 1.5657983,-1.289481 z" />
      <path
         id="rect6792"
         style="fill:#d9f7dc;fill-opacity:1;stroke-width:2.784;stroke-linecap:round;stroke-linejoin:round;stroke-dasharray:2.784, 22.272;paint-order:markers stroke fill"
         d="M 56.811986,50.810462 H 63.2594 c 0.867452,0 1.565798,0.575108 1.565798,1.289481 0,0.714372 -0.698346,1.28948 -1.565798,1.28948 h -6.447414 c -0.867452,0 -1.565798,-0.575108 -1.565798,-1.28948 0,-0.714373 0.698346,-1.289481 1.565798,-1.289481 z" />
    </g>
    <rect
       style="fill:none;fill-opacity:1;stroke:#9aeba3;stroke-width:2.784;stroke-linecap:round;stroke-linejoin:round;stroke-dasharray:2.784, 22.272;stroke-dashoffset:0;stroke-opacity:1;paint-order:markers stroke fill"
       id="rect2677"
       width="274.76175"
       height="0.35405686"
       x="4.7687969"
       y="44.567795"
       rx="4.8316393"
       ry="0" />
    <path
       id="rect6811"
       style="opacity:0.555402;fill:#2e3435;fill-opacity:1;stroke-width:2.784;stroke-linecap:round;stroke-linejoin:round;stroke-dasharray:2.784, 22.272;paint-order:markers stroke fill"
       d="M 0.24959717,32.833454 V 62.117813 L 260.4674,52.372313 280.56953,36.332982 v -3.499528 z"
       sodipodi:nodetypes="cccccc" />
    <path
       id="rect6809"
       style="fill:#13678a;fill-opacity:1;stroke:none;stroke-width:2.784;stroke-linecap:round;stroke-linejoin:round;stroke-dasharray:2.784, 22.272;stroke-dashoffset:0;stroke-opacity:1;paint-order:markers stroke fill"
       d="m 0.24959717,26.581122 v 7.815544 H 280.60005 v -7.815544 z"
       sodipodi:nodetypes="ccccc" />
    <rect
       style="opacity:1;fill:#d9f7dc;fill-opacity:1;stroke:none;stroke-width:2.784;stroke-linecap:round;stroke-linejoin:round;stroke-dasharray:2.784, 22.272;stroke-dashoffset:0;stroke-opacity:1;paint-order:markers stroke fill"
       id="rect7624"
       width="278.33926"
       height="1.6720424"
       x="1.0992757"
       y="4.9769158"
       rx="0.83602118"
       ry="0.83602118" />
    <rect
       style="opacity:1;fill:#9aeba3;fill-opacity:1;stroke:none;stroke-width:2.784;stroke-linecap:round;stroke-linejoin:round;stroke-dasharray:2.784, 22.272;stroke-dashoffset:0;stroke-opacity:1;paint-order:markers stroke fill"
       id="rect8872"
       width="280.68051"
       height="3.1142597"
       x="-0.053008977"
       y="31.540812"
       rx="0"
       ry="0" />
  </g>
</svg>
